<svg width="1452" height="1382" viewBox="0 0 1452 1382" fill="none" xmlns="http://www.w3.org/2000/svg" xmlns:xlink="http://www.w3.org/1999/xlink">
<g opacity="0.2">
<path d="M113.899,1013.835C113.899,939.681 68.609,876.419 4.933,851.692L4.933,728.357C50.553,733.452 75.733,784.923 98.601,821.886C111.124,851.569 157.403,898.053 194.426,908.694C214.161,947.657 219.847,966.861 219.847,1013.835C219.847,1148.705 127.876,1261.461 4.933,1289.415L4.933,1175.981C68.609,1151.251 113.899,1087.989 113.899,1013.835Z" fill="#FFFFFF"/>
</g>
<g opacity="0.2">
<path d="M-0.072,64.221L-0.072,1368.762C227.462,1346.136 403.998,1234.724 540.318,1233.142C676.638,1231.562 565.504,1222.638 902.538,1330.808C1239.572,1438.976 1490.034,1388.002 1341.704,1015.588C1193.374,643.172 1485.906,596.996 1448.652,452.322C1411.396,307.65 1415.988,395.294 1166.722,324.178C917.476,253.064 999.87,-49.803 720.56,7.233C441.25,64.268 274.838,255.994 198.082,124.337C140.083,24.831 56.577,41.394 19.241,55.43C19.241,55.43 19.241,55.409 19.221,55.43C7.172,59.953 -0.072,64.221 -0.072,64.221Z" fill="url(#pf_0_4_119)"/>
</g>
<path d="M3.565,27.674L3.565,1301.166C42.134,1308.256 90.224,1306.302 150.392,1291.88C389.049,1234.628 534.367,1109.676 864.313,1255.658C1030.303,1329.09 1305.429,1364.74 1393.517,1138.918C1396.959,1130.092 1400.019,1120.85 1402.677,1111.192C1447.747,947.164 1293.373,813.542 1308.409,648.878C1317.427,550.158 1411.655,511.456 1425.625,418.512C1449.881,257.162 1275.523,256.986 1186.851,279.048C1052.687,312.416 981.467,148.301 885.489,81.786C685.963,-56.491 506.547,186.41 323.949,240.632C258.407,260.104 193.409,245.088 143.568,192.425C98.698,145.008 73.093,35.906 3.565,27.674Z" fill="url(#pf_0_4_121)"/>
<path d="M3.749,1073.589L3.749,1301.811C42.044,1308.901 89.794,1306.947 149.536,1292.527C386.505,1235.286 530.793,1110.354 858.403,1256.313C1023.217,1329.731 1363.483,1370.237 1409.753,1073.589L3.749,1073.589Z" fill="url(#pf_0_4_123)"/>
<g opacity="0.2">
<path d="M283.954,1237.864C283.954,1240.932 274.662,1243.418 263.199,1243.418C251.737,1243.418 242.444,1240.932 242.444,1237.864C242.444,1234.797 251.737,1232.31 263.199,1232.31C274.662,1232.31 283.954,1234.797 283.954,1237.864Z" fill="#FFFFFF"/>
<path d="M582.935,1180.696C582.935,1181.416 580.753,1182.001 578.06,1182.001C575.367,1182.001 573.184,1181.416 573.184,1180.696C573.184,1179.975 575.367,1179.391 578.06,1179.391C580.753,1179.391 582.935,1179.975 582.935,1180.696Z" fill="#FFFFFF"/>
<path d="M371.959,1107.26C371.959,1110.328 362.667,1112.814 351.204,1112.814C339.742,1112.814 330.449,1110.328 330.449,1107.26C330.449,1104.193 339.742,1101.706 351.204,1101.706C362.667,1101.706 371.959,1104.193 371.959,1107.26Z" fill="#FFFFFF"/>
<path d="M426.802,1197.661C426.802,1200.217 419.059,1202.289 409.507,1202.289C399.954,1202.289 392.211,1200.217 392.211,1197.661C392.211,1195.104 399.954,1193.032 409.507,1193.032C419.059,1193.032 426.802,1195.104 426.802,1197.661Z" fill="#FFFFFF"/>
<path d="M129.392,1212.357C129.392,1218.321 111.324,1223.156 89.036,1223.156C66.749,1223.156 48.681,1218.321 48.681,1212.357C48.681,1206.393 66.749,1201.558 89.036,1201.558C111.324,1201.558 129.392,1206.393 129.392,1212.357Z" fill="#FFFFFF"/>
<path d="M157.086,1102.562C157.086,1105.157 149.225,1107.26 139.528,1107.26C129.83,1107.26 121.969,1105.157 121.969,1102.562C121.969,1099.967 129.83,1097.863 139.528,1097.863C149.225,1097.863 157.086,1099.967 157.086,1102.562Z" fill="#FFFFFF"/>
<path d="M541,1134.572C541,1136.879 534.012,1138.749 525.392,1138.749C516.772,1138.749 509.784,1136.879 509.784,1134.572C509.784,1132.265 516.772,1130.395 525.392,1130.395C534.012,1130.395 541,1132.265 541,1134.572Z" fill="#FFFFFF"/>
<path d="M710.705,1112.815C710.705,1115.359 702.996,1117.422 693.487,1117.422C683.978,1117.422 676.269,1115.359 676.269,1112.815C676.269,1110.27 683.978,1108.207 693.487,1108.207C702.996,1108.207 710.705,1110.27 710.705,1112.815Z" fill="#FFFFFF"/>
<path d="M790.353,1170.357C790.353,1174.976 776.362,1178.72 759.102,1178.72C741.842,1178.72 727.85,1174.976 727.85,1170.357C727.85,1165.738 741.842,1161.994 759.102,1161.994C776.362,1161.994 790.353,1165.738 790.353,1170.357Z" fill="#FFFFFF"/>
</g>
<g opacity="0.2">
<path d="M1157.955,1237.864C1157.955,1240.932 1148.662,1243.418 1137.199,1243.418C1125.737,1243.418 1116.444,1240.932 1116.444,1237.864C1116.444,1234.797 1125.737,1232.31 1137.199,1232.31C1148.662,1232.31 1157.955,1234.797 1157.955,1237.864Z" fill="#FFFFFF"/>
<path d="M1245.959,1107.26C1245.959,1110.328 1236.667,1112.814 1225.204,1112.814C1213.742,1112.814 1204.449,1110.328 1204.449,1107.26C1204.449,1104.193 1213.742,1101.706 1225.204,1101.706C1236.667,1101.706 1245.959,1104.193 1245.959,1107.26Z" fill="#FFFFFF"/>
<path d="M1300.802,1197.661C1300.802,1200.217 1293.059,1202.289 1283.507,1202.289C1273.954,1202.289 1266.211,1200.217 1266.211,1197.661C1266.211,1195.104 1273.954,1193.032 1283.507,1193.032C1293.059,1193.032 1300.802,1195.104 1300.802,1197.661Z" fill="#FFFFFF"/>
<path d="M1003.392,1212.357C1003.392,1218.321 985.324,1223.156 963.036,1223.156C940.749,1223.156 922.681,1218.321 922.681,1212.357C922.681,1206.393 940.749,1201.558 963.036,1201.558C985.324,1201.558 1003.392,1206.393 1003.392,1212.357Z" fill="#FFFFFF"/>
<path d="M1031.086,1102.562C1031.086,1105.157 1023.225,1107.26 1013.528,1107.26C1003.83,1107.26 995.969,1105.157 995.969,1102.562C995.969,1099.967 1003.83,1097.863 1013.528,1097.863C1023.225,1097.863 1031.086,1099.967 1031.086,1102.562Z" fill="#FFFFFF"/>
</g>
<rect  x="115.071" y="198.149" width="1052.52" height="861.219" rx="54.366" fill="url(#pf_0_4_138)"/>
<g filter="url(#filter4_140)">
<path d="M242.639,384.845L242.639,714.522C242.639,717.776 242.909,720.964 243.412,724.084C247.975,752.234 272.399,773.74 301.825,773.74L981.241,773.74C993.017,773.74 1003.989,770.316 1013.215,764.38C1015.967,762.6 1018.583,760.62 1020.999,758.44C1026.703,753.24 1031.399,746.966 1034.721,739.954C1034.991,739.384 1035.259,738.846 1035.493,738.276C1035.661,737.906 1035.829,737.538 1035.963,737.136C1038.849,730.19 1040.459,722.54 1040.459,714.522L1040.459,384.845C1040.459,352.133 1013.953,325.626 981.241,325.626L301.825,325.626C269.145,325.626 242.639,352.133 242.639,384.845Z" fill="#EAF5FF"/>
</g>
<circle cx="903.102" cy="443.72" r="88.132" fill="#FFFFFF"/>
<path d="M903.102,392.099C931.611,392.099 954.723,415.21 954.723,443.719C954.723,472.23 931.611,495.34 903.102,495.34C874.592,495.34 851.481,472.23 851.481,443.719L903.102,443.719L903.102,392.099Z" fill="#00FAAC"/>
<path d="M892.363,381.361L892.363,432.981L840.742,432.981C840.742,404.473 863.854,381.361 892.363,381.361Z" fill="#FFC731"/>
<rect  x="518.824" y="392.768" width="257.228" height="10.739" fill="#C1E3F7"/>
<rect  x="518.824" y="426.319" width="257.228" height="10.739" fill="#C1E3F7"/>
<rect  x="518.824" y="459.87" width="257.228" height="10.739" fill="#C1E3F7"/>
<rect  x="518.824" y="493.422" width="257.228" height="10.739" fill="#C1E3F7"/>
<path d="M243.412,473.724L243.412,724.084C247.975,752.234 272.399,773.74 301.825,773.74L981.242,773.74C993.018,773.74 1003.988,770.318 1013.214,764.38C1015.968,762.602 1018.584,760.622 1021,758.442C1006.068,754.382 978.154,739.888 935.24,691.74C911.99,665.671 883.942,644.701 853.344,629.336C846.632,625.946 839.822,622.86 832.842,620.007L832.81,620.007L832.776,620.007C765.94,592.764 689.712,591.053 624.824,619.604C598.62,631.146 574.23,636.816 551.648,638.125L551.616,638.125C547.354,638.428 543.194,638.495 539.034,638.428C461.328,637.522 406.639,585.215 377.247,547.503C355.842,520.059 332.625,502.812 311.621,491.975C306.252,489.19 300.985,486.809 295.953,484.829C266.93,473.254 245.055,473.655 243.412,473.724Z" fill="url(#pf_0_4_151)"/>
<path d="M243.412,473.724L243.646,481.776C243.915,481.81 257.67,481.607 277.835,487.446C282.935,488.922 288.504,490.8 294.309,493.216C317.694,502.745 345.777,520.259 370.874,552.469C402.68,593.267 463.072,650.507 549.5,646.48C553.762,646.278 558.056,645.942 562.418,645.44C582.952,643.058 604.826,637.252 628.078,627.02C685.786,601.587 752.79,600.917 813.552,621.45C819.69,623.497 825.764,625.779 831.736,628.296C868.442,643.561 902.16,666.812 929.202,697.142C968.056,740.692 995.634,757.904 1013.214,764.38C1015.968,762.602 1018.584,760.622 1021,758.442C1006.068,754.382 978.154,739.888 935.24,691.74C911.99,665.671 883.942,644.701 853.344,629.336C846.632,625.946 839.788,622.86 832.81,620.007L832.776,620.007C765.94,592.764 689.712,591.053 624.824,619.604C598.62,631.146 574.23,636.816 551.648,638.125C547.386,638.428 543.194,638.495 539.034,638.428C461.328,637.522 406.639,585.215 377.247,547.503C355.842,520.059 332.625,502.812 311.621,491.975C306.252,489.19 300.985,486.809 295.953,484.829C266.93,473.254 245.055,473.655 243.412,473.724Z" fill="#00FAAC"/>
<path d="M242.203,496.908L244.82,504.557C369.498,461.779 456.531,535.524 507.629,604.909C535.477,642.755 572.753,666.611 615.395,673.858C654.349,680.5 696.959,673.455 738.597,653.491C822.041,613.498 887.833,620.847 945.575,676.541C1008.855,737.607 1034.319,739.987 1035.359,740.053L1035.629,736.027L1035.963,732.001L1035.895,732.001C1034.453,731.767 1009.861,727.371 951.179,670.738C890.685,612.358 822.007,604.573 735.107,646.211C648.511,687.713 565.907,670.468 514.105,600.112C461.429,528.545 371.51,452.553 242.203,496.908Z" fill="#FFC731"/>
<path d="M162.904,198.149L1119.758,198.149C1146.176,198.149 1167.592,219.564 1167.592,245.982L1167.592,282.399L115.072,282.399L115.072,245.982C115.072,219.564 136.487,198.149 162.904,198.149Z" fill="url(#pf_0_4_157)"/>
<circle cx="251.849" cy="243.633" r="10.696" fill="#FF6382"/>
<circle cx="212.407" cy="243.633" r="10.696" fill="#FEC40C"/>
<circle cx="172.965" cy="243.633" r="10.696" fill="#10C392"/>
<path d="M316.518,475.001L363.193,365.466C365.486,360.085 362.936,353.868 357.523,351.649L289.129,323.608C283.822,321.431 277.749,323.923 275.5,329.2L228.826,438.736C226.533,444.117 229.084,450.334 234.497,452.551L302.891,480.594C308.199,482.771 314.27,480.279 316.518,475.001Z" fill="url(#pf_0_4_162)"/>
<path d="M306.865,473.768C307.745,473.768 308.964,473.309 309.517,472.015L356.189,362.481C356.601,361.517 356.376,360.678 356.205,360.262C356.036,359.845 355.605,359.09 354.635,358.693L286.241,330.652C285.889,330.508 285.523,330.434 285.155,330.434C284.275,330.434 283.056,330.891 282.504,332.186L235.829,441.72C235.419,442.683 235.645,443.524 235.813,443.939C235.986,444.355 236.417,445.111 237.385,445.509L305.779,473.55C306.131,473.694 306.497,473.768 306.865,473.768Z" fill="url(#pf_0_4_164)"/>
<circle cx="301.081" cy="401.742" r="17.182" fill="url(#pf_0_4_165)"/>
<path d="M214.292,598.937C214.292,598.937 213.713,598.516 213.71,598.525C211.421,603.522 211.725,603.751 218.13,606.959C222.331,609.062 230.232,613.952 230.717,611.666C231.147,609.597 230.188,608.351 226.457,605.569C226.067,605.289 225.65,604.974 225.196,604.65C220.413,601.193 221.734,599.781 221.734,599.781L215.505,596.663C215.009,597.508 214.604,598.252 214.292,598.937Z" fill="url(#pf_0_4_167)"/>
<path d="M270.669,508.077L221.739,599.781L215.507,596.66L237.58,523.215L189.447,583.611L183.357,580.562L226.623,487.083L264.59,488.023C264.59,488.023 276.682,496.806 270.669,508.077Z" fill="url(#pf_0_4_169)"/>
<path d="M217.33,507.163L226.623,487.083L256.252,487.817L249.914,504.322C249.914,504.322 243.63,506.403 235.372,500.828C227.115,495.252 227.578,501.034 223.406,502.041C219.237,503.047 217.333,507.156 217.33,507.163Z" fill="#1D164D"/>
<path d="M216.3,441.884C217.926,452.796 227.689,474.329 227.689,474.329L231.303,471.355C231.303,471.355 229.056,448.972 231.857,446.199C234.661,443.426 251.759,435.364 251.759,435.364L225.412,487.983C225.412,487.983 224.989,490.163 231.201,495.527C235.864,499.563 245.426,502.905 249.914,504.322C251.154,504.71 252.46,503.971 252.775,502.704C253.72,498.905 255.853,493.267 255.853,493.267C263.095,498.796 268.227,497.995 268.227,497.995L265.468,507.477C265.049,508.925 266.052,510.426 267.556,510.542C269.392,510.676 270.863,510.412 272.007,509.975C274.204,509.131 275.685,507.067 275.978,504.737C277.884,489.832 287.012,469.608 289.195,464.95L289.207,464.926C289.496,464.304 289.658,463.961 289.658,463.961C291.944,474.532 297.675,476.073 304.158,473.74C310.54,471.44 338.139,457.371 339.007,456.933L339.025,456.921L335.211,450.463C335.211,450.463 310.118,458.656 306.829,456.477C303.533,454.295 305.295,442.285 301.788,436.278C299.732,432.741 296.773,429.802 294.686,427.981C293.234,426.701 292.206,425.975 292.206,425.975L282.375,419.967C282.375,419.967 281.082,419.427 279.158,418.665C275.452,417.192 269.363,414.876 265.517,414.002C259.678,412.673 253.65,415.054 239.477,420.009C225.308,424.957 214.683,430.977 216.3,441.884Z" fill="url(#pf_0_4_173)"/>
<path d="M279.158,418.665C280.798,425.301 280.279,435.148 276.797,442.417C270.84,454.846 261.656,475.309 255.853,493.267C263.096,498.796 268.227,497.995 268.227,497.995C268.227,497.995 282.408,448.83 294.686,427.981C293.234,426.701 292.206,425.975 292.206,425.975L284.133,421.039L282.375,419.967C282.375,419.967 281.082,419.427 279.158,418.665Z" fill="url(#pf_0_4_175)"/>
<path d="M263.972,431.079C263.972,431.079 257.118,436.135 249.169,448.808C241.223,461.482 235.87,470.893 236.06,474.35C236.25,477.808 234.376,481.472 234.376,481.472C234.376,481.472 233.007,482.408 232.046,480.847C231.087,479.286 229.575,480.15 228.685,481.445L251.76,435.364L263.972,431.079Z" fill="#6BBC61"/>
<path d="M339.025,456.921C339.025,456.921 348.301,457.756 351.169,457.51C354.037,457.264 352.866,455.003 348.797,453.227C344.726,451.45 338.786,449.959 338.786,449.959C338.786,449.959 340.709,447.357 339.15,446.931C337.593,446.505 335.212,450.462 335.212,450.462L339.025,456.921Z" fill="url(#pf_0_4_179)"/>
<path d="M231.303,471.355C231.303,471.355 235.094,473.699 235.481,477.171C235.87,480.643 234.487,482.873 233.107,480.499C231.728,478.125 229.352,475.246 227.691,474.329L231.303,471.355Z" fill="url(#pf_0_4_181)"/>
<path d="M214.292,598.937L214.289,598.944C214.28,599.088 214.266,600.39 216.068,601.546C217.984,602.771 223.29,606.757 225.22,606.618C225.394,606.609 225.538,606.575 225.674,606.537C226.172,606.371 226.409,606.023 226.457,605.569C226.066,605.287 225.649,604.974 225.195,604.65C220.411,601.193 221.734,599.781 221.734,599.781L215.505,596.663C215.007,597.508 214.604,598.252 214.292,598.937Z" fill="url(#pf_0_4_183)"/>
<path d="M182.144,582.836C182.144,582.836 181.565,582.415 181.56,582.424C179.271,587.421 179.434,587.578 185.84,590.786C190.04,592.889 197.941,597.781 198.427,595.495C198.856,593.425 197.897,592.18 194.167,589.397C193.776,589.116 193.361,588.801 192.905,588.479C188.122,585.019 189.444,583.61 189.444,583.61L183.357,580.562C182.859,581.407 182.454,582.151 182.144,582.836Z" fill="url(#pf_0_4_185)"/>
<path d="M182.145,582.839L182.141,582.848C182.132,582.992 181.974,584.22 183.776,585.376C184.46,585.815 185.572,586.606 186.818,587.432C186.852,587.449 186.873,587.47 186.899,587.483L186.906,587.486C189.12,588.968 191.703,590.538 192.928,590.448C193.744,590.39 194.102,589.973 194.165,589.399C193.774,589.119 193.357,588.804 192.903,588.481C188.12,585.023 189.442,583.611 189.442,583.611L183.359,580.565C182.861,581.412 182.456,582.154 182.145,582.839Z" fill="url(#pf_0_4_187)"/>
<path d="M288.794,407.144L282.375,419.967C283.274,421.736 284.124,423.096 284.935,424.129C289.262,429.709 292.206,425.975 292.206,425.975L293.72,422.948C293.72,422.948 297.681,425.654 301.086,422.842C304.484,420.027 311.269,408.342 311.269,408.342C311.269,408.342 301.556,410.146 298.392,400.396C298.392,400.396 297.303,405.314 293.366,406.887C293.366,406.887 293.468,402.433 290.491,402.984C287.511,403.535 288.794,407.144 288.794,407.144Z" fill="url(#pf_0_4_189)"/>
<path d="M293.72,422.948C293.72,422.948 289.815,420.882 289.275,415.566C289.275,415.566 287.563,422.564 292.639,425.107L293.72,422.948Z" fill="#1D164D"/>
<path d="M294.883,460.169C295.682,463.532 292.286,466.636 294.109,469.87C295.932,473.105 297.285,471.033 300.304,472.526C303.166,473.94 305.737,473.097 306.001,473.004C305.281,473.309 304.651,473.562 304.158,473.74C297.676,476.073 291.944,474.532 289.658,463.961C289.658,463.961 293.663,454.835 296.903,449.491C296.903,449.491 294.084,456.806 294.883,460.169Z" fill="#6BBC61"/>
<path d="M255.853,493.267C261.656,475.309 270.84,454.846 276.797,442.417C278.794,438.248 279.813,433.232 280.012,428.459L280.013,428.458C280.013,428.458 281.004,431.602 279.463,440.758C277.921,449.914 272.475,453.113 274.639,456.439C276.804,459.763 266.126,470.59 263.544,483.214C260.961,495.838 268.227,497.996 268.227,497.996C268.227,497.996 263.096,498.796 255.853,493.267Z" fill="#C9E2F4"/>
<path d="M230.438,546.979L237.58,523.216L248.942,510.024L230.438,546.979Z" fill="#1D164D"/>
<path d="M274.022,416.698C274.407,416.838 274.789,416.979 275.164,417.12C276.825,421.621 277.923,430.504 271.819,445.778C269.155,452.444 266.258,458.934 263.457,465.209C256.518,480.758 250.5,494.268 250.572,504.415C250.354,504.413 250.134,504.39 249.914,504.322L249.708,504.256C249.703,493.943 255.732,480.413 262.672,464.86C265.47,458.591 268.363,452.11 271.022,445.458C277.355,429.61 275.72,420.75 274.022,416.698Z" fill="#FFFFFF"/>
<path d="M279.475,472.791C277.632,478.345 276.051,482.991 274.655,487.089C269.603,501.92 267.784,507.259 269.149,510.547C268.855,510.563 268.544,510.563 268.225,510.556C266.969,506.986 268.875,501.393 273.841,486.813C275.238,482.716 276.82,478.07 278.658,472.52C285.741,451.142 293.38,436.325 296.885,430.048C297.093,430.258 297.301,430.469 297.51,430.692C293.975,437.05 286.457,451.714 279.475,472.791Z" fill="#FFFFFF"/>
<path d="M192.982,498.453L239.657,432.735L226.428,426.098L141.759,472.478L143.225,505.619L192.982,498.453Z" fill="url(#pf_0_4_203)"/>
<path d="M83.69,629.091C83.69,651.315 80.258,671.535 77.003,691.119L203.349,691.119C198.95,676.603 188.831,633.93 197.63,618.093C206.217,602.625 200.129,581.702 199.847,580.734L218.025,605.528C229.674,621.436 253.975,619.676 263.214,602.238L342.665,452.241L323.265,440.803L238.543,546.966L204.834,508.889C195.865,498.755 183.906,491.734 170.687,488.838L153.197,485.007C125.922,488.737 83.69,629.091 83.69,629.091Z" fill="url(#pf_0_4_205)"/>
<path d="M245.362,1025.737C245.362,1031.403 256.777,1036.395 262.206,1038.013L294.468,1047.624C297.734,1048.597 299.972,1051.601 299.972,1055.008C299.972,1057.417 298.02,1059.368 295.613,1059.368L220.693,1059.365C216.107,1059.365 212.389,1055.646 212.389,1051.061L209.508,1025.737L245.362,1025.737Z" fill="url(#pf_0_4_207)"/>
<path d="M255.598,1044.057C258.892,1045.887 262.14,1043.552 265.276,1041.294C266.061,1040.73 266.855,1040.161 267.657,1039.637L265.6,1039.024C265.16,1039.332 264.727,1039.642 264.303,1039.948C261.342,1042.084 258.795,1043.93 256.402,1042.604C255.775,1042.257 255.691,1041.903 255.684,1041.637C255.663,1040.425 257.243,1038.611 259.378,1036.737C258.881,1036.443 258.408,1036.126 257.959,1035.772C255.744,1037.787 253.991,1039.931 254.024,1041.667C254.037,1042.368 254.322,1043.346 255.598,1044.057Z" fill="#FFFFFF"/>
<path d="M276.491,1042.269L274.814,1041.77C274.442,1042.289 274.055,1042.802 273.701,1043.269C272.121,1045.345 270.875,1046.983 271.372,1048.257C271.525,1048.653 271.91,1049.164 272.874,1049.338C273.195,1049.396 273.503,1049.422 273.805,1049.422C275.991,1049.422 277.726,1047.976 279.695,1046.331C280.548,1045.62 281.523,1044.844 282.604,1044.09L280.577,1043.485C279.878,1044.022 279.229,1044.555 278.629,1045.057C276.552,1046.788 275.041,1048.06 273.172,1047.703C273.022,1047.677 272.945,1047.645 272.922,1047.645L272.918,1047.645C272.874,1047.103 274.217,1045.338 275.021,1044.275C275.528,1043.607 276.035,1042.934 276.491,1042.269Z" fill="#FFFFFF"/>
<path d="M138.518,1025.737C138.518,1031.403 142.552,1036.395 147.982,1038.013L180.242,1047.624C183.508,1048.597 185.748,1051.601 185.748,1055.008C185.748,1057.417 183.795,1059.368 181.388,1059.368L106.194,1059.368C101.608,1059.368 97.89,1055.65 97.89,1051.064L99.972,1025.737L138.518,1025.737Z" fill="url(#pf_0_4_213)"/>
<path d="M141.372,1044.057C144.669,1045.887 147.915,1043.552 151.053,1041.294C151.837,1040.73 152.629,1040.161 153.433,1039.637L151.375,1039.024C150.937,1039.332 150.502,1039.642 150.079,1039.948C147.118,1042.084 144.57,1043.93 142.177,1042.604C141.55,1042.257 141.466,1041.903 141.461,1041.637C141.438,1040.425 143.018,1038.611 145.154,1036.737C144.656,1036.443 144.183,1036.126 143.736,1035.772C141.52,1037.787 139.768,1039.931 139.799,1041.667C139.812,1042.368 140.097,1043.346 141.372,1044.057Z" fill="#FFFFFF"/>
<path d="M162.265,1042.269L160.59,1041.77C160.219,1042.289 159.83,1042.802 159.476,1043.269C157.896,1045.345 156.65,1046.983 157.146,1048.257C157.3,1048.653 157.685,1049.164 158.649,1049.338C158.969,1049.396 159.277,1049.422 159.58,1049.422C161.766,1049.422 163.502,1047.976 165.47,1046.331C166.323,1045.62 167.3,1044.844 168.378,1044.09L166.351,1043.485C165.653,1044.022 165.003,1044.555 164.403,1045.057C162.327,1046.788 160.815,1048.06 158.947,1047.703C158.799,1047.677 158.719,1047.645 158.697,1047.645C158.651,1047.103 159.992,1045.338 160.796,1044.275C161.304,1043.607 161.81,1042.934 162.265,1042.269Z" fill="#FFFFFF"/>
<path d="M268.458,1010.064L68.732,1010.064C68.732,1010.064 82.516,816.63 73.717,769.346C68.685,742.299 72.672,717.289 77.006,691.12L203.349,691.12L268.458,1010.064Z" fill="url(#pf_0_4_219)"/>
<path d="M209.507,1025.736L207.528,1010.065L242.722,1010.065L245.361,1025.736L209.507,1025.736Z" fill="url(#pf_0_4_221)"/>
<path d="M138.518,1025.736L138.518,1010.065L99.972,1010.065L99.972,1025.736Z" fill="url(#pf_0_4_223)"/>
<path d="M83.69,629.091C83.69,629.091 96.84,585.391 113.203,546.111L144.286,539.119C144.286,539.119 129.216,567.208 144.286,601.816C159.356,636.423 124.748,645.222 128.268,663.991C131.787,682.762 147.624,668.098 159.356,675.723C171.087,683.348 164.635,691.12 178.713,691.12L77.003,691.12C80.258,671.535 83.69,651.316 83.69,629.091Z" fill="#C7283A"/>
<path d="M169.035,422.327C169.035,422.327 180.473,403.264 173.726,378.628C166.981,353.993 120.643,347.1 106.126,374.375C106.126,374.375 76.211,369.096 75.771,409.569C75.331,450.042 75.477,475.704 53.775,496.234C32.071,516.764 18.581,539.64 29.725,560.169C40.869,580.699 14.474,603.575 29.139,631.731C43.802,659.885 74.304,670.443 108.325,650.501C142.346,630.557 127.682,606.509 125.335,584.805C122.989,563.103 147.625,543.16 154.077,515.591C160.528,488.021 140.88,450.781 140.88,450.781L169.035,422.327Z" fill="url(#pf_0_4_227)"/>
<path d="M155.726,468.079C155.726,468.079 169.181,471.452 170.495,453.702C171.078,445.831 171.076,430.527 170.882,418.578C170.724,409.147 170.495,401.791 170.495,401.791C170.495,401.791 162.876,420.268 145.86,420.567C145.86,420.567 148.218,429.946 145.86,436.105C145.86,436.105 142.938,425.846 135.302,428.486C127.682,431.125 131.782,449.901 140.88,450.781C140.88,450.781 149.15,466.46 153.197,485.007L155.726,468.079Z" fill="url(#pf_0_4_229)"/>
<path d="M197.63,618.093C195.919,621.169 194.932,625.267 194.469,629.965C194.469,615.365 190.151,622.052 188.391,606.655C186.632,591.257 191.471,592.577 189.271,580.734C187.071,568.892 170.999,543.306 170.999,543.306L199.847,580.734C200.129,581.702 206.217,602.625 197.63,618.093Z" fill="#C7283A"/>
<path d="M202.828,584.801L199.847,580.734C200.956,581.322 201.945,582.767 202.828,584.801Z" fill="#C7283A"/>
<path d="M342.664,452.241C342.664,452.241 351.272,437.944 351.603,426.177C351.932,414.408 344.448,409.456 344.448,409.456L334.001,433.972C334.001,433.972 331.659,420.713 328.139,420.713C324.62,420.713 328.727,425.88 326.087,430.849C323.448,435.818 323.265,440.803 323.265,440.803L342.664,452.241Z" fill="url(#pf_0_4_235)"/>
<path d="M226.427,426.098C226.427,426.098 235.595,403.435 244.438,402.101L235.872,422.204C235.872,422.204 243.602,416.828 246.681,418.807C249.761,420.787 243.35,421.73 242.486,426.098C241.622,430.465 239.657,432.735 239.657,432.735L226.427,426.098Z" fill="url(#pf_0_4_237)"/>
<path d="M395.138,345.009C416.55,323.597 416.55,288.882 395.138,267.47C373.726,246.058 339.011,246.058 317.599,267.47C299.37,285.699 296.671,313.565 309.481,334.662L306.763,344.805L302.723,359.884L317.801,355.844L327.946,353.127C349.043,365.936 376.909,363.238 395.138,345.009Z" fill="#FEC40C"/>
<g opacity="0.2">
<path d="M301.594,304.188C307.218,308.165 314.067,310.525 321.479,310.525C340.531,310.525 355.976,295.08 355.976,276.029C355.976,266.833 352.355,258.499 346.488,252.316C356.636,250.464 367.203,251.481 376.885,255.381C379.281,261.811 380.598,268.765 380.598,276.029C380.598,308.679 354.13,335.146 321.479,335.146C317.203,335.146 313.036,334.682 309.019,333.819C303.706,324.711 301.218,314.412 301.594,304.188Z" fill="#FFFFFF"/>
</g>
<circle cx="380.597" cy="306.236" r="7.664" fill="#FFFFFF"/>
<circle cx="356.372" cy="306.236" r="7.664" fill="#FFFFFF"/>
<circle cx="332.147" cy="306.236" r="7.664" fill="#FFFFFF"/>
<path d="M603.087,656.495L639.49,803.392C641.972,813.414 641.944,823.891 639.406,833.896L587.089,1040.181L554.552,1040.181L569.251,828.456L527.543,747.87L455.425,1040.181L419.204,1040.181L452.057,656.495L603.087,656.495Z" fill="url(#pf_0_4_246)"/>
<path d="M455.425,1040.18L419.204,1040.18L421.332,1015.329L461.556,1015.329L455.425,1040.18Z" fill="url(#pf_0_4_248)"/>
<path d="M587.089,1040.18L554.553,1040.18L556.278,1015.329L593.392,1015.329L587.089,1040.18Z" fill="url(#pf_0_4_250)"/>
<path d="M590.753,1025.737C590.753,1031.403 598.134,1036.395 603.565,1038.013L635.827,1047.624C639.093,1048.597 641.331,1051.601 641.331,1055.008C641.331,1057.417 639.38,1059.368 636.971,1059.368L562.052,1059.365C557.466,1059.365 553.748,1055.646 553.748,1051.061L555.555,1025.737L590.753,1025.737Z" fill="url(#pf_0_4_252)"/>
<path d="M596.956,1044.057C600.252,1045.887 603.498,1043.552 606.636,1041.294C607.421,1040.73 608.213,1040.161 609.017,1039.637L606.96,1039.024C606.52,1039.332 606.085,1039.642 605.663,1039.948C602.701,1042.084 600.155,1043.93 597.76,1042.604C597.135,1042.257 597.051,1041.903 597.044,1041.637C597.021,1040.425 598.603,1038.611 600.737,1036.737C600.241,1036.443 599.766,1036.126 599.319,1035.772C597.104,1037.787 595.351,1039.931 595.383,1041.667C595.395,1042.368 595.682,1043.346 596.956,1044.057Z" fill="#FFFFFF"/>
<path d="M617.849,1042.269L616.173,1041.77C615.802,1042.289 615.413,1042.802 615.059,1043.269C613.479,1045.345 612.235,1046.983 612.731,1048.257C612.883,1048.653 613.27,1049.164 614.232,1049.338C614.554,1049.396 614.862,1049.422 615.163,1049.422C617.351,1049.422 619.086,1047.976 621.055,1046.331C621.906,1045.62 622.883,1044.844 623.964,1044.09L621.935,1043.485C621.236,1044.022 620.587,1044.555 619.987,1045.057C617.91,1046.788 616.399,1048.06 614.532,1047.703C614.382,1047.677 614.304,1047.645 614.282,1047.645L614.278,1047.645C614.232,1047.103 615.575,1045.338 616.379,1044.275C616.888,1043.607 617.393,1042.934 617.849,1042.269Z" fill="#FFFFFF"/>
<path d="M458.989,1025.737C458.989,1031.403 463.022,1036.395 468.452,1038.013L500.713,1047.624C503.979,1048.597 506.217,1051.601 506.217,1055.008C506.217,1057.417 504.265,1059.368 501.858,1059.368L426.665,1059.368C422.079,1059.368 418.361,1055.65 418.361,1051.064L420.442,1025.737L458.989,1025.737Z" fill="url(#pf_0_4_258)"/>
<path d="M461.843,1044.057C465.139,1045.887 468.385,1043.552 471.523,1041.294C472.307,1040.73 473.099,1040.161 473.904,1039.637L471.845,1039.024C471.407,1039.332 470.972,1039.642 470.55,1039.948C467.588,1042.084 465.04,1043.93 462.647,1042.604C462.02,1042.257 461.936,1041.903 461.931,1041.637C461.908,1040.425 463.488,1038.611 465.624,1036.737C465.126,1036.443 464.653,1036.126 464.206,1035.772C461.991,1037.787 460.238,1039.931 460.27,1041.667C460.282,1042.368 460.567,1043.346 461.843,1044.057Z" fill="#FFFFFF"/>
<path d="M482.735,1042.269L481.058,1041.77C480.689,1042.289 480.3,1042.802 479.946,1043.269C478.366,1045.345 477.12,1046.983 477.617,1048.257C477.77,1048.653 478.155,1049.164 479.119,1049.338C479.44,1049.396 479.747,1049.422 480.05,1049.422C482.236,1049.422 483.971,1047.976 485.94,1046.331C486.793,1045.62 487.77,1044.844 488.849,1044.09L486.821,1043.485C486.123,1044.022 485.474,1044.555 484.873,1045.057C482.797,1046.788 481.286,1048.06 479.417,1047.703C479.269,1047.677 479.19,1047.645 479.167,1047.645C479.121,1047.103 480.462,1045.338 481.266,1044.275C481.775,1043.607 482.28,1042.934 482.735,1042.269Z" fill="#FFFFFF"/>
<path d="M558.811,808.284L527.543,747.87L544.098,690.68L558.811,808.284Z" fill="#332C57"/>
<path d="M566.726,352.233C566.726,352.233 603.679,328.477 600.16,299.734C596.641,270.993 573.177,283.605 558.513,294.749C543.85,305.893 506.308,295.043 495.75,304.427C485.192,313.811 486.66,328.477 486.66,328.477C486.66,328.477 473.462,325.837 472.288,343.726C471.114,361.617 498.978,373.022 505.136,391.662L566.726,352.233Z" fill="url(#pf_0_4_266)"/>
<path d="M434.845,604.422L458.079,599.502L452.057,656.494L603.087,656.494C596.115,619.374 593.721,587.97 593.721,587.97L605.365,607.48C610.685,616.372 623.528,616.504 629.038,607.748L690.606,509.759L666.234,491.712L629.492,528.128L607.931,470.414C604.417,461.03 597.557,453.28 588.667,448.662L560.039,433.807L553.275,430.293L540.11,450.962L502.381,421.744L495.733,429.19L451.165,447.922C437.999,453.47 428.804,465.647 427.094,479.818L414.461,584.381C413.055,596.12 423.124,606.037 434.845,604.422Z" fill="url(#pf_0_4_268)"/>
<path d="M528.452,459.134L541.151,473.244C542.277,474.495 544.328,474.1 544.911,472.52L551.035,455.907L528.452,459.134Z" fill="#332C57"/>
<path d="M541.15,473.243L524.608,632.83L550.963,653.067L569.252,632.611L544.911,472.521L541.15,473.243Z" fill="#332C57"/>
<path d="M492.331,502.785C488.609,503.019 485.739,506.155 485.836,509.884L486.88,550.128L486.899,551.001L487.05,556.625L524.608,555.163L527.002,577.521L487.925,590.953L488.191,601.003L488.426,610.127C488.527,613.968 491.733,616.995 495.574,616.875L562.538,614.778C566.279,614.66 569.251,611.593 569.251,607.85L569.251,505.34C569.251,501.342 565.878,498.173 561.887,498.423L492.331,502.785Z" fill="url(#pf_0_4_274)"/>
<path d="M524.608,555.163L527.003,577.521C549.514,575.754 562.242,569.411 569.251,562.171C579.112,551.99 577.706,540.04 576.395,536.45C574.134,530.256 569.251,533.828 569.251,533.828L569.251,537.951C569.251,540.415 564.616,542.472 555.726,546.176C541.478,552.104 524.608,555.163 524.608,555.163Z" fill="url(#pf_0_4_276)"/>
<path d="M468.588,556.627L474.166,556.627C474.184,524.688 476.26,491.078 476.26,491.078L468.588,556.627Z" fill="#FF8A5F"/>
<path d="M458.082,599.493L475.591,593.915C475.926,597.012 476.313,599.845 476.77,602.308C477.21,604.702 477.721,606.76 478.301,608.414C486.22,630.851 466.863,636.13 483.14,645.368C499.418,654.606 508.92,645.808 517.806,647.128C526.693,648.448 520.692,656.489 537.99,656.489L537.98,656.495L452.057,656.495L458.079,599.502L458.075,599.503L458.082,599.493Z" fill="#FF8A5F"/>
<circle cx="519.631" cy="573.643" r="1.821" fill="#FF8A5F"/>
<rect  x="509.873" y="579.989" width="22.489" height="2" transform="rotate(-192.112 509.873 579.989)" fill="#FF8A5F"/>
<rect  x="665.062" y="387.841" width="47.957" height="91.687" rx="3.957" fill="url(#pf_0_4_283)"/>
<path d="M709.537,474.249L709.499,398.362L668.544,398.4L668.581,474.249L709.537,474.249Z" fill="url(#pf_0_4_285)"/>
<path d="M659.261,471.764C658.16,481.584 666.233,491.711 666.233,491.711L690.607,509.759C690.607,509.759 705.179,496.459 713.879,485.232C722.58,473.986 721.952,454.038 718.952,447.865C717.051,443.971 714.583,441.576 713.023,442.317C712.112,442.736 711.505,444.217 711.505,447.066C711.505,454.837 712.473,477.919 712.473,477.919C711.866,478.887 710.764,479.533 709.529,479.533L668.551,479.533C666.613,479.533 665.056,477.975 665.056,476.038L665.056,456.167C665.056,456.167 663.06,452.462 660.211,453.47C657.362,454.476 660.363,461.96 659.261,471.764Z" fill="url(#pf_0_4_287)"/>
<path d="M553.275,430.293L553.275,415.068C553.275,415.068 569.585,418.148 570.905,397.031C572.225,375.915 570.905,332.362 570.905,332.362C551.109,349.299 517.455,334.782 517.455,334.782C521.414,349.739 509.096,361.837 509.096,361.837C509.536,347.32 491.939,339.181 488.419,353.919C484.9,368.656 502.381,374.375 502.381,374.375L502.381,421.744L540.111,450.962L553.275,430.293Z" fill="url(#pf_0_4_289)"/>
<path d="M553.275,415.068C553.275,415.068 530.064,412.354 520.974,397.105C520.974,397.105 529.853,423.099 553.275,423.099L553.275,415.068Z" fill="#332C57"/>
<path d="M593.72,516.47C593.72,516.47 601.04,573.221 605.439,590.818C609.838,608.414 612.918,596.537 620.396,599.616C627.875,602.695 637.135,594.859 637.135,594.859L629.037,607.746C623.527,616.504 610.685,616.372 605.365,607.48L593.72,587.97L593.72,516.47Z" fill="#FF8A5F"/>
<path d="M509.631,593.914C507.188,606.215 513.717,598.882 521.45,602.402C529.184,605.921 520.981,615.546 537.99,615.546L495.574,616.875C491.733,616.995 488.527,613.968 488.426,610.127L488.19,601.003L487.925,590.953L525.074,578.185C520.97,579.754 511.531,584.342 509.631,593.914Z" fill="#C9E2F4"/>
<path d="M553.275,430.292L540.11,450.961L556.201,466.615L560.038,433.807L553.275,430.292Z" fill="#FFFFFF"/>
<path d="M495.732,429.19L519.783,473.359L540.11,450.961L502.381,421.743L495.732,429.19Z" fill="#FFFFFF"/>
<path d="M703.797,309.249C703.797,315.003 704.554,320.599 705.979,325.913C713.317,353.47 738.463,373.777 768.325,373.777C803.977,373.777 832.871,344.883 832.871,309.249C832.871,283.698 818.019,261.614 796.48,251.144C787.981,247.026 778.426,244.703 768.325,244.703C766.794,244.703 765.281,244.756 763.785,244.862C735.929,246.797 712.948,266.418 705.979,292.567C704.554,297.881 703.797,303.477 703.797,309.249Z" fill="url(#pf_0_4_301)"/>
<g opacity="0.2">
<path d="M705.979,292.567C712.824,300.398 722.907,305.325 734.134,305.325C754.846,305.325 771.633,288.537 771.633,267.826C771.633,259.185 768.695,251.214 763.785,244.862C765.281,244.756 766.794,244.703 768.325,244.703C778.426,244.703 787.981,247.026 796.48,251.144C797.906,256.458 798.662,262.054 798.662,267.826C798.662,303.477 769.768,332.371 734.134,332.371C724.034,332.371 714.479,330.048 705.979,325.913C704.554,320.599 703.797,315.003 703.797,309.249C703.797,303.477 704.554,297.881 705.979,292.567Z" fill="#FFFFFF"/>
</g>
<path d="M798.669,337.413C798.669,341.002 795.759,343.915 792.169,343.915L744.494,343.915C740.904,343.915 737.992,341.002 737.992,337.413L737.992,300.573L798.669,300.573L798.669,337.413ZM744.494,283.237L750.994,283.237L750.994,276.735C750.994,275.543 751.971,274.569 753.162,274.569L757.496,274.569C758.687,274.569 759.662,275.543 759.662,276.735L759.662,283.237L776.999,283.237L776.999,276.735C776.999,275.543 777.975,274.569 779.167,274.569L783.501,274.569C784.692,274.569 785.667,275.543 785.667,276.735L785.667,283.237L792.169,283.237C795.759,283.237 798.669,286.149 798.669,289.737L798.669,296.239L737.992,296.239L737.992,289.737C737.992,286.149 740.904,283.237 744.494,283.237Z" fill="#FFFFFF"/>
<path d="M767.852,327.979C768.163,328.29 768.572,328.447 768.98,328.447C769.388,328.447 769.794,328.29 770.108,327.979L775.888,322.196C776.511,321.574 776.511,320.565 775.888,319.942C775.265,319.319 774.257,319.319 773.632,319.942L768.98,324.597L757.274,312.891C759.828,309.576 763.824,307.433 768.33,307.433C776.043,307.433 782.294,313.683 782.294,321.394C782.294,329.107 776.043,335.357 768.33,335.357C760.62,335.357 754.369,329.107 754.369,321.394C754.369,319.369 754.809,317.449 755.585,315.712L767.852,327.979Z" fill="url(#pf_0_4_307)"/>
<circle cx="689.04" cy="426.334" r="6.647" fill="url(#pf_0_4_308)"/>
<path d="M684.483,434.88L684.976,434.88C686.209,435.473 687.58,435.831 689.04,435.831C690.501,435.831 691.865,435.473 693.105,434.88L693.598,434.88C697.373,434.88 700.434,437.942 700.434,441.717L700.434,443.427C700.434,445 699.159,446.276 697.587,446.276L680.494,446.276C678.92,446.276 677.645,445 677.645,443.427L677.645,441.717C677.645,437.942 680.708,434.88 684.483,434.88Z" fill="url(#pf_0_4_310)"/>
<path d="M904.855,869.677L873.594,1054.858C873.161,1057.487 875.19,1059.875 877.854,1059.875C879.818,1059.875 881.535,1058.55 882.031,1056.649L932.162,869.677L904.855,869.677Z" fill="#8F5138"/>
<path d="M884.273,842.306L884.273,869.677L1100.121,869.677C1107.669,869.677 1113.785,863.542 1113.785,855.991C1113.785,853.508 1113.129,851.17 1111.959,849.16C1111.363,848.113 1110.625,847.149 1109.783,846.308C1107.301,843.846 1103.895,842.306 1100.121,842.306L884.273,842.306Z" fill="url(#pf_0_4_314)"/>
<path d="M884.273,842.306L884.273,855.991L1100.121,855.991C1105.189,855.991 1109.599,853.243 1111.959,849.16C1111.363,848.113 1110.625,847.149 1109.783,846.308C1107.303,843.846 1103.895,842.306 1100.121,842.306L884.273,842.306Z" fill="url(#pf_0_4_316)"/>
<path d="M1085.503,869.677L1116.764,1054.858C1117.195,1057.487 1115.168,1059.875 1112.504,1059.875C1110.538,1059.875 1108.823,1058.55 1108.326,1056.649L1058.195,869.677L1085.503,869.677Z" fill="#8F5138"/>
<path d="M1069.779,584.879L1079.237,596.537L1112.719,603.347C1122.74,605.384 1131.15,612.161 1135.275,621.519L1175.811,713.519C1181.377,726.152 1172.385,740.404 1158.585,740.818L1067.697,743.54L949.899,743.54L981.956,624.201C985.494,611.026 996.188,600.994 1009.562,598.302L1022.707,595.657L1034.365,586.858L1069.779,584.879Z" fill="url(#pf_0_4_320)"/>
<path d="M1006.356,842.894L892.595,893.784L738.296,1027.663L716.592,1005.372L822.269,876.701C827.226,870.664 833.476,865.817 840.557,862.52L915.438,827.643L1006.356,842.894Z" fill="url(#pf_0_4_322)"/>
<circle cx="1056.828" cy="512.071" r="47.512" fill="url(#pf_0_4_323)"/>
<path d="M1069.779,584.879L1069.779,547.705C1069.779,547.705 1088.695,541.546 1083.636,530.548C1078.577,519.55 1068.239,532.308 1068.239,532.308C1068.239,532.308 1061.42,525.709 1065.599,512.071C1065.599,512.071 1042.063,527.689 1019.627,512.071C1019.627,512.071 1020.507,554.964 1023.147,563.542C1025.786,572.121 1034.365,570.141 1034.365,570.141L1034.365,586.858L1044.043,602.695L1069.779,584.879Z" fill="url(#pf_0_4_325)"/>
<path d="M1034.365,570.141C1034.365,570.141 1047.709,568.528 1056.801,559.289C1056.801,559.289 1051.814,575.42 1034.365,575.42L1034.365,570.141Z" fill="#1D164D"/>
<path d="M1059.976,742.591L1142.292,742.591C1144.317,742.591 1145.958,744.233 1145.958,746.258L1145.958,753.149L1063.643,753.149C1061.618,753.149 1059.976,751.508 1059.976,749.483Z" fill="#C9E2F4"/>
<path d="M917.422,753.15L1061.533,753.15C1066.474,753.15 1069.758,748.032 1067.696,743.54L1024.521,649.417C1022.066,644.066 1016.719,640.636 1010.832,640.636L871.994,640.636C866.136,640.636 862.247,646.7 864.69,652.023L908.431,747.381C910.042,750.895 913.556,753.15 917.422,753.15Z" fill="url(#pf_0_4_330)"/>
<circle cx="966.135" cy="705.409" r="11.704" fill="#FFFFFF"/>
<path d="M1044.043,602.696L1052.061,624.252L1079.237,596.537L1069.778,584.879L1044.043,602.696Z" fill="#FFFFFF"/>
<path d="M1044.043,602.696L1027.545,620.733L1022.706,595.657L1034.364,586.858L1044.043,602.696Z" fill="#FFFFFF"/>
<path d="M1058.911,724.386L1125.429,705.409L1092.702,642.729C1092.702,642.729 1105.581,673.963 1102.966,688.481C1100.353,702.998 1087.995,686.281 1084.495,699.479C1080.996,712.677 1072.936,705.221 1068.322,713.996C1063.709,722.772 1058.911,724.386 1058.911,724.386Z" fill="#6BBC61"/>
<path d="M1107.08,785.542L1104.098,802.979C1100.156,826.036 1080.17,842.894 1056.78,842.894L901.36,842.894L927.169,1027.662L897.84,1027.662L822.119,824.041C815.184,805.39 828.978,785.542 848.877,785.542L1107.08,785.542Z" fill="url(#pf_0_4_339)"/>
<path d="M1107.079,785.542L1104.097,802.979L1006.356,785.542L1107.079,785.542Z" fill="url(#pf_0_4_341)"/>
<path d="M888.669,1002.995L923.724,1002.995L927.17,1027.662L897.841,1027.662L888.669,1002.995Z" fill="url(#pf_0_4_343)"/>
<path d="M758.551,1010.087L738.296,1027.662L716.593,1005.372L734.823,983.175L758.551,1010.087Z" fill="url(#pf_0_4_345)"/>
<path d="M925.449,1015.328L930.071,1048.495C930.071,1054.499 925.202,1059.368 919.196,1059.368L826.642,1059.368C823.488,1059.368 820.931,1056.813 820.931,1053.66C820.931,1049.197 823.863,1045.264 828.141,1043.99L870.386,1031.405C877.495,1029.286 893.255,1022.747 893.255,1015.328L925.449,1015.328Z" fill="url(#pf_0_4_347)"/>
<path d="M879.04,1039.32C874.724,1041.715 870.472,1038.656 866.365,1035.7C865.337,1034.961 864.299,1034.216 863.247,1033.53L865.941,1032.728C866.516,1033.131 867.085,1033.537 867.639,1033.937C871.517,1036.736 874.852,1039.154 877.986,1037.416C878.806,1036.962 878.917,1036.499 878.926,1036.15C878.954,1034.561 876.884,1032.186 874.088,1029.733C874.739,1029.349 875.359,1028.932 875.946,1028.469C878.846,1031.109 881.141,1033.914 881.101,1036.189C881.083,1037.106 880.71,1038.389 879.04,1039.32Z" fill="#FFFFFF"/>
<path d="M851.68,1036.977L853.876,1036.323C854.362,1037.004 854.871,1037.676 855.333,1038.287C857.403,1041.005 859.034,1043.15 858.383,1044.82C858.184,1045.338 857.679,1046.005 856.417,1046.233C855.997,1046.311 855.592,1046.344 855.198,1046.344C852.335,1046.344 850.063,1044.451 847.484,1042.297C846.368,1041.364 845.09,1040.349 843.675,1039.362L846.331,1038.57C847.246,1039.272 848.096,1039.971 848.882,1040.627C851.599,1042.895 853.579,1044.56 856.027,1044.094C856.222,1044.06 856.324,1044.016 856.354,1044.016L856.358,1044.016C856.417,1043.307 854.658,1040.997 853.605,1039.603C852.94,1038.73 852.279,1037.849 851.68,1036.977Z" fill="#FFFFFF"/>
<path d="M726.448,993.371C721.635,998.185 706.887,991.817 700.899,988.578L665.325,969.335C661.723,967.387 657.271,968.037 654.374,970.931C652.33,972.978 652.33,976.293 654.374,978.34L714.479,1038.845C718.375,1042.741 724.692,1042.741 728.589,1038.845L750.13,1017.387L726.448,993.371Z" fill="url(#pf_0_4_353)"/>
<path d="M701.38,999.328C697.024,998.082 696.25,993.339 695.504,988.757C695.317,987.61 695.126,986.454 694.888,985.326L697.156,986.554C697.269,987.189 697.375,987.821 697.475,988.44C698.173,992.773 698.77,996.503 701.93,997.41C702.757,997.647 703.129,997.418 703.361,997.198C704.41,996.187 704.609,993.302 704.387,989.896C705.057,990.07 705.729,990.202 706.41,990.283C706.581,993.876 706.249,997.184 704.748,998.634C704.14,999.219 703.065,999.808 701.38,999.328Z" fill="#FFFFFF"/>
<path d="M685.148,980.059L686.998,981.058C686.871,981.815 686.764,982.583 686.668,983.277C686.246,986.383 685.914,988.835 684.409,989.495C683.943,989.702 683.183,989.806 682.215,989.137C681.893,988.914 681.609,988.674 681.352,988.417C679.494,986.561 679.25,983.856 678.973,980.788C678.855,979.457 678.685,977.969 678.407,976.411L680.643,977.622C680.782,978.671 680.881,979.675 680.963,980.61C681.256,983.846 681.46,986.211 683.35,987.494C683.499,987.599 683.593,987.638 683.612,987.657L683.615,987.659C684.113,987.239 684.472,984.599 684.692,983.01C684.828,982.012 684.97,981.011 685.148,980.059Z" fill="#FFFFFF"/>
<g opacity="0.5">
<rect  x="907.052" y="995.42" width="10.558" height="2" transform="rotate(-200.95 907.052 995.42)" fill="#FFFFFF"/>
<path d="M901.232,964.012L902.96,963.691L899.06,942.665L897.332,942.985L901.232,964.012ZM893.433,921.96L895.161,921.64L891.261,900.614L889.533,900.932L893.433,921.96ZM885.633,879.907L887.363,879.589L883.464,858.56L881.734,858.881L885.633,879.907ZM877.958,837.731L879.714,837.618C879.689,837.233 879.677,836.851 879.675,836.473C879.675,829.916 883.272,823.88 889.06,820.727L888.219,819.18C881.864,822.645 877.916,829.272 877.916,836.476C877.917,836.893 877.93,837.312 877.958,837.731ZM909.639,818.552L931.025,818.552L931.025,816.792L909.639,816.792L909.639,818.552ZM952.409,818.552L973.793,818.552L973.793,816.792L952.409,816.792L952.409,818.552ZM995.178,818.552L1016.564,818.552L1016.564,816.792L995.178,816.792L995.178,818.552ZM1037.947,818.552L1047.017,818.552C1051.341,818.552 1055.532,817.306 1059.138,814.952L1058.175,813.477C1054.856,815.647 1050.997,816.792 1047.017,816.792L1037.947,816.792L1037.947,818.552Z" fill="#FFFFFF"/>
</g>
<path d="M1118.932,369.128L1265.805,369.128C1268.637,369.128 1270.952,371.443 1270.952,374.275L1270.952,462.391C1270.952,465.223 1268.637,467.538 1265.805,467.538L1162.355,467.538C1159.798,467.538 1157.346,468.554 1155.538,470.361L1143.529,482.369C1142.035,483.865 1139.478,482.802 1139.484,480.687L1139.514,470.169C1139.519,468.718 1138.344,467.538 1136.89,467.538L1118.932,467.538C1116.101,467.538 1113.785,465.223 1113.785,462.391L1113.785,374.275C1113.785,371.443 1116.101,369.128 1118.932,369.128Z" fill="url(#pf_0_4_362)"/>
<g opacity="0.2">
<path d="M1125.429,456.312C1121.482,456.312 1117.602,456.034 1113.785,455.552L1113.785,420.173C1117.546,420.951 1121.438,421.362 1125.429,421.362C1155.326,421.362 1179.84,398.384 1182.313,369.128L1217.352,369.128C1214.82,417.702 1174.634,456.312 1125.429,456.312Z" fill="#FFFFFF"/>
</g>
<path d="M1157.774,404.83C1157.227,404.394 1156.412,404.802 1156.412,405.49L1156.412,434.213C1156.412,437.935 1159.432,440.955 1163.153,440.955L1221.584,440.955C1225.306,440.955 1228.325,437.935 1228.325,434.213L1228.325,405.504C1228.325,404.802 1227.525,404.408 1226.963,404.844C1223.817,407.287 1219.645,410.391 1205.319,420.799C1202.356,422.962 1197.355,427.513 1192.37,427.484C1187.354,427.527 1182.256,422.877 1179.404,420.799C1165.078,410.391 1160.92,407.273 1157.774,404.83ZM1192.37,422.976C1189.111,423.032 1184.419,418.874 1182.059,417.162C1163.421,403.635 1162.002,402.456 1157.703,399.085C1156.889,398.453 1156.412,397.469 1156.412,396.429L1156.412,393.762C1156.412,390.04 1159.432,387.02 1163.153,387.02L1221.584,387.02C1225.306,387.02 1228.325,390.04 1228.325,393.762L1228.325,396.429C1228.325,397.469 1227.848,398.439 1227.034,399.085C1222.735,402.442 1221.317,403.635 1202.678,417.162C1200.318,418.874 1195.627,423.032 1192.37,422.976Z" fill="#FFFFFF"/>
<path d="M408.038,769.346C408.038,772.298 408.82,775.061 410.21,777.444C410.915,778.683 411.792,779.807 412.783,780.798C415.718,783.731 419.776,785.542 424.235,785.542L1351.406,785.542C1357.39,785.542 1362.63,782.283 1365.432,777.444C1366.822,775.061 1367.604,772.298 1367.604,769.346C1367.604,764.887 1365.792,760.829 1362.86,757.894C1359.924,754.96 1355.866,753.149 1351.406,753.149L424.235,753.149C415.297,753.149 408.038,760.41 408.038,769.346Z" fill="url(#pf_0_4_368)"/>
<path d="M410.21,777.444C410.915,778.683 411.792,779.807 412.783,780.798C415.718,783.731 419.776,785.542 424.235,785.542L1351.408,785.542C1357.39,785.542 1362.63,782.283 1365.432,777.444C1364.726,776.205 1363.85,775.081 1362.86,774.09C1359.924,771.156 1355.866,769.346 1351.408,769.346L424.235,769.346C418.251,769.346 413.011,772.605 410.21,777.444Z" fill="url(#pf_0_4_370)"/>
<path d="M1233.738,785.542L1277.364,1051.018C1277.968,1054.688 1275.137,1058.02 1271.42,1058.02C1268.679,1058.02 1266.282,1056.17 1265.59,1053.518L1195.628,785.542L1233.738,785.542Z" fill="#8F5138"/>
<path d="M541.904,785.542L498.276,1051.018C497.674,1054.688 500.503,1058.02 504.221,1058.02C506.963,1058.02 509.36,1056.17 510.051,1053.518L580.012,785.542L541.904,785.542Z" fill="#8F5138"/>
<path d="M1215.113,678.523C1215.113,678.523 1201.997,654.818 1177.125,660.715C1177.125,660.715 1173.622,692.301 1209.704,706.079C1209.704,706.079 1204.759,682.376 1215.113,678.523Z" fill="#461B93"/>
<path d="M1210.183,690.111L1199.298,680.444L1197.774,672.12L1197.207,672.224L1198.599,679.823L1191.254,673.3L1189.718,664.915L1189.151,665.018L1190.554,672.678L1182.709,665.712L1182.326,666.143L1193.863,676.388L1185.918,677.843L1186.021,678.41L1194.41,676.874L1202.99,684.494L1195.041,685.95L1195.145,686.517L1203.537,684.98L1209.8,690.542L1210.183,690.111Z" fill="#8253D7"/>
<path d="M1237.551,753.149L1212.113,753.149C1210.225,753.149 1208.631,751.75 1208.383,749.88L1203.287,711.321C1202.921,708.545 1205.082,706.079 1207.881,706.079L1241.784,706.079C1244.583,706.079 1246.744,708.545 1246.378,711.321L1241.282,749.88C1241.036,751.75 1239.44,753.149 1237.551,753.149Z" fill="url(#pf_0_4_380)"/>
<path d="M1210.663,706.079C1210.663,706.079 1193.661,690.327 1207.494,680.529C1221.327,670.729 1213.023,664.966 1206.368,656.32C1199.713,647.675 1214.987,641.046 1210.088,630.096C1205.189,619.145 1223.919,609.059 1226.801,626.638C1229.684,644.217 1215.659,645.826 1224.832,661.593C1234.006,677.358 1220.847,695.898 1224.832,706.079L1210.663,706.079Z" fill="#A393EB"/>
<path d="M1216.468,706.229C1216.379,706.081 1207.668,691.351 1214.899,683.217C1222.221,674.98 1222.895,663.831 1216.5,656.706C1213.09,652.903 1214.579,648.353 1216.153,643.535C1217.751,638.648 1219.564,633.11 1216.482,627.449L1216.989,627.173C1220.188,633.054 1218.335,638.718 1216.702,643.714C1215.113,648.573 1213.741,652.766 1216.929,656.32C1223.523,663.667 1222.851,675.14 1215.33,683.601C1208.381,691.418 1216.875,705.787 1216.963,705.931L1216.468,706.229Z" fill="#5E63B6"/>
<path d="M1224.832,706.079C1224.832,706.079 1223.632,674.188 1253.89,660.067C1284.15,645.945 1293.948,672.939 1280.692,683.073C1267.435,693.207 1246.857,686.675 1236.397,706.079L1224.832,706.079Z" fill="#FA67AB"/>
<path d="M1229.492,706.118L1228.922,706.043C1228.932,705.962 1230.059,697.849 1236.235,689.216C1241.931,681.254 1253.213,671.192 1274.603,668.475L1274.676,669.047C1253.507,671.736 1242.352,681.669 1236.721,689.528C1230.616,698.046 1229.503,706.037 1229.492,706.118Z" fill="#FFD7F1"/>
<path d="M579.292,746.258C579.292,744.233 580.933,742.591 582.958,742.591L665.274,742.591L665.274,749.483C665.274,751.508 663.632,753.149 661.607,753.149L579.292,753.149Z" fill="#4099F1"/>
<path d="M762.587,753.15L642.384,753.15C638.261,753.15 635.523,748.881 637.242,745.134L673.256,666.627C675.302,662.163 679.763,659.302 684.673,659.302L800.478,659.302C805.363,659.302 808.608,664.361 806.572,668.8L770.087,748.339C768.742,751.27 765.812,753.15 762.587,753.15Z" fill="url(#pf_0_4_391)"/>
<path d="M739.66,709.157L742.35,703.294L704.836,703.294L702.146,709.157L739.66,709.157Z" fill="#FFFFFF"/>
<defs>
<linearGradient id="pf_0_4_119" x1="1213.774" y1="-7.359" x2="208.936" y2="1060.431" gradientUnits="userSpaceOnUse">
<stop offset="1" stop-color="#976EF3"/>
<stop stop-color="#ABA9E9"/>
</linearGradient>
<linearGradient id="pf_0_4_121" x1="970.564" y1="1116.139" x2="104.022" y2="92.589" gradientUnits="userSpaceOnUse">
<stop offset="1" stop-color="#976EF3"/>
<stop stop-color="#ABA9E9"/>
</linearGradient>
<linearGradient id="pf_0_4_123" x1="3.749" y1="1073.589" x2="3.749" y2="1073.589" gradientUnits="userSpaceOnUse">
<stop offset="1" stop-color="#7956D8" stop-opacity="0"/>
<stop stop-color="#7956D8"/>
</linearGradient>
<linearGradient id="pf_0_4_138" x1="779.384" y1="415.763" x2="450.267" y2="923.543" gradientUnits="userSpaceOnUse">
<stop offset="1" stop-color="#FFFFFF"/>
<stop stop-color="#F3F7FF"/>
</linearGradient>
<filter id="filter4_140" x="237.639282" y="320.626221" width="408.909668" height="239.056671" filterUnits="userSpaceOnUse" color-interpolation-filters="sRGB">
<feFlood flood-opacity="0" result="BackgroundImageFix"/>
<feColorMatrix in="SourceAlpha" type="matrix" values="0 0 0 0 0 0 0 0 0 0 0 0 0 0 0 0 0 0 127 0" result="hardAlpha"/>
<feMorphology radius="0" operator="dilate" in="SourceAlpha" result="0dropshadow"/>
<feOffset dx="0" dy="10"/>
<feGaussianBlur stdDeviation="2.5"/>
<feComposite in2="hardAlpha" operator="out"/>
<feColorMatrix type="matrix" values="0 0 0 0 0.811765 0 0 0 0 0.847059 0 0 0 0 0.933333 0 0 0 0.74902 0"/>
<feBlend mode="normal" in2="BackgroundImageFix" result="0dropshadow"/>
<feBlend mode="normal" in="SourceGraphic" in2="0dropshadow" result="shape"/>
</filter>
<linearGradient id="pf_0_4_151" x1="243.412" y1="473.706" x2="243.412" y2="473.706" gradientUnits="userSpaceOnUse">
<stop offset="1" stop-color="#00FAAC" stop-opacity="0"/>
<stop stop-color="#00FAAC"/>
</linearGradient>
<linearGradient id="pf_0_4_157" x1="740.906" y1="101.969" x2="425.921" y2="592.924" gradientUnits="userSpaceOnUse">
<stop offset="1" stop-color="#4A4975"/>
<stop stop-color="#1D164D"/>
</linearGradient>
<linearGradient id="pf_0_4_162" x1="227.984" y1="402.101" x2="364.036" y2="402.101" gradientUnits="userSpaceOnUse">
<stop offset="1" stop-color="#4A4975"/>
<stop stop-color="#1D164D"/>
</linearGradient>
<linearGradient id="pf_0_4_164" x1="262.341" y1="449.742" x2="336.944" y2="344.181" gradientUnits="userSpaceOnUse">
<stop offset="1" stop-color="#C9E2F4"/>
<stop stop-color="#EAF5FF"/>
</linearGradient>
<linearGradient id="pf_0_4_165" x1="363.296" y1="473.624" x2="343.68" y2="509.42" gradientUnits="userSpaceOnUse">
<stop offset="1" stop-color="#4A4975"/>
<stop stop-color="#1D164D"/>
</linearGradient>
<linearGradient id="pf_0_4_167" x1="395.601" y1="688.036" x2="371.009" y2="708.118" gradientUnits="userSpaceOnUse">
<stop offset="1" stop-color="#4A4975"/>
<stop stop-color="#1D164D"/>
</linearGradient>
<linearGradient id="pf_0_4_169" x1="367.743" y1="608.597" x2="334.239" y2="685.916" gradientUnits="userSpaceOnUse">
<stop offset="1" stop-color="#4A4975"/>
<stop stop-color="#1D164D"/>
</linearGradient>
<linearGradient id="pf_0_4_173" x1="358.202" y1="524.244" x2="333.288" y2="613.16" gradientUnits="userSpaceOnUse">
<stop offset="1" stop-color="#A7DF63"/>
<stop stop-color="#6BBC61"/>
</linearGradient>
<linearGradient id="pf_0_4_175" x1="359.359" y1="542.087" x2="341.533" y2="595.351" gradientUnits="userSpaceOnUse">
<stop offset="1" stop-color="#EAF5FF"/>
<stop stop-color="#C9E2F4"/>
</linearGradient>
<linearGradient id="pf_0_4_179" x1="420.459" y1="508.28" x2="411.116" y2="523.851" gradientUnits="userSpaceOnUse">
<stop offset="1" stop-color="#FFD6C7"/>
<stop stop-color="#FFC0AC"/>
</linearGradient>
<linearGradient id="pf_0_4_181" x1="329.116" y1="588.786" x2="322.888" y2="577.189" gradientUnits="userSpaceOnUse">
<stop offset="1" stop-color="#FFD6C7"/>
<stop stop-color="#FFC0AC"/>
</linearGradient>
<linearGradient id="pf_0_4_183" x1="371.838" y1="699.24" x2="374.487" y2="704.967" gradientUnits="userSpaceOnUse">
<stop offset="1" stop-color="#FFD6C7"/>
<stop stop-color="#FFC0AC"/>
</linearGradient>
<linearGradient id="pf_0_4_185" x1="352.518" y1="691.005" x2="333.188" y2="711.302" gradientUnits="userSpaceOnUse">
<stop offset="1" stop-color="#4A4975"/>
<stop stop-color="#1D164D"/>
</linearGradient>
<linearGradient id="pf_0_4_187" x1="182.134" y1="580.565" x2="182.134" y2="580.565" gradientUnits="userSpaceOnUse">
<stop offset="1" stop-color="#FFD6C7"/>
<stop stop-color="#FFC0AC"/>
</linearGradient>
<linearGradient id="pf_0_4_189" x1="358.482" y1="489.8" x2="351.824" y2="514.714" gradientUnits="userSpaceOnUse">
<stop offset="1" stop-color="#FFD6C7"/>
<stop stop-color="#FFC0AC"/>
</linearGradient>
<linearGradient id="pf_0_4_203" x1="239.633" y1="364.615" x2="161.033" y2="505.977" gradientUnits="userSpaceOnUse">
<stop offset="1" stop-color="#EF4B4B"/>
<stop stop-color="#C7283A"/>
</linearGradient>
<linearGradient id="pf_0_4_205" x1="195.04" y1="558.785" x2="75.461" y2="750.462" gradientUnits="userSpaceOnUse">
<stop offset="1" stop-color="#EF4B4B"/>
<stop stop-color="#C7283A"/>
</linearGradient>
<linearGradient id="pf_0_4_207" x1="270.677" y1="1022.32" x2="229.764" y2="1070.712" gradientUnits="userSpaceOnUse">
<stop offset="1" stop-color="#EF4B4B"/>
<stop stop-color="#C7283A"/>
</linearGradient>
<linearGradient id="pf_0_4_213" x1="147.643" y1="1034.041" x2="110.69" y2="1088.152" gradientUnits="userSpaceOnUse">
<stop offset="1" stop-color="#EF4B4B"/>
<stop stop-color="#C7283A"/>
</linearGradient>
<linearGradient id="pf_0_4_219" x1="321.444" y1="623.276" x2="-48.092" y2="1188.138" gradientUnits="userSpaceOnUse">
<stop offset="1" stop-color="#4A4975"/>
<stop stop-color="#1D164D"/>
</linearGradient>
<linearGradient id="pf_0_4_221" x1="207.528" y1="1010.065" x2="207.528" y2="1010.065" gradientUnits="userSpaceOnUse">
<stop offset="1" stop-color="#FFD6C7"/>
<stop stop-color="#FFC0AC"/>
</linearGradient>
<linearGradient id="pf_0_4_223" x1="99.972" y1="1010.065" x2="99.972" y2="1010.065" gradientUnits="userSpaceOnUse">
<stop offset="1" stop-color="#FFD6C7"/>
<stop stop-color="#FFC0AC"/>
</linearGradient>
<linearGradient id="pf_0_4_227" x1="122.377" y1="448.127" x2="59.028" y2="638.174" gradientUnits="userSpaceOnUse">
<stop offset="1" stop-color="#4A4975"/>
<stop stop-color="#1D164D"/>
</linearGradient>
<linearGradient id="pf_0_4_229" x1="155.458" y1="433.893" x2="129.609" y2="498.919" gradientUnits="userSpaceOnUse">
<stop offset="1" stop-color="#FFD6C7"/>
<stop stop-color="#FFC0AC"/>
</linearGradient>
<linearGradient id="pf_0_4_235" x1="330.751" y1="442.414" x2="351.094" y2="413.63" gradientUnits="userSpaceOnUse">
<stop offset="1" stop-color="#FFD6C7"/>
<stop stop-color="#FFC0AC"/>
</linearGradient>
<linearGradient id="pf_0_4_237" x1="232.867" y1="427.731" x2="248.996" y2="404.908" gradientUnits="userSpaceOnUse">
<stop offset="1" stop-color="#FFD6C7"/>
<stop stop-color="#FFC0AC"/>
</linearGradient>
<linearGradient id="pf_0_4_246" x1="577.958" y1="658.924" x2="426.624" y2="1149.879" gradientUnits="userSpaceOnUse">
<stop offset="1" stop-color="#4A4975"/>
<stop stop-color="#1D164D"/>
</linearGradient>
<linearGradient id="pf_0_4_248" x1="440.38" y1="2024286922.170" x2="440.38" y2="2024286843.548" gradientUnits="userSpaceOnUse">
<stop offset="1" stop-color="#FFD6C7"/>
<stop stop-color="#FFC0AC"/>
</linearGradient>
<linearGradient id="pf_0_4_250" x1="573.972" y1="22116573314.111" x2="573.972" y2="22116573235.488" gradientUnits="userSpaceOnUse">
<stop offset="1" stop-color="#FFD6C7"/>
<stop stop-color="#FFC0AC"/>
</linearGradient>
<linearGradient id="pf_0_4_252" x1="627.573" y1="986.231" x2="565.397" y2="1102.957" gradientUnits="userSpaceOnUse">
<stop offset="1" stop-color="#4A4975"/>
<stop stop-color="#1D164D"/>
</linearGradient>
<linearGradient id="pf_0_4_258" x1="492.527" y1="986.105" x2="430.174" y2="1103.164" gradientUnits="userSpaceOnUse">
<stop offset="1" stop-color="#4A4975"/>
<stop stop-color="#1D164D"/>
</linearGradient>
<linearGradient id="pf_0_4_266" x1="548.106" y1="305.545" x2="475.958" y2="431.07" gradientUnits="userSpaceOnUse">
<stop offset="1" stop-color="#4A4975"/>
<stop stop-color="#1D164D"/>
</linearGradient>
<linearGradient id="pf_0_4_268" x1="556.341" y1="507.309" x2="416.445" y2="699.116" gradientUnits="userSpaceOnUse">
<stop offset="1" stop-color="#FFB965"/>
<stop stop-color="#FF8A5F"/>
</linearGradient>
<linearGradient id="pf_0_4_274" x1="473.426" y1="675.786" x2="538.535" y2="535.01" gradientUnits="userSpaceOnUse">
<stop offset="1" stop-color="#C9E2F4"/>
<stop stop-color="#EAF5FF"/>
</linearGradient>
<linearGradient id="pf_0_4_276" x1="544.117" y1="561.029" x2="574.354" y2="538.866" gradientUnits="userSpaceOnUse">
<stop offset="1" stop-color="#FFD6C7"/>
<stop stop-color="#FFC0AC"/>
</linearGradient>
<linearGradient id="pf_0_4_283" x1="676.47" y1="356.327" x2="699.346" y2="497.103" gradientUnits="userSpaceOnUse">
<stop offset="1" stop-color="#4A4975"/>
<stop stop-color="#1D164D"/>
</linearGradient>
<linearGradient id="pf_0_4_285" x1="662.26" y1="501.43" x2="713.291" y2="377.371" gradientUnits="userSpaceOnUse">
<stop offset="1" stop-color="#C9E2F4"/>
<stop stop-color="#EAF5FF"/>
</linearGradient>
<linearGradient id="pf_0_4_287" x1="680.635" y1="480.502" x2="660.926" y2="515.172" gradientUnits="userSpaceOnUse">
<stop offset="1" stop-color="#FFD6C7"/>
<stop stop-color="#FFC0AC"/>
</linearGradient>
<linearGradient id="pf_0_4_289" x1="531.753" y1="372.101" x2="494.212" y2="466.538" gradientUnits="userSpaceOnUse">
<stop offset="1" stop-color="#FFD6C7"/>
<stop stop-color="#FFC0AC"/>
</linearGradient>
<linearGradient id="pf_0_4_301" x1="800.083" y1="360.697" x2="715.525" y2="223.654" gradientUnits="userSpaceOnUse">
<stop offset="1" stop-color="#A7DF63"/>
<stop stop-color="#6BBC61"/>
</linearGradient>
<linearGradient id="pf_0_4_307" x1="775.073" y1="336.118" x2="750.914" y2="283.356" gradientUnits="userSpaceOnUse">
<stop offset="1" stop-color="#A7DF63"/>
<stop stop-color="#6BBC61"/>
</linearGradient>
<linearGradient id="pf_0_4_308" x1="684.827" y1="434.069" x2="699.564" y2="407.014" gradientUnits="userSpaceOnUse">
<stop offset="1" stop-color="#FFB965"/>
<stop stop-color="#FF8A5F"/>
</linearGradient>
<linearGradient id="pf_0_4_310" x1="691.434" y1="437.668" x2="706.172" y2="410.613" gradientUnits="userSpaceOnUse">
<stop offset="1" stop-color="#FFB965"/>
<stop stop-color="#FF8A5F"/>
</linearGradient>
<linearGradient id="pf_0_4_314" x1="884.273" y1="842.306" x2="884.273" y2="842.306" gradientUnits="userSpaceOnUse">
<stop offset="1" stop-color="#BA6D4D"/>
<stop stop-color="#8F5138"/>
</linearGradient>
<linearGradient id="pf_0_4_316" x1="884.273" y1="842.306" x2="884.273" y2="842.306" gradientUnits="userSpaceOnUse">
<stop offset="1" stop-color="#BA6D4D"/>
<stop stop-color="#8F5138"/>
</linearGradient>
<linearGradient id="pf_0_4_320" x1="1093.644" y1="607.171" x2="1049.652" y2="792.819" gradientUnits="userSpaceOnUse">
<stop offset="1" stop-color="#A7DF63"/>
<stop stop-color="#6BBC61"/>
</linearGradient>
<linearGradient id="pf_0_4_322" x1="736.403" y1="1093.824" x2="899.175" y2="872.983" gradientUnits="userSpaceOnUse">
<stop offset="1" stop-color="#4A4975"/>
<stop stop-color="#1D164D"/>
</linearGradient>
<linearGradient id="pf_0_4_323" x1="1043.463" y1="464.161" x2="1066.779" y2="547.746" gradientUnits="userSpaceOnUse">
<stop offset="1" stop-color="#4A4975"/>
<stop stop-color="#1D164D"/>
</linearGradient>
<linearGradient id="pf_0_4_325" x1="1043.898" y1="514.348" x2="1069.854" y2="603.212" gradientUnits="userSpaceOnUse">
<stop offset="1" stop-color="#FFD6C7"/>
<stop stop-color="#FFC0AC"/>
</linearGradient>
<linearGradient id="pf_0_4_330" x1="915.547" y1="622.567" x2="1035.793" y2="801.469" gradientUnits="userSpaceOnUse">
<stop offset="1" stop-color="#C9E2F4"/>
<stop stop-color="#EAF5FF"/>
</linearGradient>
<linearGradient id="pf_0_4_339" x1="928.107" y1="995.436" x2="989.109" y2="658.747" gradientUnits="userSpaceOnUse">
<stop offset="1" stop-color="#4A4975"/>
<stop stop-color="#1D164D"/>
</linearGradient>
<linearGradient id="pf_0_4_341" x1="1047.068" y1="836.563" x2="1062.905" y2="754.444" gradientUnits="userSpaceOnUse">
<stop offset="1" stop-color="#A7DF63"/>
<stop stop-color="#6BBC61"/>
</linearGradient>
<linearGradient id="pf_0_4_343" x1="888.669" y1="1002.995" x2="888.669" y2="1002.995" gradientUnits="userSpaceOnUse">
<stop offset="1" stop-color="#FFD6C7"/>
<stop stop-color="#FFC0AC"/>
</linearGradient>
<linearGradient id="pf_0_4_345" x1="724.989" y1="1026.884" x2="751.384" y2="986.704" gradientUnits="userSpaceOnUse">
<stop offset="1" stop-color="#FFD6C7"/>
<stop stop-color="#FFC0AC"/>
</linearGradient>
<linearGradient id="pf_0_4_347" x1="862.701" y1="985.025" x2="886.115" y2="1096.117" gradientUnits="userSpaceOnUse">
<stop offset="1" stop-color="#4A4975"/>
<stop stop-color="#1D164D"/>
</linearGradient>
<linearGradient id="pf_0_4_353" x1="700.405" y1="947.857" x2="702.926" y2="1060.282" gradientUnits="userSpaceOnUse">
<stop offset="1" stop-color="#4A4975"/>
<stop stop-color="#1D164D"/>
</linearGradient>
<linearGradient id="pf_0_4_362" x1="1074.135" y1="565.697" x2="1316.973" y2="263.03" gradientUnits="userSpaceOnUse">
<stop offset="1" stop-color="#FFB965"/>
<stop stop-color="#FF8A5F"/>
</linearGradient>
<linearGradient id="pf_0_4_368" x1="887.821" y1="-20417460966.166" x2="887.821" y2="-20417460878.181" gradientUnits="userSpaceOnUse">
<stop offset="1" stop-color="#BA6D4D"/>
<stop stop-color="#8F5138"/>
</linearGradient>
<linearGradient id="pf_0_4_370" x1="887.821" y1="8657494140.364" x2="887.821" y2="8657494084.055" gradientUnits="userSpaceOnUse">
<stop offset="1" stop-color="#BA6D4D"/>
<stop stop-color="#8F5138"/>
</linearGradient>
<linearGradient id="pf_0_4_380" x1="1235.278" y1="742.858" x2="1201.258" y2="687.134" gradientUnits="userSpaceOnUse">
<stop offset="1" stop-color="#C582D5"/>
<stop stop-color="#71397C"/>
</linearGradient>
<linearGradient id="pf_0_4_391" x1="808.296" y1="568.849" x2="636.726" y2="843.361" gradientUnits="userSpaceOnUse">
<stop offset="1" stop-color="#4099F1"/>
<stop stop-color="#ACD4F3"/>
</linearGradient>
</defs>
</svg>
