<svg width="1638" height="1836" viewBox="0 0 1638 1836" fill="none" xmlns="http://www.w3.org/2000/svg" xmlns:xlink="http://www.w3.org/1999/xlink">
<g opacity="0.2">
<path d="M237.524,1271.426C237.524,1271.426 462.806,1340.264 342.07,1504.464L1252,1504.464L1252,1271.426L237.524,1271.426Z" fill="url(#pf_0_4_398)"/>
</g>
<g opacity="0.2">
<path d="M210.164,300C210.164,300 387.156,454.146 210.164,695.166C33.174,936.188 50.326,1093.798 50.326,1093.798L1252,1093.798L1252,300L210.164,300Z" fill="url(#pf_0_4_400)"/>
</g>
<path d="M373.156,300C373.156,300 456.152,556.818 210.164,808C-35.824,1059.182 14.618,1260.172 275.884,1275.17C537.148,1290.17 405.154,1518.158 204.164,1581.156C3.176,1644.152 66.172,1836 162.168,1836L1252,1836L1252,300L373.156,300Z" fill="url(#pf_0_4_402)"/>
<g opacity="0.2">
<path d="M10,1836C10,1836 -22,1734 30,1666C82,1598 204.163,1581.156 204.163,1581.156L1251.999,1581.156L1251.999,1836L10,1836Z" fill="url(#pf_0_4_404)"/>
</g>
<path d="M162.168,1836L1251.999,1836L1251.999,1517.32L326.385,1517.32C291.701,1544.138 249.706,1566.882 204.166,1581.156C3.176,1644.152 66.172,1836 162.168,1836Z" fill="url(#pf_0_4_406)"/>
<path d="M815.968,1517.32L1251.999,1836L973.117,1836L735.919,1517.32L815.968,1517.32Z" fill="url(#pf_0_4_408)"/>
<path d="M687.562,1517.32L890.738,1836L611.855,1836L607.514,1517.32L687.562,1517.32Z" fill="url(#pf_0_4_410)"/>
<g opacity="0.2">
<path d="M583.049,1797.41C583.049,1799.549 576.569,1801.283 568.575,1801.283C560.582,1801.283 554.102,1799.549 554.102,1797.41C554.102,1795.271 560.582,1793.537 568.575,1793.537C576.569,1793.537 583.049,1795.271 583.049,1797.41Z" fill="#FFFFFF"/>
<path d="M900.172,1748.567C900.172,1752.053 889.611,1754.879 876.583,1754.879C863.555,1754.879 852.994,1752.053 852.994,1748.567C852.994,1745.08 863.555,1742.254 876.583,1742.254C889.611,1742.254 900.172,1745.08 900.172,1748.567Z" fill="#FFFFFF"/>
<path d="M505.55,1710.071C505.55,1713.557 494.989,1716.384 481.961,1716.384C468.933,1716.384 458.371,1713.557 458.371,1710.071C458.371,1706.585 468.933,1703.758 481.961,1703.758C494.989,1703.758 505.55,1706.585 505.55,1710.071Z" fill="#FFFFFF"/>
<path d="M524.267,1683.591C524.267,1684.41 521.786,1685.074 518.725,1685.074C515.665,1685.074 513.184,1684.41 513.184,1683.591C513.184,1682.772 515.665,1682.108 518.725,1682.108C521.786,1682.108 524.267,1682.772 524.267,1683.591Z" fill="#FFFFFF"/>
<path d="M800.15,1600.128C800.15,1603.614 789.588,1606.44 776.56,1606.44C763.532,1606.44 752.971,1603.614 752.971,1600.128C752.971,1596.641 763.532,1593.815 776.56,1593.815C789.588,1593.815 800.15,1596.641 800.15,1600.128Z" fill="#FFFFFF"/>
<path d="M729.954,1702.873C729.954,1705.779 721.153,1708.134 710.296,1708.134C699.439,1708.134 690.638,1705.779 690.638,1702.873C690.638,1699.968 699.439,1697.613 710.296,1697.613C721.153,1697.613 729.954,1699.968 729.954,1702.873Z" fill="#FFFFFF"/>
<path d="M1120.396,1719.576C1120.396,1726.355 1099.861,1731.85 1074.53,1731.85C1049.199,1731.85 1028.664,1726.355 1028.664,1719.576C1028.664,1712.797 1049.199,1707.302 1074.53,1707.302C1099.861,1707.302 1120.396,1712.797 1120.396,1719.576Z" fill="#FFFFFF"/>
<path d="M1037.1,1594.787C1037.1,1597.737 1028.165,1600.128 1017.143,1600.128C1006.122,1600.128 997.187,1597.737 997.187,1594.787C997.187,1591.838 1006.122,1589.447 1017.143,1589.447C1028.165,1589.447 1037.1,1591.838 1037.1,1594.787Z" fill="#FFFFFF"/>
<path d="M596.325,1631.169C596.325,1633.79 588.383,1635.916 578.586,1635.916C568.788,1635.916 560.846,1633.79 560.846,1631.169C560.846,1628.547 568.788,1626.421 578.586,1626.421C588.383,1626.421 596.325,1628.547 596.325,1631.169Z" fill="#FFFFFF"/>
<path d="M407.104,1606.44C407.104,1609.333 398.343,1611.677 387.535,1611.677C376.727,1611.677 367.966,1609.333 367.966,1606.44C367.966,1603.548 376.727,1601.204 387.535,1601.204C398.343,1601.204 407.104,1603.548 407.104,1606.44Z" fill="#FFFFFF"/>
<path d="M321.202,1719.576C321.202,1724.826 305.299,1729.081 285.682,1729.081C266.066,1729.081 250.163,1724.826 250.163,1719.576C250.163,1714.326 266.066,1710.071 285.682,1710.071C305.299,1710.071 321.202,1714.326 321.202,1719.576Z" fill="#FFFFFF"/>
</g>
<g opacity="0.2">
<circle cx="308.036" cy="575.021" r="6.347" fill="#FFFFFF"/>
<circle cx="375.205" cy="575.021" r="6.347" fill="#FFFFFF"/>
<circle cx="442.373" cy="575.021" r="6.347" fill="#FFFFFF"/>
<circle cx="308.036" cy="507.854" r="6.347" fill="#FFFFFF"/>
<circle cx="375.205" cy="507.854" r="6.347" fill="#FFFFFF"/>
<circle cx="442.373" cy="507.854" r="6.347" fill="#FFFFFF"/>
<circle cx="308.036" cy="440.684" r="6.347" fill="#FFFFFF"/>
<circle cx="375.205" cy="440.684" r="6.347" fill="#FFFFFF"/>
<circle cx="442.373" cy="440.684" r="6.347" fill="#FFFFFF"/>
<circle cx="308.036" cy="373.517" r="6.347" fill="#FFFFFF"/>
<circle cx="375.205" cy="373.517" r="6.347" fill="#FFFFFF"/>
<circle cx="442.373" cy="373.517" r="6.347" fill="#FFFFFF"/>
<circle cx="308.036" cy="306.347" r="6.347" fill="#FFFFFF"/>
<circle cx="375.205" cy="306.347" r="6.347" fill="#FFFFFF"/>
<circle cx="442.373" cy="306.347" r="6.347" fill="#FFFFFF"/>
<circle cx="509.542" cy="575.021" r="6.347" fill="#FFFFFF"/>
<circle cx="576.712" cy="575.021" r="6.347" fill="#FFFFFF"/>
<circle cx="509.542" cy="507.854" r="6.347" fill="#FFFFFF"/>
<circle cx="576.712" cy="507.854" r="6.347" fill="#FFFFFF"/>
<circle cx="509.542" cy="440.684" r="6.347" fill="#FFFFFF"/>
<circle cx="576.712" cy="440.684" r="6.347" fill="#FFFFFF"/>
<circle cx="509.542" cy="373.517" r="6.347" fill="#FFFFFF"/>
<circle cx="576.712" cy="373.517" r="6.347" fill="#FFFFFF"/>
<circle cx="509.542" cy="306.347" r="6.347" fill="#FFFFFF"/>
<circle cx="576.712" cy="306.347" r="6.347" fill="#FFFFFF"/>
</g>
<g opacity="0.1">
<path d="M1212,0C977.808,0 787.958,189.85 787.958,424.042C787.958,658.234 977.808,848.084 1212,848.084C1446.192,848.084 1636.042,658.234 1636.042,424.042C1636.042,189.85 1446.192,0 1212,0ZM1212,691.766C1064.14,691.766 944.276,571.902 944.276,424.042C944.276,276.182 1064.14,156.318 1212,156.318C1359.86,156.318 1479.724,276.182 1479.724,424.042C1479.724,571.902 1359.86,691.766 1212,691.766Z" fill="#FFFFFF"/>
</g>
<path d="M616.736,1517.312L449.776,1517.312L513.676,1403.012C513.676,1403.012 552.036,1401.812 552.036,1445.812C552.036,1505.152 605.696,1483.152 616.736,1517.312Z" fill="url(#pf_0_4_450)"/>
<path d="M516.096,1418.312C516.096,1457.112 471.436,1461.172 475.496,1487.351C478.636,1507.551 468.056,1515.611 458.076,1517.311L449.776,1517.311L421.436,1410.852C421.436,1410.852 429.216,1406.572 421.436,1376.332C413.656,1346.092 459.236,1355.132 460.136,1323.532C461.056,1291.952 466.916,1261.272 491.736,1277.052C516.556,1292.852 506.176,1343.392 491.736,1361.892C479.516,1377.552 505.416,1379.312 513.676,1403.012C515.176,1407.312 516.096,1412.352 516.096,1418.312Z" fill="url(#pf_0_4_452)"/>
<path d="M452.532,1458.476C452.532,1458.476 452.224,1455.936 451.858,1451.5C451.492,1447.064 451.066,1440.724 450.974,1433.15C450.938,1429.364 451.016,1425.268 451.262,1420.966C451.418,1418.818 451.51,1416.606 451.836,1414.378C452.102,1412.142 452.336,1409.86 452.806,1407.586C453.49,1402.98 454.926,1398.432 456.584,1393.984C456.976,1392.856 457.612,1391.862 458.112,1390.788C458.672,1389.756 459.084,1388.606 459.838,1387.712L461.868,1384.856C462.642,1383.776 463.452,1382.844 464.242,1381.832C465.838,1379.904 467.308,1377.612 468.816,1375.47C470.196,1373.256 471.606,1371.092 472.832,1368.838C474.082,1366.6 475.286,1364.36 476.296,1362.062C477.404,1359.81 478.306,1357.498 479.23,1355.246C480.136,1352.988 480.894,1350.712 481.642,1348.494C482.254,1346.228 482.97,1344.052 483.45,1341.87C484.49,1337.532 485.242,1333.372 485.542,1329.484C485.77,1327.552 485.854,1325.686 485.864,1323.91C485.946,1322.14 485.83,1320.454 485.732,1318.876C485.686,1317.3 485.488,1315.83 485.258,1314.482C485.07,1313.13 484.86,1311.9 484.536,1310.808C484.25,1309.714 484.02,1308.736 483.756,1307.904C483.432,1307.09 483.158,1306.398 482.936,1305.836L482.258,1304.132L482.656,1305.926C482.784,1306.506 482.942,1307.22 483.128,1308.06C483.228,1308.912 483.344,1309.894 483.474,1310.992C483.646,1312.078 483.69,1313.298 483.696,1314.626C483.728,1315.95 483.794,1317.372 483.66,1318.902C483.586,1320.428 483.522,1322.044 483.254,1323.742C483.058,1325.442 482.852,1327.222 482.462,1329.062C482.164,1330.912 481.728,1332.816 481.214,1334.772C480.784,1336.742 480.152,1338.74 479.552,1340.798C478.964,1342.858 478.14,1344.914 477.422,1347.044C476.542,1349.12 475.794,1351.296 474.822,1353.424C472.958,1357.714 470.728,1362.002 468.29,1366.246C467.098,1368.38 465.716,1370.436 464.392,1372.508C462.952,1374.49 461.664,1376.486 459.996,1378.476C459.234,1379.478 458.384,1380.484 457.696,1381.484L455.35,1384.862C454.492,1385.952 454.032,1387.22 453.408,1388.41C452.854,1389.624 452.158,1390.792 451.736,1392.036C450.924,1394.526 449.904,1396.964 449.472,1399.472L448.65,1403.174C448.418,1404.402 448.29,1405.632 448.108,1406.846C447.718,1409.272 447.514,1411.662 447.408,1414.006C447.214,1416.346 447.258,1418.632 447.236,1420.854C447.218,1425.298 447.508,1429.48 447.882,1433.316C448.62,1440.994 449.834,1447.292 450.8,1451.662C451.78,1456.032 452.532,1458.476 452.532,1458.476Z" fill="#F3F7FF"/>
<path d="M331.766,1283.136C331.766,1283.136 378.466,1269.386 392.004,1311.354C405.542,1353.32 373.728,1380.396 407.574,1402.058C441.418,1423.718 457.664,1431.164 452.926,1456.21C448.188,1481.253 449.766,1517.319 449.766,1517.319L325.886,1517.319L331.766,1283.136Z" fill="url(#pf_0_4_456)"/>
<path d="M364.026,1388.97C364.026,1388.97 363.448,1391.03 362.966,1394.748C362.742,1396.606 362.502,1398.878 362.44,1401.496C362.37,1404.114 362.364,1407.086 362.68,1410.312C362.808,1411.928 362.978,1413.612 363.266,1415.342C363.48,1417.086 363.866,1418.86 364.294,1420.682C365.1,1424.332 366.282,1428.128 367.868,1431.92C368.6,1433.842 369.638,1435.67 370.534,1437.594C371.51,1439.476 372.694,1441.278 373.826,1443.128C375.078,1444.898 376.428,1446.624 377.74,1448.386L381.378,1453.394L384.36,1458.498C385.208,1460.342 386.114,1462.15 386.912,1463.998C387.624,1465.888 388.33,1467.764 389.028,1469.618C389.612,1471.522 390.188,1473.402 390.756,1475.254C391.222,1477.142 391.68,1478.998 392.128,1480.816C392.504,1482.656 392.874,1484.458 393.234,1486.212C393.808,1489.752 394.338,1493.114 394.708,1496.244C396.12,1508.768 396.066,1517.32 396.066,1517.32C396.066,1517.32 396.522,1515.236 396.982,1511.526C397.43,1507.82 397.896,1502.482 397.812,1496.044C397.764,1494.434 397.716,1492.758 397.664,1491.02C397.526,1489.286 397.384,1487.492 397.236,1485.648C397,1483.808 396.758,1481.918 396.51,1479.984C396.2,1478.058 395.766,1476.106 395.384,1474.108C394.916,1472.128 394.358,1470.128 393.832,1468.092C393.228,1466.076 392.482,1464.068 391.762,1462.04C390.936,1460.044 389.99,1458.072 389.098,1456.07C388.038,1454.1 386.866,1452.136 385.73,1450.176C384.424,1448.44 383.118,1446.702 381.818,1444.972C380.59,1443.362 379.32,1441.79 378.134,1440.176C377.09,1438.468 375.922,1436.85 374.93,1435.152C374.026,1433.404 372.972,1431.752 372.214,1429.986C370.62,1426.498 369.196,1423.04 368.184,1419.636C367.638,1417.944 367.18,1416.278 366.804,1414.642C366.358,1413.022 366.03,1411.432 365.748,1409.894C364.584,1403.75 364.17,1398.49 364.036,1394.798C363.896,1391.102 364.026,1388.97 364.026,1388.97Z" fill="#F3F7FF"/>
<path d="M1200.26,608.68L1200.26,1424.644C1200.26,1475.836 1158.748,1517.32 1107.584,1517.32L849.876,1517.32C798.684,1517.32 757.2,1475.836 757.2,1424.644L757.2,606.394C758.894,603.994 760.756,601.708 762.76,599.536L1193.148,599.536C1195.774,602.386 1198.172,605.434 1200.26,608.68Z" fill="url(#pf_0_4_460)"/>
<path d="M1200.26,608.68C1198.172,605.434 1195.774,602.386 1193.148,599.536C1180.054,585.228 1161.232,576.282 1140.32,576.282L815.588,576.282C796.934,576.282 779.89,583.422 767.162,595.134C765.638,596.544 764.142,598.012 762.76,599.536C760.756,601.708 758.894,603.994 757.2,606.394C748.818,618.104 743.908,632.47 743.908,647.962L743.908,1445.64C743.908,1485.234 775.994,1517.32 815.588,1517.32L1140.32,1517.32C1179.914,1517.32 1212,1485.234 1212,1445.64L1212,647.962C1212,633.456 1207.71,619.968 1200.26,608.68ZM815.588,1494.038C788.892,1494.038 767.162,1472.336 767.162,1445.64L767.162,647.962C767.162,621.266 788.892,599.536 815.588,599.536L847.506,599.536L848.776,601.088C851.344,604.278 853.036,608.03 854.052,612.01C856.366,621.04 864.55,627.7 874.286,627.7L1081.622,627.7C1091.358,627.7 1099.542,621.04 1101.856,612.01C1102.872,608.03 1104.564,604.278 1107.132,601.088L1108.402,599.536L1140.32,599.536C1167.016,599.536 1188.746,621.266 1188.746,647.962L1188.746,1445.64C1188.746,1472.336 1167.016,1494.038 1140.32,1494.038L815.588,1494.038Z" fill="url(#pf_0_4_462)"/>
<path d="M1079.244,1472.402L876.644,1472.402C875.086,1472.402 873.822,1471.14 873.822,1469.58C873.822,1468.02 875.086,1466.758 876.644,1466.758L1079.244,1466.758C1080.802,1466.758 1082.066,1468.02 1082.066,1469.58C1082.066,1471.14 1080.802,1472.402 1079.244,1472.402Z" fill="#CDD9FF"/>
<rect  x="783.953" y="687.695" width="388.002" height="363.226" rx="14.11" fill="#FFFFFF"/>
<rect  x="812.949" y="896.507" width="330.785" height="20.306" fill="#EAF5FF"/>
<rect  x="812.949" y="952.948" width="193.36" height="10.153" fill="#EAF5FF"/>
<rect  x="812.949" y="978.347" width="143.04" height="10.153" fill="#EAF5FF"/>
<rect  x="812.949" y="1000.923" width="82.83" height="10.153" fill="#EAF5FF"/>
<rect  x="812.949" y="715.915" width="331.561" height="152.807" rx="17.395" fill="#EAF5FF"/>
<circle cx="978.73" cy="792.318" r="40.47" fill="#EF4B4B"/>
<path d="M965.266,792.318L965.266,780.208C965.266,777.918 967.746,776.486 969.73,777.632L980.218,783.686L990.706,789.742C992.69,790.886 992.69,793.75 990.706,794.896L980.218,800.95L969.73,807.006C967.746,808.152 965.266,806.72 965.266,804.428L965.266,792.318Z" fill="#FFFFFF"/>
<rect  x="783.953" y="1082.173" width="388.002" height="81.629" rx="14.11" fill="#FFFFFF"/>
<rect  x="796.582" y="1094.768" width="56.441" height="56.441" rx="14.11" fill="#FEC40C"/>
<path d="M815.514,1122.988L815.514,1114.634C815.514,1113.054 817.226,1112.066 818.594,1112.856L825.83,1117.032L833.064,1121.21C834.432,1122 834.432,1123.976 833.064,1124.766L825.83,1128.942L818.594,1133.12C817.226,1133.91 815.514,1132.922 815.514,1131.342L815.514,1122.988Z" fill="#FFFFFF"/>
<rect  x="881.243" y="1100.261" width="253.573" height="8.848" fill="#EAF5FF"/>
<rect  x="881.243" y="1118.564" width="253.573" height="8.848" fill="#EAF5FF"/>
<rect  x="881.243" y="1136.867" width="253.573" height="8.848" fill="#EAF5FF"/>
<path d="M1157.844,1195.054L798.062,1195.054C790.302,1195.054 783.952,1201.404 783.952,1209.164L783.952,1262.574C783.952,1269.302 788.724,1274.968 795.05,1276.358C796.838,1276.75 798.062,1278.408 798.062,1280.238L798.062,1292.982C798.062,1294.408 799.786,1295.12 800.792,1294.112L816.996,1277.864C817.75,1277.108 818.774,1276.684 819.84,1276.684L1157.844,1276.684C1165.606,1276.684 1171.954,1270.334 1171.954,1262.574L1171.954,1209.164C1171.954,1201.404 1165.606,1195.054 1157.844,1195.054Z" fill="#FFFFFF"/>
<circle cx="824.803" cy="1234.763" r="28.22" fill="#4099F1"/>
<path d="M824.802,1234.762C828.8,1234.762 832.034,1231.528 832.034,1227.532C832.034,1223.534 828.8,1220.3 824.802,1220.3C820.806,1220.3 817.572,1223.534 817.572,1227.532C817.572,1231.528 820.806,1234.762 824.802,1234.762ZM829.762,1236.83L829.226,1236.83C827.882,1237.474 826.392,1237.862 824.802,1237.862C823.214,1237.862 821.73,1237.474 820.38,1236.83L819.844,1236.83C815.738,1236.83 812.406,1240.16 812.406,1244.268L812.406,1246.126C812.406,1247.838 813.794,1249.226 815.506,1249.226L834.1,1249.226C835.812,1249.226 837.2,1247.838 837.2,1246.126L837.2,1244.268C837.2,1240.16 833.868,1236.83 829.762,1236.83Z" fill="#FFFFFF"/>
<rect  x="881.243" y="1213.143" width="130.036" height="8.848" fill="#EAF5FF"/>
<rect  x="881.243" y="1231.446" width="130.036" height="8.848" fill="#EAF5FF"/>
<rect  x="881.243" y="1249.749" width="130.036" height="8.848" fill="#EAF5FF"/>
<path d="M798.062,1307.936L1157.844,1307.936C1165.606,1307.936 1171.954,1314.286 1171.954,1322.046L1171.954,1375.456C1171.954,1382.182 1167.184,1387.85 1160.858,1389.24C1159.07,1389.632 1157.844,1391.29 1157.844,1393.12L1157.844,1405.864C1157.844,1407.29 1156.122,1408.002 1155.116,1406.992L1138.91,1390.746C1138.158,1389.99 1137.134,1389.566 1136.068,1389.566L798.062,1389.566C790.302,1389.566 783.952,1383.216 783.952,1375.456L783.952,1322.046C783.952,1314.286 790.302,1307.936 798.062,1307.936Z" fill="#4099F1"/>
<circle cx="1131.105" cy="1347.645" r="28.22" fill="#FFFFFF"/>
<path d="M1131.104,1347.644C1135.102,1347.644 1138.336,1344.41 1138.336,1340.414C1138.336,1336.416 1135.102,1333.182 1131.104,1333.182C1127.108,1333.182 1123.874,1336.416 1123.874,1340.414C1123.874,1344.41 1127.108,1347.644 1131.104,1347.644ZM1136.064,1349.71L1135.528,1349.71C1134.184,1350.356 1132.694,1350.744 1131.104,1350.744C1129.516,1350.744 1128.032,1350.356 1126.682,1349.71L1126.146,1349.71C1122.04,1349.71 1118.708,1353.042 1118.708,1357.148L1118.708,1359.008C1118.708,1360.72 1120.096,1362.108 1121.808,1362.108L1140.402,1362.108C1142.114,1362.108 1143.502,1360.72 1143.502,1359.008L1143.502,1357.148C1143.502,1353.042 1140.17,1349.71 1136.064,1349.71Z" fill="#4099F1"/>
<g opacity="0.2">
<rect  x="944.628" y="1326.024" width="130.036" height="8.848" fill="#FFFFFF"/>
<rect  x="944.628" y="1344.327" width="130.036" height="8.848" fill="#FFFFFF"/>
<rect  x="944.628" y="1362.63" width="130.036" height="8.848" fill="#FFFFFF"/>
</g>
<path d="M901.288,1211.344L951.568,1509.182C952.262,1513.41 949,1517.252 944.716,1517.252C941.556,1517.252 938.796,1515.12 937.998,1512.062L857.368,1211.344L901.288,1211.344Z" fill="#8F5138"/>
<path d="M934.412,1178.342C933.45,1176.674 932.262,1175.116 930.902,1173.758C926.912,1169.796 921.422,1167.334 915.364,1167.334L751.296,1167.334L587.228,1167.334C581.17,1167.334 575.68,1169.796 571.69,1173.758C570.33,1175.116 569.142,1176.674 568.18,1178.342C566.312,1181.57 565.264,1185.334 565.264,1189.324C565.264,1201.466 575.086,1211.344 587.228,1211.344L751.296,1211.344L915.364,1211.344C927.506,1211.344 937.328,1201.466 937.328,1189.324C937.328,1185.334 936.28,1181.57 934.412,1178.342Z" fill="url(#pf_0_4_500)"/>
<path d="M930.902,1173.758C926.912,1169.796 921.422,1167.334 915.364,1167.334L751.296,1167.334L587.228,1167.334C581.17,1167.334 575.68,1169.796 571.69,1173.758C570.33,1175.116 569.142,1176.674 568.18,1178.342C571.972,1184.91 579.076,1189.324 587.228,1189.324L751.296,1189.324L915.364,1189.324C923.516,1189.324 930.62,1184.91 934.412,1178.342C933.45,1176.674 932.262,1175.116 930.902,1173.758Z" fill="url(#pf_0_4_502)"/>
<path d="M610.74,1211.344L560.46,1509.182C559.766,1513.41 563.028,1517.252 567.312,1517.252C570.472,1517.252 573.234,1515.12 574.032,1512.062L654.66,1211.344L610.74,1211.344Z" fill="#8F5138"/>
<path d="M887.46,1070.14L878,1065.34L878,1096L731,1096L731,1036.5L730.32,1039.8C728.6,1048.18 722.26,1054.88 713.96,1057.04L579.5,1092.26C579.84,1091.32 580,1090.74 580,1090.74L568.18,1064.66L689,1004.5L705.94,890.18C708.42,873.42 719.84,859.32 735.72,853.4L766.24,842L815.66,839L877.18,854.46C893.6,858.58 905.66,872.54 907.38,889.36L923.36,1045.5C925.36,1065.04 904.96,1079.04 887.46,1070.14Z" fill="url(#pf_0_4_506)"/>
<path d="M741,1090.738C740.99,1089.708 740.064,986.878 745.666,929.43C751.252,872.104 761.836,843.878 761.938,843.606L759.432,844.542C757.708,849.49 748.76,877.05 743.674,929.236C738.064,986.79 738.99,1089.724 739,1090.758L741,1090.738Z" fill="#FFFFFF"/>
<path d="M825.64,1073.92C827.5,1084.66 828.92,1090.34 828.96,1090.5L827.04,1091C827,1090.84 825.48,1084.78 823.52,1073.34C822.36,1066.52 821.04,1057.78 819.78,1047.22C819.1,1041.4 818.42,1035.06 817.82,1028.16L819.94,1029.48C820.6,1036.78 821.32,1043.46 822.08,1049.52C823.28,1059.38 824.54,1067.54 825.64,1073.92Z" fill="#FFFFFF"/>
<path d="M817.06,977.78C817.16,982.1 817.3,986.32 817.46,990.4L815.42,989.68C815.26,985.66 815.14,981.54 815.04,977.3C814.92,971.4 814.84,965.3 814.84,959C814.78,878.4 828.86,845.26 830.04,842.62L832.08,843.12C830.84,845.9 816.78,879.1 816.84,959C816.84,965.48 816.92,971.74 817.06,977.78Z" fill="#FFFFFF"/>
<path d="M530.5,1096L565.26,1096L579.51,1092.266C579.84,1091.316 580,1090.748 580,1090.748L568.18,1064.66C568.18,1064.66 545.5,1074 530.5,1096Z" fill="url(#pf_0_4_514)"/>
<path d="M751,759.666C751,759.666 708.666,732.334 710,710C711.334,687.666 730.666,695.334 751,702.334C771.334,709.334 802.666,698.334 816.334,706.666C830,715 829.75,727.416 829.75,727.416C829.75,727.416 849,723.25 847.5,748.5C846,773.75 815.75,790.25 812.5,804.25L751,759.666Z" fill="url(#pf_0_4_516)"/>
<path d="M815.84,1096L744.78,1096C744.6,1080.24 744.36,1035.18 746.56,984.78C746.96,975.66 747.42,966.34 748,957C748.08,955.54 748.18,954.08 748.28,952.66C753.04,881.86 766.24,842 766.24,842L815.66,839C815.66,839.04 804.5,883.02 803,955C802.88,961.26 802.86,967.54 802.98,973.78C803,975.66 803.04,977.54 803.1,979.42C803.14,981.38 803.2,983.34 803.28,985.28L776.24,975.5L762.5,994L762.58,994.06L805.54,1020.58C805.64,1021.78 805.76,1022.96 805.88,1024.14C805.94,1024.96 806.02,1025.76 806.1,1026.56C806.34,1028.94 806.58,1031.32 806.82,1033.64C806.86,1034.08 806.92,1034.52 806.96,1034.96C810,1063.06 813.92,1085.74 815.84,1096Z" fill="url(#pf_0_4_518)"/>
<path d="M815.666,839L815.666,787.666C815.666,787.666 828.666,783.5 830.834,771.666C833,759.834 816.666,752.834 810,767.5C810,767.5 800,759.666 804.5,744.334C804.5,744.334 777.666,761 745,737.334C745,737.334 743.5,805.5 750.25,816C757,826.5 766.25,824 766.25,824L766.25,842C766.25,842 772,859 789.5,854.5C807,850 815.666,839 815.666,839Z" fill="url(#pf_0_4_520)"/>
<path d="M766.25,824C766.25,824 787.666,822.334 800,808C800,808 792.166,832.666 766.25,832.666L766.25,824Z" fill="#1D164D"/>
<path d="M731,1096L631.712,1162.196C617.02,1171.992 609.538,1189.572 612.668,1206.952L664,1492L704,1492L698,1216.666L728.666,1193L786,1492L826,1492L813.334,1211.344L854.768,1183.144C869.302,1173.254 878,1156.812 878,1139.23L878,1096L731,1096Z" fill="url(#pf_0_4_524)"/>
<path d="M738.196,1166.578L780.252,1130.666L722.826,1166.024C714.44,1171.188 709.334,1180.332 709.334,1190.18L709.334,1207.92L728.666,1193C726.954,1183.128 730.576,1173.084 738.196,1166.578Z" fill="#1D164D"/>
<path d="M878,1065.34L878,1096L815.84,1096C814.84,1090.66 813.3,1081.96 811.62,1070.9C815.7,1070.36 819.52,1072.14 823.52,1073.34C824.22,1073.56 824.92,1073.76 825.64,1073.92C827.16,1074.26 828.72,1074.46 830.34,1074.34C839.34,1073.66 837.34,1066.34 827,1054.66C825.86,1053.36 824.18,1051.62 822.08,1049.52C821.36,1048.8 820.6,1048.04 819.78,1047.22C816.18,1043.7 811.76,1039.48 806.96,1034.96C806.92,1034.6 806.88,1034.22 806.84,1033.84C806.68,1032.28 806.52,1030.7 806.36,1029.12C806.28,1028.4 806.22,1027.68 806.14,1026.96C806,1025.5 805.86,1024.02 805.72,1022.54C805.66,1021.88 805.6,1021.24 805.54,1020.58L817.82,1028.16L819.94,1029.48L878,1065.34Z" fill="url(#pf_0_4_528)"/>
<path d="M804.66,1074.34C795.34,1082.66 794.66,1085.66 787.66,1083.66C780.66,1081.66 780.66,1090.74 773.34,1090.74C773.34,1090.74 775.3,1092.8 778.84,1096L815.84,1096C814.842,1090.656 813.3,1081.956 811.624,1070.89C809.396,1071.186 807.096,1072.164 804.66,1074.34Z" fill="#C9E2F4"/>
<path d="M806.96,1034.96C788.26,1017.32 764.06,995.42 762.58,994.06L805.54,1020.58C805.64,1021.78 805.76,1022.96 805.88,1024.14C805.94,1024.96 806.02,1025.76 806.1,1026.56C806.34,1028.96 806.58,1031.32 806.82,1033.64C806.86,1034.08 806.92,1034.52 806.96,1034.96Z" fill="#C9E2F4"/>
<path d="M863.34,1007L817.46,990.4L815.42,989.68L803.28,985.28C803.14,981.46 803.04,977.62 802.98,973.78C803.36,973.66 803.76,973.58 804.16,973.5C807.64,972.86 810.66,975.9 815.04,977.3C815.68,977.5 816.36,977.68 817.06,977.78C819.14,978.12 821.52,978 824.34,977C834.66,973.34 839.34,990.34 841.78,977C844.22,963.66 844,911 844,911L863.34,1007Z" fill="url(#pf_0_4_534)"/>
<path d="M725.334,1018C722.334,1033 716.666,1029.334 716,1041.666C715.334,1054 709.334,1046.334 703.334,1050.334C697.334,1054.334 700.786,1056.514 690.226,1063.256L713.96,1057.04C722.26,1054.88 728.6,1048.18 730.32,1039.8L731,1036.5L731,929.334C731,929.334 728.334,1003 725.334,1018Z" fill="url(#pf_0_4_536)"/>
<path d="M776.38,958.12C777.76,965.88 779,972.24 776.24,975.5L762.5,994L745.838,985.28L739.258,981.48C733.958,978.42 732.378,971.5 735.818,966.44L742.94,956.58C744.28,954.64 746.18,953.3 748.28,952.66C751.08,951.76 754.26,952.08 756.92,953.78L766.24,959.76C766.24,959.76 769.62,944.24 776.38,944.24C783.12,944.24 775,950.38 776.38,958.12Z" fill="url(#pf_0_4_538)"/>
<path d="M664,1492L704,1492L703.389,1463.967L658.952,1463.967L664,1492Z" fill="url(#pf_0_4_540)"/>
<path d="M780.625,1463.967L786,1492L826,1492L824.735,1463.967L780.625,1463.967Z" fill="url(#pf_0_4_542)"/>
<path d="M660.758,1474C660.758,1481.286 647.952,1487.708 640.968,1489.788L599.478,1502.15C595.278,1503.4 592.398,1507.262 592.398,1511.646C592.398,1514.742 594.908,1517.252 598.006,1517.252L693.32,1517.252C699.218,1517.252 704,1512.47 704,1506.572L704,1474L660.758,1474Z" fill="url(#pf_0_4_544)"/>
<path d="M649.468,1497.562C645.23,1499.914 641.054,1496.91 637.02,1494.008C636.01,1493.28 634.99,1492.552 633.956,1491.878L636.604,1491.088C637.168,1491.484 637.726,1491.884 638.27,1492.276C642.08,1495.026 645.354,1497.4 648.432,1495.692C649.238,1495.246 649.346,1494.792 649.354,1494.45C649.384,1492.89 647.35,1490.556 644.604,1488.146C645.244,1487.77 645.852,1487.36 646.428,1486.906C649.278,1489.498 651.532,1492.254 651.49,1494.488C651.474,1495.388 651.106,1496.648 649.468,1497.562Z" fill="#FFFFFF"/>
<path d="M622.598,1495.262L624.754,1494.618C625.23,1495.288 625.73,1495.948 626.186,1496.548C628.216,1499.218 629.818,1501.324 629.18,1502.964C628.984,1503.474 628.488,1504.128 627.25,1504.354C626.836,1504.428 626.44,1504.462 626.052,1504.462C623.24,1504.462 621.008,1502.602 618.476,1500.486C617.38,1499.57 616.124,1498.572 614.736,1497.604L617.344,1496.826C618.242,1497.516 619.076,1498.202 619.848,1498.846C622.518,1501.074 624.462,1502.71 626.866,1502.25C627.058,1502.218 627.158,1502.176 627.186,1502.176L627.19,1502.176C627.25,1501.478 625.522,1499.21 624.488,1497.842C623.834,1496.982 623.184,1496.118 622.598,1495.262Z" fill="#FFFFFF"/>
<path d="M781.942,1474.004C781.942,1481.29 769.136,1487.71 762.152,1489.792L720.662,1502.152C716.462,1503.404 713.582,1507.266 713.582,1511.648C713.582,1514.746 716.094,1517.256 719.19,1517.256L815.968,1517.32C821.866,1517.32 826.648,1512.538 826.648,1506.64L825.184,1474.004L781.942,1474.004Z" fill="url(#pf_0_4_550)"/>
<path d="M770.652,1497.564C766.414,1499.918 762.238,1496.914 758.204,1494.01C757.194,1493.284 756.174,1492.554 755.142,1491.88L757.788,1491.092C758.352,1491.488 758.91,1491.886 759.454,1492.28C763.264,1495.028 766.538,1497.402 769.618,1495.696C770.422,1495.25 770.53,1494.794 770.54,1494.452C770.568,1492.892 768.534,1490.56 765.79,1488.15C766.428,1487.772 767.038,1487.364 767.614,1486.91C770.462,1489.5 772.716,1492.256 772.676,1494.49C772.658,1495.392 772.292,1496.652 770.652,1497.564Z" fill="#FFFFFF"/>
<path d="M743.782,1495.264L745.938,1494.622C746.416,1495.292 746.914,1495.952 747.37,1496.552C749.402,1499.222 751.004,1501.328 750.364,1502.968C750.168,1503.476 749.672,1504.132 748.434,1504.356C748.02,1504.432 747.624,1504.464 747.236,1504.464C744.424,1504.464 742.192,1502.604 739.66,1500.49C738.564,1499.574 737.308,1498.576 735.92,1497.606L738.528,1496.83C739.426,1497.52 740.262,1498.204 741.032,1498.85C743.702,1501.078 745.646,1502.712 748.05,1502.254C748.242,1502.22 748.342,1502.178 748.37,1502.178L748.374,1502.178C748.434,1501.482 746.706,1499.212 745.672,1497.844C745.018,1496.986 744.368,1496.12 743.782,1495.264Z" fill="#FFFFFF"/>
<path d="M732.97,618.64C732.97,647.906 709.244,671.632 679.978,671.632C650.712,671.632 626.984,647.906 626.984,618.64C626.984,589.374 650.712,565.666 679.978,565.666C687.51,565.666 694.678,567.238 701.174,570.074C713.402,575.402 723.214,585.234 728.562,597.462C731.398,603.94 732.97,611.108 732.97,618.64Z" fill="#FEC40C"/>
<g opacity="0.2">
<path d="M729.876,636.5C731.874,630.92 732.97,624.908 732.97,618.64C732.97,615.972 732.764,613.354 732.382,610.792C726.878,615.432 719.778,618.24 712.016,618.24C694.546,618.24 680.382,604.076 680.382,586.606C680.382,578.848 683.184,571.754 687.82,566.252C685.26,565.872 682.642,565.666 679.978,565.666C673.706,565.666 667.694,566.762 662.112,568.76C660.116,574.336 659.022,580.34 659.022,586.602C659.022,615.868 682.75,639.594 712.016,639.594C718.284,639.594 724.294,638.498 729.876,636.5Z" fill="#FFFFFF"/>
</g>
<path d="M679.972,649.866C668.866,649.866 658.51,643.882 652.944,634.25C652.414,633.334 652.73,632.162 653.646,631.632C654.558,631.1 655.734,631.416 656.264,632.332C661.146,640.784 670.23,646.034 679.972,646.034C689.714,646.034 698.802,640.784 703.682,632.332C704.212,631.416 705.384,631.1 706.302,631.632C707.218,632.162 707.532,633.334 707.002,634.25C701.436,643.882 691.08,649.866 679.972,649.866Z" fill="#1D164D"/>
<path d="M668.687,608.63C668.687,612.347 666.87,615.361 664.627,615.361C662.385,615.361 660.567,612.347 660.567,608.63C660.567,604.912 662.385,601.898 664.627,601.898C666.87,601.898 668.687,604.912 668.687,608.63Z" fill="#1D164D"/>
<path d="M699.379,608.63C699.379,612.347 697.562,615.361 695.319,615.361C693.077,615.361 691.259,612.347 691.259,608.63C691.259,604.912 693.077,601.898 695.319,601.898C697.562,601.898 699.379,604.912 699.379,608.63Z" fill="#1D164D"/>
<path d="M776.25,975.5L803.29,985.28C803.148,981.462 803.044,977.624 802.978,973.772C798.22,975.04 794.83,978.122 776.25,975.5Z" fill="#C9E2F4"/>
<path d="M1132.668,1109.156C1132.668,1112.512 1131.78,1115.652 1130.2,1118.36C1129.398,1119.768 1128.402,1121.046 1127.276,1122.172C1123.94,1125.506 1119.328,1127.564 1114.26,1127.564L60.472,1127.564C53.672,1127.564 47.716,1123.86 44.532,1118.36C42.952,1115.652 42.064,1112.512 42.064,1109.156C42.064,1104.088 44.122,1099.476 47.456,1096.14C50.792,1092.806 55.404,1090.748 60.472,1090.748L1114.26,1090.748C1124.418,1090.748 1132.668,1098.998 1132.668,1109.156Z" fill="url(#pf_0_4_566)"/>
<path d="M1130.2,1118.36C1129.398,1119.768 1128.402,1121.046 1127.276,1122.172C1123.94,1125.506 1119.328,1127.564 1114.26,1127.564L60.472,1127.564C53.672,1127.564 47.716,1123.86 44.532,1118.36C45.334,1116.952 46.33,1115.674 47.456,1114.548C50.792,1111.214 55.404,1109.156 60.472,1109.156L1114.26,1109.156C1121.06,1109.156 1127.016,1112.86 1130.2,1118.36Z" fill="url(#pf_0_4_568)"/>
<path d="M194.21,1127.564L144.626,1509.294C143.94,1513.464 147.158,1517.252 151.382,1517.252C154.498,1517.252 157.222,1515.148 158.008,1512.134L237.524,1127.564L194.21,1127.564Z" fill="#8F5138"/>
<path d="M980.522,1127.564L1030.108,1509.294C1030.792,1513.464 1027.576,1517.252 1023.35,1517.252C1020.234,1517.252 1017.51,1515.148 1016.724,1512.134L937.21,1127.564L980.522,1127.564Z" fill="#8F5138"/>
<path d="M374.89,1090.748L286.47,1090.748C279.79,1090.748 273.37,1088.068 268.69,1083.268L235.27,1049.088C233.39,1047.188 234.75,1043.988 237.41,1043.988L245.55,1043.988C247.27,1043.988 248.93,1044.688 250.13,1045.948L256.51,1052.728L280.27,1052.728L280.99,1049.028C281.59,1046.088 284.17,1043.988 287.17,1043.988L323.67,1043.988C328.05,1043.988 332.21,1045.768 335.21,1048.928L374.89,1090.748Z" fill="url(#pf_0_4_574)"/>
<path d="M317.37,1090.748L286.47,1090.748C279.79,1090.748 273.37,1088.068 268.69,1083.268L235.27,1049.088C233.39,1047.188 234.75,1043.988 237.41,1043.988L245.55,1043.988C247.27,1043.988 248.93,1044.688 250.13,1045.948L256.51,1052.728L280.15,1052.728C280.23,1052.808 280.33,1052.888 280.41,1052.968L317.37,1090.748Z" fill="url(#pf_0_4_576)"/>
<path d="M335.21,1048.928L371.044,1086.696C373.4,1085.36 373.876,1082.168 372.012,1080.204L343.51,1050.164C341.356,1047.894 337.932,1047.384 335.21,1048.928Z" fill="url(#pf_0_4_578)"/>
<path d="M1007.146,965.248C1007.146,965.248 1013.4,944.718 991.25,936.632C991.25,936.632 986.706,949.414 996.526,958.194L999.08,955.974L998.586,959.472L1007.146,965.248Z" fill="url(#pf_0_4_580)"/>
<path d="M1014.328,999.991C1014.328,999.991 1013.884,996.657 1012.92,991.623C1011.952,986.609 1010.444,979.947 1008.47,973.413C1007.494,970.143 1006.36,966.925 1005.224,963.931C1004.042,960.955 1002.802,958.237 1001.648,955.943C1000.408,953.705 999.392,951.813 998.504,950.603L997.19,948.643C997.19,948.643 997.716,949.321 998.636,950.509C999.614,951.661 1000.76,953.481 1002.168,955.653C1003.486,957.879 1004.928,960.531 1006.33,963.453C1007.684,966.391 1009.056,969.565 1010.27,972.799C1012.722,979.263 1014.714,985.891 1016.048,990.907C1017.374,995.913 1018.078,999.347 1018.078,999.347L1014.328,999.991Z" fill="#369E5F"/>
<path d="M1000.49,943.37C1000.226,945.89 999.598,948.31 998.952,950.724L998.834,951.162L998.4,951.054C996.298,950.53 994.2,949.984 992.166,949.158C994.358,949.294 996.484,949.71 998.606,950.15L998.056,950.48C998.734,948.072 999.428,945.672 1000.49,943.37Z" fill="#369E5F"/>
<path d="M1005.086,949.95C1004.764,952.354 1004.06,954.63 1003.172,956.842L1003.054,957.138L1002.784,957.12C1001.728,957.056 1000.674,956.926 999.618,956.71C1000.674,956.496 1001.728,956.366 1002.784,956.302L1002.398,956.578C1003.044,954.284 1003.876,952.052 1005.086,949.95Z" fill="#369E5F"/>
<path d="M1048.65,996.23C1048.5,997.432 1048.228,998.664 1047.808,999.928C1047.688,1000.288 1047.566,1000.65 1047.416,1001.01C1047.026,1002.062 1046.514,1003.116 1045.944,1004.138C1045.522,1004.95 1045.012,1005.732 1044.47,1006.482C1044.41,1006.602 1044.35,1006.694 1044.26,1006.814C1044.018,1007.234 1043.778,1007.626 1043.478,1007.986C1043.478,1008.016 1043.448,1008.016 1043.448,1008.016C1043.418,1008.076 1043.358,1008.106 1043.328,1008.166C1042.606,1008.618 1041.524,1009.28 1040.35,1010.03C1039.96,1010.272 1039.568,1010.512 1039.148,1010.752C1038.908,1010.932 1038.636,1011.084 1038.396,1011.264C1036.08,1012.706 1033.946,1014.12 1033.856,1014.33C1033.796,1014.42 1032.594,1014.48 1030.76,1014.51L1028.744,1014.51C1028.294,1014.51 1027.812,1014.51 1027.302,1014.48C1026.61,1014.48 1025.858,1014.48 1025.106,1014.45L1024.956,1014.45C1024.566,1014.45 1024.174,1014.45 1023.784,1014.42C1023.152,1014.42 1022.49,1014.39 1021.858,1014.39C1017.53,1014.24 1013.56,1014.03 1013.11,1013.79C1012.928,1013.698 1012.658,1013.158 1012.298,1012.316C1011.876,1011.414 1011.396,1010.15 1010.854,1008.678C1010.704,1008.256 1010.524,1007.806 1010.372,1007.354C1010.464,1006.874 1010.554,1006.362 1010.644,1005.852C1011.124,1003.536 1011.906,1001.16 1012.838,998.936C1013.2,998.064 1013.53,997.252 1013.8,996.44C1013.86,996.29 1013.92,996.14 1013.95,995.958C1014.884,993.162 1015.304,990.636 1015.274,988.082C1015.244,985.406 1014.732,982.668 1013.83,979.482C1013.23,977.046 1012.298,974.25 1011.274,971.062C1007.126,958.434 1013.5,962.794 1019.994,950.978C1021.046,949.052 1021.438,947.038 1021.408,944.994C1021.288,934.83 1010.914,923.676 1021.438,917.902C1021.798,917.692 1022.19,917.482 1022.61,917.3C1022.73,917.21 1022.822,917.18 1022.912,917.15C1023.422,916.91 1023.904,916.73 1024.414,916.58C1038.186,912.19 1041.944,933.598 1042.184,934.89L1042.184,934.95L1045.822,940.934C1045.822,940.934 1042.936,977.196 1047.748,988.02L1047.748,988.052C1048.83,990.486 1049.1,993.312 1048.65,996.23Z" fill="#369E5F"/>
<path d="M1032.714,975.512C1032.714,977.106 1032.564,978.82 1032.322,980.594C1032.202,981.376 1032.052,982.188 1031.902,983C1031.722,983.932 1031.51,984.894 1031.3,985.856C1030.608,988.832 1029.736,991.84 1028.834,994.636C1028.534,995.538 1028.234,996.44 1027.932,997.312C1027.692,997.974 1027.452,998.604 1027.24,999.236C1026.248,1001.942 1025.346,1004.228 1024.716,1005.822C1024.294,1006.814 1023.964,1007.536 1023.814,1007.926L1022.04,1007.174C1022.76,1005.49 1023.662,1003.266 1024.626,1000.74C1025.106,999.416 1025.618,998.034 1026.098,996.59L1026.098,996.56C1026.4,995.688 1026.7,994.816 1027,993.914C1027.542,992.17 1028.082,990.396 1028.564,988.592C1028.894,987.45 1029.166,986.276 1029.406,985.134C1029.646,984.172 1029.856,983.24 1030.008,982.338C1030.578,979.302 1030.88,976.474 1030.76,974.1C1030.638,971.754 1030.098,969.86 1028.954,968.718C1028.924,968.628 1028.834,968.566 1028.774,968.506C1028.264,968.026 1027.812,967.544 1027.422,967.034C1027.362,966.974 1027.332,966.914 1027.302,966.854C1023.904,962.222 1025.948,956.48 1027.902,950.886C1027.992,950.616 1028.082,950.376 1028.204,950.106C1028.264,949.894 1028.354,949.684 1028.414,949.444C1028.534,949.112 1028.654,948.782 1028.774,948.422L1028.774,948.392C1028.774,948.392 1028.804,948.362 1028.804,948.332C1029.796,945.414 1030.578,942.468 1030.608,939.552C1030.608,938.138 1030.458,936.664 1030.158,935.192C1030.038,934.56 1029.886,933.928 1029.706,933.298C1027.962,926.382 1024.024,919.586 1022.61,917.3C1022.73,917.21 1022.822,917.18 1022.912,917.15C1023.422,916.91 1023.904,916.73 1024.414,916.58C1025.978,919.136 1029.736,925.75 1031.54,932.636C1031.722,933.388 1031.902,934.17 1032.022,934.92C1032.322,936.484 1032.502,938.048 1032.502,939.552C1032.472,942.198 1031.872,944.844 1031.09,947.43C1030.85,948.21 1030.578,949.022 1030.308,949.804C1030.098,950.376 1029.918,950.948 1029.706,951.518C1029.646,951.668 1029.586,951.82 1029.556,951.97C1027.482,957.742 1025.858,962.764 1029.586,966.612C1029.616,966.642 1029.616,966.672 1029.676,966.672C1029.766,966.822 1029.886,966.944 1030.038,967.064C1030.368,967.364 1030.668,967.694 1030.91,968.056C1032.202,969.86 1032.714,972.476 1032.714,975.512Z" fill="url(#pf_0_4_590)"/>
<path d="M1036.736,961.8C1035.908,963.19 1034.93,964.49 1033.786,965.65C1032.654,966.83 1031.438,967.956 1029.7,968.654L1029.61,968.69L1029.48,968.698C1026.958,968.868 1024.476,968.706 1022.054,967.932C1020.86,967.532 1019.692,966.99 1018.67,966.216C1017.664,965.436 1016.836,964.392 1016.456,963.228C1018.054,965.096 1020.226,965.932 1022.474,966.344C1024.7,966.794 1027.074,966.934 1029.338,966.874L1029.12,966.92C1030.38,966.504 1031.704,965.606 1032.964,964.714L1036.736,961.8Z" fill="url(#pf_0_4_592)"/>
<path d="M1035.518,926.724C1035.372,928.208 1034.944,929.664 1034.328,931.028C1033.75,932.418 1032.966,933.724 1032.026,934.922L1031.77,935.25L1031.336,935.25C1028.984,935.25 1026.73,934.768 1024.652,933.69C1022.62,932.582 1020.886,930.714 1020.414,928.508C1020.802,928.924 1021.068,929.386 1021.476,929.742C1021.828,930.138 1022.272,930.43 1022.656,930.766C1023.48,931.386 1024.396,931.84 1025.344,932.206C1027.23,932.914 1029.322,933.328 1031.31,933.418L1030.622,933.746C1032.474,931.656 1034.08,929.312 1035.518,926.724Z" fill="url(#pf_0_4_594)"/>
<path d="M1038.578,943.37C1037.366,944.898 1035.928,946.178 1034.414,947.386C1032.856,948.536 1031.244,949.632 1029.178,950.218L1028.978,950.274L1028.788,950.238C1027.172,949.922 1025.65,949.432 1024.23,948.594C1023.53,948.182 1022.83,947.708 1022.28,947.068C1022.004,946.754 1021.78,946.38 1021.608,946.004C1021.43,945.618 1021.392,945.198 1021.408,944.804C1022.018,946.29 1023.464,946.842 1024.8,947.362C1026.192,947.796 1027.664,948.162 1029.084,948.394L1028.696,948.414C1030.276,947.904 1031.938,946.976 1033.556,946.078C1035.214,945.202 1036.83,944.22 1038.578,943.37Z" fill="url(#pf_0_4_596)"/>
<g opacity="0.2">
<path d="M1044.27,1006.826L1044.27,1007.548C1044.27,1007.548 1043.928,1007.776 1043.32,1008.158C1040.808,1009.718 1034.036,1013.94 1033.844,1014.322C1033.616,1014.778 1014.174,1014.36 1013.108,1013.788C1012.69,1013.56 1011.586,1010.744 1010.37,1007.358C1010.788,1004.58 1011.7,1001.652 1012.842,998.95C1015.924,991.606 1015.848,986.736 1013.832,979.468C1017.674,973.61 1022.62,968.016 1027.948,966.874C1039.894,964.288 1043.776,973.876 1044.27,980.838C1044.688,987.04 1044.346,1003.174 1044.27,1006.826Z" fill="#231F20"/>
</g>
<path d="M1037.46,990.884C1037.574,993.928 1037.346,997.086 1036.736,1000.168C1036.546,1001.27 1036.28,1002.374 1035.938,1003.44C1035.404,1005.342 1034.72,1007.13 1033.844,1008.766C1026.502,1022.73 1021.48,1030.188 1021.48,1030.188L1019.006,1028.742L1016.456,1027.296L1009.456,1023.262L1005.422,1020.904L997.546,1016.376C997.546,1016.376 991.612,1007.7 986.704,996.896C986.208,995.83 985.752,994.726 985.296,993.622C983.698,989.78 982.328,985.748 981.452,981.828C981.186,980.648 980.958,979.508 980.806,978.366C980.044,973.19 980.348,968.282 982.404,964.364C983.66,962.004 985.142,960.558 986.78,959.912C987.654,959.532 988.606,959.418 989.594,959.494C992.79,959.76 996.368,962.272 999.792,966.342C1000.438,967.066 1001.086,967.864 1001.694,968.74C1003.9,971.67 1005.994,975.208 1007.896,979.202C1008.314,980.04 1008.694,980.914 1009.076,981.79C1012.69,989.97 1015.43,999.634 1016.342,1009.49C1016.342,1009.49 1016.724,1002.83 1017.978,995.222C1018.13,994.308 1018.284,993.356 1018.474,992.406C1019.006,989.704 1019.652,986.964 1020.414,984.454C1020.756,983.426 1021.098,982.436 1021.48,981.486C1022.964,977.642 1024.904,974.752 1027.376,973.952C1028.138,973.724 1028.86,973.648 1029.546,973.762C1030.61,973.876 1031.6,974.408 1032.476,975.246C1034.72,977.376 1036.318,981.448 1037.04,986.28C1037.27,987.726 1037.422,989.286 1037.46,990.884Z" fill="url(#pf_0_4_600)"/>
<path d="M1001.694,968.74C998.46,969.728 995.53,971.136 992.866,972.696C991.992,973.228 991.116,973.8 990.318,974.332C986.588,976.844 983.622,979.582 981.452,981.828C981.186,980.648 980.958,979.508 980.806,978.366C983.088,976.12 986.018,973.61 989.518,971.326C990.356,970.794 991.23,970.3 992.106,969.804C994.464,968.434 997.014,967.256 999.792,966.342C1000.438,967.066 1001.086,967.864 1001.694,968.74Z" fill="#369E5F"/>
<path d="M1009.076,981.79C1003.938,983.388 999.944,985.214 996.786,987.078C995.91,987.612 995.074,988.144 994.312,988.676C990.09,991.644 987.882,994.574 986.704,996.896C986.208,995.83 985.752,994.726 985.296,993.622C986.856,991.188 989.404,988.448 993.476,985.784C994.236,985.252 995.074,984.758 995.986,984.264C999.144,982.436 1003.064,980.724 1007.896,979.202C1008.314,980.04 1008.694,980.914 1009.076,981.79Z" fill="#369E5F"/>
<path d="M1009.456,1023.262L1005.422,1020.904C1001.086,1010.136 997.356,998.95 994.312,988.676C994.046,987.688 993.742,986.736 993.476,985.784C992.334,981.79 991.268,977.946 990.318,974.332C990.052,973.306 989.784,972.316 989.518,971.326C988.454,967.066 987.502,963.222 986.78,959.912C987.654,959.532 988.606,959.418 989.594,959.494C990.28,962.538 991.116,966 992.106,969.804C992.334,970.756 992.562,971.708 992.866,972.696C993.78,976.31 994.846,980.192 995.986,984.264C996.254,985.176 996.52,986.128 996.786,987.078C1000.21,998.608 1004.434,1011.316 1009.456,1023.262Z" fill="#369E5F"/>
<path d="M1032.476,975.246C1032.476,977.872 1032.362,980.496 1032.17,983.122C1032.056,984.11 1031.98,985.138 1031.866,986.128L1031.866,986.166C1031.486,989.324 1030.992,992.368 1030.382,995.374C1030.192,996.324 1029.964,997.276 1029.736,998.226C1026.654,1011.924 1021.594,1023.338 1019.006,1028.742L1016.456,1027.296C1019.082,1021.854 1024.028,1010.402 1027.034,996.934C1027.224,996.02 1027.452,995.068 1027.606,994.118C1028.214,991.15 1028.708,988.106 1029.012,985.024C1029.164,984.072 1029.242,983.084 1029.318,982.132C1029.546,979.354 1029.66,976.54 1029.546,973.762C1030.61,973.876 1031.6,974.408 1032.476,975.246Z" fill="#369E5F"/>
<path d="M1037.46,990.884C1035.9,988.828 1034.036,987.23 1031.866,986.166L1031.866,986.128C1030.954,985.67 1030.002,985.29 1029.012,985.024C1026.464,984.264 1023.572,984.072 1020.414,984.454C1020.756,983.426 1021.098,982.436 1021.48,981.486C1024.294,981.296 1026.92,981.524 1029.318,982.132C1030.306,982.398 1031.258,982.742 1032.17,983.122C1033.92,983.92 1035.558,984.948 1037.04,986.28C1037.27,987.726 1037.422,989.286 1037.46,990.884Z" fill="#369E5F"/>
<path d="M1036.736,1000.168C1036.546,1001.27 1036.28,1002.374 1035.938,1003.44C1034.682,1001.88 1032.628,999.862 1029.736,998.226C1028.898,997.77 1028.024,997.314 1027.034,996.934C1024.524,995.906 1021.518,995.222 1017.978,995.222C1018.13,994.308 1018.284,993.356 1018.474,992.406C1021.974,992.444 1025.018,993.128 1027.606,994.118C1028.594,994.498 1029.508,994.954 1030.382,995.374C1033.084,996.82 1035.176,998.57 1036.736,1000.168Z" fill="#369E5F"/>
<path d="M1037.84,1019.268L1036.813,1021.246L1036.813,1021.284L1036.775,1021.36L1036.09,1022.692L1029.85,1035.058Z" fill="#000000"/>
<path d="M1040.428,1031.862L1032.362,1036.504L1029.85,1035.058L1019.006,1028.78L1017.94,1028.17L1016.61,1027.41L1014.098,1025.926L999.602,1017.556C999.64,1017.328 999.64,1017.06 999.678,1016.832C999.716,1016.414 999.754,1015.996 999.83,1015.576C999.868,1015.386 999.868,1015.196 999.906,1015.006C1000.628,1009.832 1001.884,1004.734 1002.418,1002.526C1002.608,1001.842 1002.722,1001.422 1002.722,1001.422C1002.722,1001.422 1002.988,1001.614 1003.52,1001.88C1005.042,1002.754 1008.618,1004.772 1013.298,1007.282C1013.45,1007.358 1013.642,1007.472 1013.794,1007.548C1014.174,1007.738 1014.516,1007.93 1014.896,1008.158C1017.788,1009.68 1021.022,1011.354 1024.37,1013.028C1024.714,1013.218 1025.094,1013.408 1025.474,1013.598C1026.92,1014.322 1028.404,1015.006 1029.85,1015.728C1032.97,1017.212 1035.214,1019.154 1036.812,1021.246L1036.812,1021.284C1039.514,1024.822 1040.314,1028.78 1040.428,1031.862Z" fill="#369E5F"/>
<path d="M1016.61,1027.41L1014.098,1025.926C1012.69,1023.872 1011.434,1021.816 1010.33,1019.8L1010.33,1019.762L1010.292,1019.762C1010.064,1019.268 1009.798,1018.772 1009.494,1018.278C1008.162,1015.844 1007.058,1013.56 1006.07,1011.468C1004.168,1007.282 1002.95,1004.048 1002.418,1002.526C1002.226,1001.956 1002.15,1001.652 1002.112,1001.614L1002.722,1001.422L1003.292,1001.232C1003.292,1001.27 1003.368,1001.498 1003.52,1001.88C1003.938,1003.212 1005.156,1006.522 1007.136,1010.82C1008.086,1012.914 1009.228,1015.234 1010.56,1017.67C1010.826,1018.164 1011.092,1018.658 1011.396,1019.154C1012.88,1021.816 1014.63,1024.632 1016.61,1027.41Z" fill="url(#pf_0_4_618)"/>
<path d="M999.658,1016.816L1010.344,1019.78L1010.344,1019.792L1011.116,1020.002L1011.386,1019.144L1014.892,1008.138C1014.524,1007.942 1014.156,1007.746 1013.8,1007.55L1010.578,1017.672L1010.308,1018.506L1009.512,1018.286L999.83,1015.59C999.768,1015.994 999.72,1016.398 999.658,1016.816Z" fill="url(#pf_0_4_620)"/>
<path d="M1025.474,1013.598L1019.006,1028.78L1017.94,1028.17L1024.37,1013.028C1024.714,1013.218 1025.094,1013.408 1025.474,1013.598Z" fill="url(#pf_0_4_622)"/>
<path d="M1070.57,1005.07C1069.546,1011.174 1067.442,1015.774 1067.202,1016.344L1067.172,1016.376L1066.39,1016.826L1065.246,1017.488L1057.008,1022.238L1055.234,1023.26L1053.49,1024.282L1051.836,1025.246L1047.026,1028.042C1046.996,1028.042 1046.996,1028.072 1046.996,1028.072L1045.072,1029.154L1045.072,1029.184L1044.74,1029.364C1044.74,1029.364 1045.402,1026.928 1045.582,1022.99C1045.612,1022.478 1045.612,1021.908 1045.612,1021.336L1045.612,1021.306C1045.612,1020.194 1045.552,1019.022 1045.462,1017.788C1045.462,1017.698 1045.432,1017.608 1045.432,1017.488C1045.192,1014.632 1044.62,1011.444 1043.508,1008.046L1043.478,1008.016L1043.478,1007.986C1043.056,1006.754 1042.576,1005.49 1042.034,1004.228C1041.584,1003.206 1041.252,1002.244 1041.042,1001.28C1040.652,999.688 1040.562,998.184 1040.652,996.74C1040.952,991.448 1043.658,986.758 1044.26,980.834L1044.26,980.804C1044.71,976.294 1043.928,971.032 1039.9,964.298C1035.99,957.742 1034.968,951.488 1035.75,946.256C1035.84,945.716 1035.96,945.204 1036.08,944.692C1037.074,940.424 1039.328,936.996 1042.184,934.89C1044.14,933.418 1046.394,932.606 1048.71,932.546C1049.672,932.546 1050.664,932.666 1051.656,932.936C1052.408,933.176 1053.16,933.478 1053.912,933.838C1065.578,940.062 1047.266,966.672 1062.962,979.512C1071.592,986.608 1072.012,997.132 1070.57,1005.07Z" fill="url(#pf_0_4_624)"/>
<path d="M1059.022,1008.618C1058.992,1009.008 1058.932,1009.4 1058.902,1009.76C1058.842,1010.362 1058.782,1010.932 1058.722,1011.504C1058.512,1013.428 1058.272,1015.232 1058,1016.916C1057.97,1017.096 1057.94,1017.308 1057.91,1017.488C1057.64,1019.262 1057.308,1020.856 1057.008,1022.238L1055.234,1023.26L1053.49,1024.282C1053.55,1024.102 1053.61,1023.922 1053.64,1023.742C1054.092,1022.268 1054.572,1020.134 1055.024,1017.488C1055.054,1017.338 1055.054,1017.218 1055.084,1017.066C1055.354,1015.382 1055.626,1013.488 1055.866,1011.474C1055.896,1011.114 1055.926,1010.722 1055.986,1010.332C1055.986,1010.212 1056.016,1010.09 1056.016,1009.94L1056.016,1009.91C1056.226,1008.016 1056.376,1006.002 1056.498,1003.896C1056.588,1001.882 1056.678,999.778 1056.678,997.642C1056.678,996.47 1056.678,995.268 1056.648,994.034C1056.618,992.832 1056.498,991.72 1056.316,990.698C1055.986,988.472 1055.384,986.548 1054.602,984.714C1053.822,982.85 1052.89,981.106 1051.866,979.242C1048.95,973.738 1045.642,967.484 1045.372,955.998C1045.102,945.174 1046.936,937.476 1048.71,932.546C1049.672,932.546 1050.664,932.666 1051.656,932.936C1049.852,937.536 1047.928,945.114 1048.198,955.968C1048.468,966.732 1051.506,972.386 1054.422,977.918C1055.444,979.812 1056.438,981.676 1057.28,983.692C1058.302,986.126 1059.084,988.772 1059.354,991.96C1059.444,992.592 1059.474,993.282 1059.504,993.974C1059.654,998.996 1059.444,1004.048 1059.022,1008.618Z" fill="#369E5F"/>
<g opacity="0.2">
<path d="M1070.57,1005.07C1069.546,1011.174 1067.442,1015.774 1067.202,1016.344L1067.172,1016.376C1067.172,1016.376 1066.87,1016.406 1066.36,1016.436C1064.886,1016.496 1061.638,1016.676 1058,1016.916C1057.038,1016.946 1056.076,1017.006 1055.084,1017.066C1054.362,1017.126 1053.64,1017.156 1052.92,1017.218C1052.558,1017.246 1052.228,1017.278 1051.866,1017.278C1050.904,1017.368 1049.942,1017.428 1049.04,1017.488C1047.688,1017.608 1046.454,1017.698 1045.462,1017.788C1045.462,1017.698 1045.432,1017.608 1045.432,1017.488C1045.192,1014.632 1044.62,1011.444 1043.508,1008.046L1043.478,1008.016L1043.478,1007.986C1043.056,1006.754 1042.576,1005.49 1042.034,1004.228C1041.584,1003.206 1041.252,1002.244 1041.042,1001.28C1040.652,999.688 1040.562,998.184 1040.652,996.74C1041.464,994.306 1042.516,992.11 1043.778,990.878C1043.988,990.666 1044.23,990.456 1044.47,990.276C1045.402,989.464 1046.544,988.742 1047.748,988.052L1047.748,988.02C1050.092,986.668 1052.708,985.496 1054.602,984.714C1056.196,984.052 1057.28,983.692 1057.28,983.692C1063.804,986.878 1070.178,1004.018 1070.57,1005.07Z" fill="#000000"/>
</g>
<path d="M1066.39,1016.827L1065.246,1017.489L1055.354,1023.231L1053.49,1024.283L1051.836,1025.247L1047.026,1028.043C1046.996,1028.043 1046.996,1028.073 1046.996,1028.073L1045.072,1029.185L1044.74,1029.365L1040.44,1031.861L1039.418,1032.433L1039.418,1032.463L1036.352,1034.177L1035.6,1034.627L1032.352,1036.491L1029.856,1035.049L1024.384,1031.891C1024.534,1029.545 1024.806,1026.779 1025.226,1024.133C1025.588,1021.879 1026.068,1019.683 1026.73,1017.969C1026.79,1017.789 1026.85,1017.639 1026.94,1017.489C1026.94,1017.429 1026.97,1017.399 1027,1017.369C1027.06,1017.187 1027.15,1017.037 1027.18,1016.857C1027.392,1016.497 1027.602,1016.105 1027.782,1015.805C1027.962,1015.535 1028.144,1015.293 1028.354,1015.023L1028.354,1014.993C1028.474,1014.843 1028.594,1014.663 1028.744,1014.511C1030.158,1012.647 1031.932,1010.783 1033.616,1009.188C1034.428,1008.438 1035.21,1007.776 1035.9,1007.174C1036.142,1006.935 1036.352,1006.755 1036.592,1006.573C1037.916,1005.43 1038.818,1004.738 1038.818,1004.738L1040.26,1005.763L1043.448,1008.016L1043.478,1008.016L1043.508,1008.047L1045.522,1009.461L1044.47,1006.482L1044.26,1005.943L1043.026,1002.424L1042.396,1000.771L1044.38,999.326L1045.822,998.305L1046.544,997.763L1048.65,996.23L1056.316,990.698L1057.58,989.794L1058.15,989.375C1058.15,989.375 1058.272,989.584 1058.512,990.036C1058.722,990.487 1058.992,991.148 1059.354,991.961C1060.616,994.846 1062.632,999.838 1064.254,1005.67L1064.254,1005.7C1064.284,1005.852 1064.344,1006.003 1064.376,1006.152C1064.436,1006.332 1064.466,1006.482 1064.526,1006.634C1065.278,1009.581 1065.908,1012.737 1066.3,1015.895C1066.33,1016.075 1066.33,1016.255 1066.36,1016.437C1066.39,1016.557 1066.39,1016.707 1066.39,1016.827Z" fill="url(#pf_0_4_630)"/>
<path d="M1058.5,990.046C1058.196,993.89 1057.396,1000.244 1055.266,1009.49C1055.19,1009.832 1055.114,1010.174 1055.038,1010.516C1055,1010.668 1054.962,1010.782 1054.924,1010.896C1054.81,1011.316 1054.734,1011.734 1054.62,1012.152C1053.288,1017.022 1051.194,1021.36 1048.874,1025.126C1048.646,1025.546 1048.38,1025.964 1048.152,1026.344C1047.77,1026.954 1047.39,1027.524 1047.01,1028.056L1045.07,1029.198C1045.83,1028.17 1046.592,1027.068 1047.352,1025.888C1047.504,1025.622 1047.694,1025.356 1047.884,1025.05C1050.244,1021.246 1052.374,1016.832 1053.744,1011.924C1053.858,1011.506 1053.972,1011.088 1054.048,1010.668C1054.086,1010.554 1054.124,1010.402 1054.162,1010.288C1054.276,1009.87 1054.352,1009.452 1054.43,1009.032C1056.56,999.824 1057.32,993.546 1057.588,989.78L1058.158,989.362L1058.5,990.046Z" fill="#369E5F"/>
<path d="M1045.818,998.284L1053.744,1011.91L1053.744,1011.918L1054.064,1012.46L1054.6,1012.166L1054.6,1012.156L1064.498,1006.64C1064.418,1006.326 1064.338,1006.004 1064.248,1005.7L1054.922,1010.902L1054.922,1010.912L1054.386,1011.206L1054.064,1010.656L1046.558,997.754L1045.818,998.284Z" fill="#369E5F"/>
<path d="M1048.874,1025.127L1055.342,1023.225L1051.842,1025.241L1048.152,1026.345L1047.694,1026.459L1047.352,1025.889L1035.9,1007.169C1036.128,1006.941 1036.356,1006.751 1036.584,1006.561L1047.884,1025.051L1048.076,1025.357L1048.874,1025.127Z" fill="#369E5F"/>
<path d="M1027.49,1017.48L1036.356,1034.182L1035.596,1034.64L1026.73,1017.974C1026.806,1017.746 1026.882,1017.556 1026.996,1017.366C1027.072,1017.174 1027.148,1017.022 1027.186,1016.87L1027.49,1017.48Z" fill="#FFFFFF"/>
<path d="M1067.416,1017.482L1053.8,1090.748L1010.542,1090.748L996.961,1017.482L1067.416,1017.482Z" fill="url(#pf_0_4_640)"/>
<g opacity="0.2">
<path d="M1066.394,1016.824L1065.262,1017.482L1067.416,1017.482L1053.8,1090.748L1028.502,1090.748C1030.436,1084.25 1036.972,1060.886 1039.416,1032.448C1039.564,1030.77 1039.672,1029.128 1039.782,1027.484L1039.782,1027.412C1040.038,1024.162 1040.184,1020.804 1040.256,1017.482C1040.292,1016.46 1040.33,1015.402 1040.33,1014.378C1040.366,1013.868 1040.366,1013.32 1040.366,1012.772L1040.366,1012.7L1040.366,1009.998C1040.366,1008.574 1040.33,1007.188 1040.256,1005.764C1040.22,1004.084 1040.184,1002.406 1040.038,1000.726C1039.49,989.3 1037.884,977.8 1034.78,966.812C1034.634,966.228 1034.488,965.644 1034.306,965.096L1034.306,965.06C1034.196,964.696 1034.05,964.33 1033.942,963.966L1033.942,963.928C1032.7,959.84 1031.24,955.862 1029.56,951.956C1029.268,951.372 1029.05,950.786 1028.758,950.24C1028.648,949.948 1028.538,949.692 1028.428,949.436C1028.21,948.998 1028.028,948.524 1027.844,948.122C1025.362,942.39 1023.646,937.098 1022.624,932.242L1022.624,932.206C1022.478,931.658 1022.406,931.038 1022.296,930.49L1022.296,930.454C1021.42,925.89 1021.2,921.728 1021.42,917.896C1021.786,917.676 1022.186,917.494 1022.624,917.312C1022.734,917.202 1022.808,917.166 1022.916,917.166C1023.428,916.91 1023.902,916.728 1024.414,916.582C1038.176,912.2 1041.936,933.594 1042.192,934.908C1044.126,933.41 1046.39,932.608 1048.726,932.534C1049.674,932.534 1050.66,932.68 1051.646,932.936C1052.412,933.192 1053.142,933.484 1053.91,933.848C1065.592,940.054 1047.266,966.666 1062.962,979.516C1071.578,986.598 1072.016,997.148 1070.556,1005.07C1069.534,1011.166 1067.452,1015.766 1067.198,1016.35L1067.16,1016.386L1066.394,1016.824Z" fill="#FFFFFF"/>
</g>
<path d="M691.182,1086.868C691.182,1089.011 689.445,1090.748 687.302,1090.748L587.769,1090.748L587.769,1081.93C587.769,1079.787 589.506,1078.049 591.649,1078.049L691.182,1078.049Z" fill="#C9E2F4"/>
<path d="M416.316,1090.748L589.64,1090.748C595.586,1090.748 599.534,1084.594 597.054,1079.19L545.126,965.986C542.174,959.55 535.742,955.426 528.662,955.426L361.678,955.426C354.632,955.426 349.954,962.718 352.892,969.122L405.502,1083.81C407.44,1088.038 411.666,1090.748 416.316,1090.748Z" fill="url(#pf_0_4_645)"/>
<circle cx="474.904" cy="1033.329" r="14.077" fill="#FFFFFF"/>
<path d="M557.808,785.178C557.808,736.336 518.214,696.742 469.372,696.742C420.53,696.742 380.936,736.336 380.936,785.178C380.936,827.724 410.984,863.24 451.012,871.694L460.038,887.326L469.372,903.492L478.706,887.326L487.73,871.694C527.76,863.24 557.808,827.724 557.808,785.178Z" fill="url(#pf_0_4_648)"/>
<g opacity="0.2">
<path d="M549.724,822.108C554.9,810.866 557.808,798.366 557.808,785.178C557.808,780.824 557.478,776.548 556.872,772.364C547.176,786.298 531.056,795.426 512.794,795.426C483.152,795.426 459.122,771.398 459.122,741.756C459.122,723.494 468.252,707.372 482.186,697.678C478,697.07 473.724,696.742 469.372,696.742C456.184,696.742 443.682,699.65 432.44,704.826C427.266,716.068 424.358,728.568 424.358,741.756C424.358,790.598 463.952,830.192 512.794,830.192C525.98,830.192 538.482,827.284 549.724,822.108Z" fill="#FFFFFF"/>
</g>
<path d="M461.622,787.896C461.622,790.696 459.352,792.964 456.554,792.964C453.756,792.964 451.488,790.696 451.488,787.896C451.488,785.098 453.756,782.83 456.554,782.83C459.352,782.83 461.622,785.098 461.622,787.896ZM482.188,782.83C479.39,782.83 477.122,785.098 477.122,787.896C477.122,790.696 479.39,792.964 482.188,792.964C484.988,792.964 487.256,790.696 487.256,787.896C487.256,785.098 484.988,782.83 482.188,782.83ZM503.834,803.456L503.834,802.88C503.252,804.564 502.554,806.166 501.804,807.722C501.944,808.676 502.202,810.008 502.634,811.53C504.716,814.752 510.594,818.854 514.622,819.912C512.45,820.834 509.834,821.214 507.288,820.824C509.62,823.758 512.906,826.422 517.542,828.008C506.704,837.774 488.85,837.992 476.37,830.406C473.95,831.118 471.586,831.49 469.372,831.49C467.156,831.49 464.792,831.118 462.374,830.406C449.894,837.992 432.038,837.774 421.202,828.008C425.93,826.39 429.248,823.65 431.586,820.646C429.518,820.726 427.464,820.348 425.704,819.602C428.656,818.828 432.6,816.416 435.32,813.914C436.27,811.398 436.73,809.148 436.938,807.722C436.188,806.166 435.49,804.564 434.91,802.878L434.91,803.456L428.782,803.456C423.946,803.456 420.028,799.536 420.028,794.702L420.028,785.072C420.028,781.746 421.884,778.852 424.616,777.37C424.708,763.698 428.694,753.022 436.478,745.64C444.198,738.318 455.266,734.604 469.372,734.604C483.476,734.604 494.544,738.318 502.264,745.64C510.05,753.022 514.034,763.698 514.126,777.372C516.858,778.852 518.716,781.746 518.716,785.072L518.716,794.702C518.716,799.536 514.796,803.456 509.96,803.456L503.834,803.456ZM500.186,787.93C500.186,785.676 500.072,783.56 499.902,781.51C495.952,777.896 488.726,775.17 479.614,774.21C481.06,775.506 482.302,777.234 482.966,779.7C477.668,775.828 466.564,774.628 462.876,770.48L462.88,770.48C457.01,766.594 455.468,761.028 455.42,763.332C455.182,774.38 447.352,782.992 438.656,784.208C438.6,785.422 438.556,786.648 438.556,787.93C438.556,792.598 439.318,796.854 440.614,800.69C445.498,806.582 453.566,808.246 460.704,808.686C462.03,806.578 465.004,805.106 468.466,805.106C473.162,805.106 476.968,807.808 476.968,811.14C476.968,814.474 473.162,817.176 468.466,817.176C464.856,817.176 461.778,815.574 460.546,813.32C455.556,813.03 450.07,812.178 445.182,809.87C452.058,820.004 462.714,825.362 469.37,825.362C479.83,825.362 500.186,812.15 500.186,787.93ZM505.488,776.318L508.856,776.318C508.298,752.46 494.68,739.858 469.372,739.858C444.062,739.858 430.444,752.46 429.888,776.318L433.256,776.318C434.486,768.278 437.09,761.664 441.042,756.58C447.34,748.476 456.87,744.368 469.372,744.368C481.872,744.368 491.404,748.476 497.702,756.578C501.652,761.664 504.256,768.278 505.488,776.318Z" fill="#FFFFFF"/>
<circle cx="306.505" cy="865.43" r="60.819" fill="url(#pf_0_4_653)"/>
<g opacity="0.2">
<path d="M366.666,856.506C361.602,858.968 355.938,860.388 349.928,860.388C328.73,860.388 311.546,843.204 311.546,822.008C311.546,815.998 312.966,810.332 315.428,805.268C312.516,804.84 309.538,804.61 306.504,804.61C301.176,804.61 296.01,805.3 291.084,806.588C289.798,811.512 289.108,816.68 289.108,822.008C289.108,855.598 316.338,882.826 349.928,882.826C355.256,882.826 360.422,882.136 365.346,880.85C366.634,875.924 367.324,870.758 367.324,865.43C367.324,862.398 367.094,859.418 366.666,856.506Z" fill="#FFFFFF"/>
</g>
<path d="M337.842,872.472C338.762,873.362 339.086,874.702 338.688,875.92C334.256,889.46 321.504,899.27 306.51,899.27C294.884,899.27 284.252,893.398 278.052,883.744C277.786,883.328 277.286,883.13 276.81,883.266L273.002,884.35C272.174,884.586 271.4,883.838 271.61,883.004L274.906,869.902L275.554,867.31C275.762,866.474 276.798,866.18 277.416,866.778L280.64,869.902L289.042,878.034C289.66,878.634 289.4,879.676 288.572,879.914L284.364,881.114C289.406,888.246 297.6,892.562 306.51,892.562C318.534,892.562 328.756,884.702 332.3,873.85C333.072,871.484 335.996,870.686 337.784,872.416L337.842,872.472ZM335.408,847.81C329.272,837.75 318.404,831.59 306.51,831.59C291.504,831.59 278.762,841.4 274.33,854.94C273.932,856.156 274.256,857.496 275.176,858.386L275.234,858.444C277.024,860.172 279.948,859.374 280.72,857.008C284.262,846.156 294.476,838.298 306.51,838.298C315.408,838.298 323.604,842.602 328.646,849.734L324.436,850.936C323.61,851.172 323.348,852.214 323.966,852.814L332.38,860.958L335.604,864.082C336.222,864.68 337.258,864.384 337.466,863.55L338.114,860.958L341.4,847.844C341.608,847.01 340.836,846.262 340.008,846.498L335.408,847.81ZM305.954,862.952L304.062,865.824L304.062,865.86L306.498,865.86L306.498,863.056C306.498,862.372 306.604,861.654 306.604,861.654L306.568,861.654C306.568,861.654 306.306,862.426 305.954,862.952ZM324.618,865.426C324.618,875.428 316.508,883.538 306.506,883.538C296.502,883.538 288.392,875.428 288.392,865.426C288.392,855.422 296.502,847.312 306.506,847.312C316.508,847.312 324.618,855.422 324.618,865.426ZM299.64,868.804L294.312,868.804C294.4,867.192 299.448,866.438 299.448,862.53C299.448,859.866 297.222,858.692 295.172,858.692C291.912,858.692 290.756,861.39 290.756,861.39L293.034,862.916C293.034,862.916 293.7,861.584 294.892,861.584C295.54,861.584 296.24,861.952 296.24,862.828C296.24,864.632 290.826,865.456 290.826,870.084C290.826,870.504 290.878,870.942 290.966,871.432L299.64,871.432L299.64,868.804ZM311.02,865.86L309.53,865.86L309.53,858.902L305.78,858.902L300.942,866.544L300.942,868.4L306.498,868.4L306.498,871.432L309.53,871.432L309.53,868.4L311.02,868.4L311.02,865.86ZM322.022,871.432L322.022,865.58C322.022,863.038 320.602,862.196 318.78,862.196C317.588,862.196 316.536,862.74 316.028,863.634L315.992,863.634C315.992,863.634 316.028,863.318 316.028,862.864L316.028,858.902L312.996,858.902L312.996,871.432L316.028,871.432L316.028,867.438C316.028,867.016 316.064,866.63 316.186,866.28C316.45,865.492 317.062,864.948 317.99,864.948C318.656,864.948 318.99,865.3 318.99,866.14L318.99,871.432L322.022,871.432Z" fill="#FFFFFF"/>
<path d="M632.006,678.452L630.22,677.552C632.132,673.756 633.054,671.308 633.062,671.284L634.938,671.982C634.898,672.086 633.972,674.548 632.006,678.452Z" fill="#FFFFFF"/>
<path d="M577.234,726.08L576.742,724.14C580.654,723.148 584.51,721.802 588.204,720.14L589.024,721.964C585.224,723.674 581.258,725.058 577.234,726.08ZM599.936,715.902L598.822,714.24C602.12,712.036 605.338,709.504 608.39,706.72L609.738,708.196C606.614,711.05 603.314,713.642 599.936,715.902ZM618.352,699.2L616.82,697.912C619.39,694.856 621.842,691.56 624.106,688.114L625.778,689.21C623.47,692.722 620.972,696.084 618.352,699.2Z" fill="#FFFFFF"/>
<path d="M558.77,728.338C558.446,728.338 558.12,728.336 557.794,728.334L557.818,726.334C560.14,726.366 562.46,726.286 564.728,726.11L564.884,728.104C562.876,728.26 560.822,728.338 558.77,728.338Z" fill="#FFFFFF"/>
<defs>
<linearGradient id="pf_0_4_398" x1="1134.455" y1="1942.391" x2="609.573" y2="1079.91" gradientUnits="userSpaceOnUse">
<stop offset="1" stop-color="#976EF3"/>
<stop stop-color="#ABA9E9"/>
</linearGradient>
<linearGradient id="pf_0_4_400" x1="1263" y1="1702.265" x2="381.74" y2="254.184" gradientUnits="userSpaceOnUse">
<stop offset="1" stop-color="#976EF3"/>
<stop stop-color="#ABA9E9"/>
</linearGradient>
<linearGradient id="pf_0_4_402" x1="1364.504" y1="-90.439" x2="272.395" y2="2201.79" gradientUnits="userSpaceOnUse">
<stop offset="1" stop-color="#976EF3"/>
<stop stop-color="#ABA9E9"/>
</linearGradient>
<linearGradient id="pf_0_4_404" x1="1032.543" y1="2368.391" x2="461.184" y2="1429.538" gradientUnits="userSpaceOnUse">
<stop offset="1" stop-color="#976EF3"/>
<stop stop-color="#ABA9E9"/>
</linearGradient>
<linearGradient id="pf_0_4_406" x1="661.829" y1="109609175506.147" x2="661.829" y2="109609174979.940" gradientUnits="userSpaceOnUse">
<stop offset="1" stop-color="#7956D8" stop-opacity="0"/>
<stop stop-color="#7956D8"/>
</linearGradient>
<linearGradient id="pf_0_4_408" x1="1156.773" y1="1943.841" x2="922.773" y2="1559.841" gradientUnits="userSpaceOnUse">
<stop offset="1" stop-color="#7956D8" stop-opacity="0"/>
<stop stop-color="#7956D8"/>
</linearGradient>
<linearGradient id="pf_0_4_410" x1="803.158" y1="1972.871" x2="673.824" y2="1631.538" gradientUnits="userSpaceOnUse">
<stop offset="1" stop-color="#7956D8" stop-opacity="0"/>
<stop stop-color="#7956D8"/>
</linearGradient>
<linearGradient id="pf_0_4_450" x1="582.511" y1="1496.108" x2="528.707" y2="1476.224" gradientUnits="userSpaceOnUse">
<stop offset="1" stop-color="#6AD419"/>
<stop stop-color="#DBE42C"/>
</linearGradient>
<linearGradient id="pf_0_4_452" x1="500.882" y1="1420.933" x2="426.502" y2="1362.071" gradientUnits="userSpaceOnUse">
<stop offset="1" stop-color="#0B9560"/>
<stop stop-color="#4AC297"/>
</linearGradient>
<linearGradient id="pf_0_4_456" x1="91.145" y1="1464.766" x2="10.594" y2="1375.416" gradientUnits="userSpaceOnUse">
<stop offset="1" stop-color="#FB5F5C"/>
<stop stop-color="#F5995B"/>
</linearGradient>
<linearGradient id="pf_0_4_460" x1="973.953" y1="1010.059" x2="797.819" y2="485.754" gradientUnits="userSpaceOnUse">
<stop offset="1" stop-color="#EAF5FF"/>
<stop stop-color="#C9E2F4"/>
</linearGradient>
<linearGradient id="pf_0_4_462" x1="743.908" y1="576.282" x2="743.908" y2="576.282" gradientUnits="userSpaceOnUse">
<stop offset="1" stop-color="#4A4975"/>
<stop stop-color="#1D164D"/>
</linearGradient>
<linearGradient id="pf_0_4_500" x1="565.264" y1="1167.334" x2="565.264" y2="1167.334" gradientUnits="userSpaceOnUse">
<stop offset="1" stop-color="#BA6D4D"/>
<stop stop-color="#8F5138"/>
</linearGradient>
<linearGradient id="pf_0_4_502" x1="568.18" y1="1167.334" x2="568.18" y2="1167.334" gradientUnits="userSpaceOnUse">
<stop offset="1" stop-color="#BA6D4D"/>
<stop stop-color="#8F5138"/>
</linearGradient>
<linearGradient id="pf_0_4_506" x1="655.064" y1="845.358" x2="936.397" y2="1296.024" gradientUnits="userSpaceOnUse">
<stop offset="1" stop-color="#A7DF63"/>
<stop stop-color="#6BBC61"/>
</linearGradient>
<linearGradient id="pf_0_4_514" x1="530.5" y1="1064.66" x2="530.5" y2="1064.66" gradientUnits="userSpaceOnUse">
<stop offset="1" stop-color="#FFD6C7"/>
<stop stop-color="#FFC0AC"/>
</linearGradient>
<linearGradient id="pf_0_4_516" x1="770.894" y1="698.048" x2="800.007" y2="806.985" gradientUnits="userSpaceOnUse">
<stop offset="1" stop-color="#4A4975"/>
<stop stop-color="#1D164D"/>
</linearGradient>
<linearGradient id="pf_0_4_518" x1="745.739" y1="912.969" x2="925.739" y2="1197.636" gradientUnits="userSpaceOnUse">
<stop offset="1" stop-color="#EAF5FF"/>
<stop stop-color="#C9E2F4"/>
</linearGradient>
<linearGradient id="pf_0_4_520" x1="777.617" y1="744.309" x2="805.749" y2="849.576" gradientUnits="userSpaceOnUse">
<stop offset="1" stop-color="#FFD6C7"/>
<stop stop-color="#FFC0AC"/>
</linearGradient>
<linearGradient id="pf_0_4_524" x1="731.727" y1="1147.043" x2="823.577" y2="1490.74" gradientUnits="userSpaceOnUse">
<stop offset="1" stop-color="#4A4975"/>
<stop stop-color="#1D164D"/>
</linearGradient>
<linearGradient id="pf_0_4_528" x1="765.193" y1="1105.533" x2="889.192" y2="1029.034" gradientUnits="userSpaceOnUse">
<stop offset="1" stop-color="#6BBC61" stop-opacity="0"/>
<stop stop-color="#6BBC61"/>
</linearGradient>
<linearGradient id="pf_0_4_534" x1="779.124" y1="902.882" x2="899.131" y2="1024.889" gradientUnits="userSpaceOnUse">
<stop offset="1" stop-color="#6BBC61" stop-opacity="0"/>
<stop stop-color="#6BBC61"/>
</linearGradient>
<linearGradient id="pf_0_4_536" x1="678.551" y1="970.165" x2="792.051" y2="1062.665" gradientUnits="userSpaceOnUse">
<stop offset="1" stop-color="#6BBC61" stop-opacity="0"/>
<stop stop-color="#6BBC61"/>
</linearGradient>
<linearGradient id="pf_0_4_538" x1="748.902" y1="949" x2="779.125" y2="994.246" gradientUnits="userSpaceOnUse">
<stop offset="1" stop-color="#FFD6C7"/>
<stop stop-color="#FFC0AC"/>
</linearGradient>
<linearGradient id="pf_0_4_540" x1="658.952" y1="1463.967" x2="658.952" y2="1463.967" gradientUnits="userSpaceOnUse">
<stop offset="1" stop-color="#FFD6C7"/>
<stop stop-color="#FFC0AC"/>
</linearGradient>
<linearGradient id="pf_0_4_542" x1="780.625" y1="1463.967" x2="780.625" y2="1463.967" gradientUnits="userSpaceOnUse">
<stop offset="1" stop-color="#FFD6C7"/>
<stop stop-color="#FFC0AC"/>
</linearGradient>
<linearGradient id="pf_0_4_544" x1="605.99" y1="1441.441" x2="677.99" y2="1530.774" gradientUnits="userSpaceOnUse">
<stop offset="1" stop-color="#4A4975"/>
<stop stop-color="#1D164D"/>
</linearGradient>
<linearGradient id="pf_0_4_550" x1="741.211" y1="1456.633" x2="818.211" y2="1558.133" gradientUnits="userSpaceOnUse">
<stop offset="1" stop-color="#4A4975"/>
<stop stop-color="#1D164D"/>
</linearGradient>
<linearGradient id="pf_0_4_566" x1="42.064" y1="1090.748" x2="42.064" y2="1090.748" gradientUnits="userSpaceOnUse">
<stop offset="1" stop-color="#BA6D4D"/>
<stop stop-color="#8F5138"/>
</linearGradient>
<linearGradient id="pf_0_4_568" x1="44.532" y1="1109.156" x2="44.532" y2="1109.156" gradientUnits="userSpaceOnUse">
<stop offset="1" stop-color="#BA6D4D"/>
<stop stop-color="#8F5138"/>
</linearGradient>
<linearGradient id="pf_0_4_574" x1="301.731" y1="1066.036" x2="346.731" y2="1096.369" gradientUnits="userSpaceOnUse">
<stop offset="1" stop-color="#FF6C7E"/>
<stop stop-color="#FF1F5A"/>
</linearGradient>
<linearGradient id="pf_0_4_576" x1="243.096" y1="1061.961" x2="291.429" y2="1073.961" gradientUnits="userSpaceOnUse">
<stop offset="1" stop-color="#FF6C7E"/>
<stop stop-color="#FF1F5A"/>
</linearGradient>
<linearGradient id="pf_0_4_578" x1="350.253" y1="1068.057" x2="364.253" y2="1065.807" gradientUnits="userSpaceOnUse">
<stop offset="1" stop-color="#EAF5FF"/>
<stop stop-color="#C9E2F4"/>
</linearGradient>
<linearGradient id="pf_0_4_580" x1="1007.96" y1="950.941" x2="990.2" y2="950.941" gradientUnits="userSpaceOnUse">
<stop offset="1" stop-color="#A7DF63"/>
<stop stop-color="#6BBC61"/>
</linearGradient>
<linearGradient id="pf_0_4_590" x1="1032.713" y1="962.253" x2="1022.039" y2="962.253" gradientUnits="userSpaceOnUse">
<stop offset="1" stop-color="#A7DF63"/>
<stop stop-color="#6BBC61"/>
</linearGradient>
<linearGradient id="pf_0_4_592" x1="1036.737" y1="965.28" x2="1016.457" y2="965.28" gradientUnits="userSpaceOnUse">
<stop offset="1" stop-color="#A7DF63"/>
<stop stop-color="#6BBC61"/>
</linearGradient>
<linearGradient id="pf_0_4_594" x1="1035.518" y1="930.987" x2="1020.414" y2="930.987" gradientUnits="userSpaceOnUse">
<stop offset="1" stop-color="#A7DF63"/>
<stop stop-color="#6BBC61"/>
</linearGradient>
<linearGradient id="pf_0_4_596" x1="1038.577" y1="946.823" x2="1021.404" y2="946.823" gradientUnits="userSpaceOnUse">
<stop offset="1" stop-color="#A7DF63"/>
<stop stop-color="#6BBC61"/>
</linearGradient>
<linearGradient id="pf_0_4_600" x1="1037.488" y1="994.829" x2="980.425" y2="994.829" gradientUnits="userSpaceOnUse">
<stop offset="1" stop-color="#A7DF63"/>
<stop stop-color="#6BBC61"/>
</linearGradient>
<linearGradient id="pf_0_4_618" x1="1016.609" y1="1014.321" x2="1002.113" y2="1014.321" gradientUnits="userSpaceOnUse">
<stop offset="1" stop-color="#A7DF63"/>
<stop stop-color="#6BBC61"/>
</linearGradient>
<linearGradient id="pf_0_4_620" x1="1014.891" y1="1013.776" x2="999.659" y2="1013.776" gradientUnits="userSpaceOnUse">
<stop offset="1" stop-color="#A7DF63"/>
<stop stop-color="#6BBC61"/>
</linearGradient>
<linearGradient id="pf_0_4_622" x1="1025.474" y1="1020.903" x2="1017.941" y2="1020.903" gradientUnits="userSpaceOnUse">
<stop offset="1" stop-color="#A7DF63"/>
<stop stop-color="#6BBC61"/>
</linearGradient>
<linearGradient id="pf_0_4_624" x1="1071.206" y1="980.955" x2="1035.506" y2="980.955" gradientUnits="userSpaceOnUse">
<stop offset="1" stop-color="#A7DF63"/>
<stop stop-color="#6BBC61"/>
</linearGradient>
<linearGradient id="pf_0_4_630" x1="1066.39" y1="1012.933" x2="1024.385" y2="1012.933" gradientUnits="userSpaceOnUse">
<stop offset="1" stop-color="#A7DF63"/>
<stop stop-color="#6BBC61"/>
</linearGradient>
<linearGradient id="pf_0_4_640" x1="1049.74" y1="1025.795" x2="1006.562" y2="1075.994" gradientUnits="userSpaceOnUse">
<stop offset="1" stop-color="#4A4975"/>
<stop stop-color="#1D164D"/>
</linearGradient>
<linearGradient id="pf_0_4_645" x1="-61.583" y1="933.692" x2="-206.206" y2="1148.863" gradientUnits="userSpaceOnUse">
<stop offset="1" stop-color="#C9E2F4"/>
<stop stop-color="#EAF5FF"/>
</linearGradient>
<linearGradient id="pf_0_4_648" x1="380.936" y1="696.742" x2="380.936" y2="696.742" gradientUnits="userSpaceOnUse">
<stop offset="1" stop-color="#FFB965"/>
<stop stop-color="#FF8A5F"/>
</linearGradient>
<linearGradient id="pf_0_4_653" x1="273.694" y1="931.893" x2="400.704" y2="674.617" gradientUnits="userSpaceOnUse">
<stop offset="1" stop-color="#A7DF63"/>
<stop stop-color="#6BBC61"/>
</linearGradient>
</defs>
</svg>
