<svg width="1642" height="1536" viewBox="0 0 1642 1536" fill="none" xmlns="http://www.w3.org/2000/svg" xmlns:xlink="http://www.w3.org/1999/xlink">
<g opacity="0.3">
<path d="M1642,1318.64L1642,1536L989.2,1536C989.2,1407.6 438.1,1319.28 434.12,1318.64L1642,1318.64Z" fill="url(#pf_0_4_736)"/>
</g>
<g opacity="0.3">
<path d="M1642,0L1642,1036.94L133.14,1036.94C133.14,1036.88 133.12,1036.8 133.12,1036.74C98.88,789.6 161.52,743.86 201.7,575.84C212.74,529.72 222.06,474.36 227.24,403.08C228.9,380.3 229.24,358.76 228.44,338.38C222.82,193.4 159.78,107.36 101.24,58.32C48.4,14.08 -0.76,0 -0.76,0L1642,0Z" fill="url(#pf_0_4_738)"/>
</g>
<path d="M1642,0L1642,1536L1139.66,1536C942.32,1291.98 653.22,1342.38 434.12,1318.64L434.1,1318.64C313.78,1305.62 214.58,1270.22 163.24,1151.48C146.18,1112.04 136.74,1073.98 133.14,1036.94C133.14,1036.88 133.12,1036.8 133.12,1036.74C117.84,879.18 208.42,740.32 270.3,593.3C300.38,521.84 323.68,448.48 324.74,370.08C324.9,358.4 324.56,346.62 323.68,334.7C303,54.14 136.92,4.54 120.54,0.32C119.68,0.1 119.24,0 119.24,0L1642,0Z" fill="url(#pf_0_4_740)"/>
<path d="M1642,1179.14L1642,1536L1139.66,1536C1096.68,1482.84 1049.34,1443.66 999.32,1414.64C969.4,1397.28 938.52,1383.56 907.04,1372.64C856.34,1355.08 804.06,1344.84 751.72,1338.5C727.12,1335.52 702.5,1333.4 678.02,1331.8C600.6,1326.72 524.56,1326.74 454.86,1320.66L454.84,1320.66C447.88,1320.06 440.96,1319.38 434.12,1318.64L434.1,1318.64C418.1,1316.92 402.46,1314.78 387.28,1312.12C344.8,1304.66 305.74,1292.98 271.46,1273.94C233.42,1252.84 201.24,1222.66 176.88,1179.14L1642,1179.14Z" fill="url(#pf_0_4_742)"/>
<g opacity="0.2">
<path d="M346.7,1179.142L359.568,1179.142C359.27,1178.848 323.268,1142.324 292.026,1089.2C263.238,1040.25 221.874,961.298 214.122,861.164L210.092,861.476C217.996,963.562 254.662,1044.432 284.028,1094.298C315.884,1148.388 345.456,1177.91 346.7,1179.142Z" fill="#FFFFFF"/>
<path d="M214.122,861.164C214.122,861.164 236.328,845.312 210.092,809.296C210.092,809.296 188.94,839.728 210.092,861.476L214.122,861.164Z" fill="#FFFFFF"/>
<path d="M214.858,900.688C214.858,900.688 241.77,905.182 248.684,861.164C248.684,861.164 215.28,870.352 214.858,900.688Z" fill="#FFFFFF"/>
<path d="M214.858,900.688C214.858,900.688 187.948,905.182 181.032,861.164C181.032,861.164 214.438,870.352 214.858,900.688Z" fill="#FFFFFF"/>
<path d="M225.39,943.328C225.39,943.328 252.658,944.264 253.754,899.718C253.754,899.718 221.838,913.198 225.39,943.328Z" fill="#FFFFFF"/>
<path d="M225.39,943.328C225.39,943.328 199.3,951.304 186.684,908.568C186.684,908.568 221.004,913.308 225.39,943.328Z" fill="#FFFFFF"/>
<path d="M234.394,981.24C234.394,981.24 261.662,982.174 262.758,937.63C262.758,937.63 230.842,951.11 234.394,981.24Z" fill="#FFFFFF"/>
<path d="M234.394,981.24C234.394,981.24 208.304,989.216 195.688,946.48C195.688,946.48 230.008,951.22 234.394,981.24Z" fill="#FFFFFF"/>
<path d="M251.27,1021.842C251.27,1021.842 278.224,1017.618 270.904,973.666C270.904,973.666 242.102,992.922 251.27,1021.842Z" fill="#FFFFFF"/>
<path d="M251.27,1021.842C251.27,1021.842 227.15,1034.594 206.706,995.002C206.706,995.002 241.304,993.188 251.27,1021.842Z" fill="#FFFFFF"/>
<path d="M270.104,1061.102C270.104,1061.102 296.962,1056.302 288.698,1012.516C288.698,1012.516 260.316,1032.386 270.104,1061.102Z" fill="#FFFFFF"/>
<path d="M270.104,1061.102C270.104,1061.102 246.264,1074.368 224.972,1035.226C224.972,1035.226 259.524,1032.668 270.104,1061.102Z" fill="#FFFFFF"/>
<path d="M295.85,1109.052C295.85,1109.052 322.382,1102.696 311.586,1059.466C311.586,1059.466 284.408,1080.954 295.85,1109.052Z" fill="#FFFFFF"/>
<path d="M295.85,1109.052C295.85,1109.052 272.822,1123.682 249.29,1085.844C249.29,1085.844 283.634,1081.282 295.85,1109.052Z" fill="#FFFFFF"/>
</g>
<g opacity="0.2">
<path d="M439.312,1063.402C439.292,1063.442 439.252,1063.462 439.232,1063.482C418.012,1078.562 416.152,1090.762 416.152,1090.882C416.032,1091.802 415.232,1092.482 414.332,1092.482C414.252,1092.482 414.172,1092.482 414.092,1092.462C413.092,1092.342 412.392,1091.442 412.512,1090.442C412.572,1089.882 414.372,1076.642 437.112,1060.482C437.572,1060.142 438.152,1060.082 438.652,1060.222C435.592,1045.162 433.372,1029.822 438.832,1016.862C451.032,987.802 435.532,948.142 407.432,934.702C379.352,921.282 404.992,869.982 380.572,846.442C356.152,822.902 331.732,839.462 331.732,891.802C331.732,944.142 263.332,950.582 286.532,974.222C309.732,997.882 362.252,999.442 350.032,1059.462C339.032,1113.582 394.552,1125.302 405.552,1127.082C395.812,1045.842 357.192,886.602 356.812,885.002L360.372,884.142C360.752,885.722 399.032,1043.542 409.032,1125.362L405.612,1125.782L405.772,1127.102C406.832,1127.282 407.432,1127.342 407.432,1127.342C407.432,1127.342 408.212,1127.562 409.552,1127.782C415.312,1128.682 431.592,1129.302 441.112,1110.222C447.232,1097.962 443.012,1080.982 439.312,1063.402ZM363.012,1039.782C363.192,1039.062 363.912,1038.642 364.632,1038.822C379.212,1042.582 385.412,1054.322 385.672,1054.822C386.012,1055.462 385.752,1056.262 385.112,1056.602C384.912,1056.702 384.712,1056.742 384.492,1056.742C384.012,1056.742 383.552,1056.482 383.332,1056.022C383.272,1055.922 377.372,1044.822 363.972,1041.382C363.252,1041.202 362.832,1040.482 363.012,1039.782ZM362.532,976.282C363.192,977.042 363.092,978.202 362.312,978.862C361.972,979.142 361.552,979.282 361.132,979.282C360.612,979.282 360.092,979.062 359.732,978.642C359.612,978.482 347.092,964.022 323.292,964.022C322.272,964.022 321.452,963.202 321.452,962.182C321.452,961.182 322.272,960.362 323.292,960.362C348.872,960.362 361.992,975.622 362.532,976.282ZM404.252,1006.622C404.312,1007.502 403.632,1008.242 402.772,1008.282L402.672,1008.282C401.852,1008.282 401.152,1007.642 401.112,1006.782C401.052,1005.742 399.932,981.142 416.172,964.502C416.792,963.882 417.792,963.862 418.412,964.462C419.032,965.082 419.052,966.082 418.432,966.702C403.152,982.362 404.252,1006.382 404.252,1006.622Z" fill="#FFFFFF"/>
<path d="M415.611,1178.702L411.971,1179.142L405.811,1127.542L405.771,1127.102L405.611,1125.782L409.031,1125.362L409.251,1125.342L409.551,1127.782L415.611,1178.702Z" fill="#FFFFFF"/>
<path d="M409.252,1127.122L407.432,1127.342L405.812,1127.542L405.612,1127.562L405.552,1127.082C405.632,1127.082 405.712,1127.102 405.772,1127.102L405.612,1125.782L409.032,1125.362C409.112,1125.962 409.192,1126.542 409.252,1127.122Z" fill="#FFFFFF"/>
</g>
<g opacity="0.2">
<circle cx="1349.899" cy="292.099" r="6.741" fill="#FFFFFF"/>
<circle cx="1421.239" cy="292.099" r="6.741" fill="#FFFFFF"/>
<circle cx="1492.578" cy="292.099" r="6.741" fill="#FFFFFF"/>
<circle cx="1349.899" cy="220.761" r="6.741" fill="#FFFFFF"/>
<circle cx="1421.239" cy="220.761" r="6.741" fill="#FFFFFF"/>
<circle cx="1492.578" cy="220.761" r="6.741" fill="#FFFFFF"/>
<circle cx="1349.899" cy="149.42" r="6.741" fill="#FFFFFF"/>
<circle cx="1421.239" cy="149.42" r="6.741" fill="#FFFFFF"/>
<circle cx="1492.578" cy="149.42" r="6.741" fill="#FFFFFF"/>
<circle cx="1349.899" cy="78.082" r="6.741" fill="#FFFFFF"/>
<circle cx="1421.239" cy="78.082" r="6.741" fill="#FFFFFF"/>
<circle cx="1492.578" cy="78.082" r="6.741" fill="#FFFFFF"/>
<circle cx="1349.899" cy="6.741" r="6.741" fill="#FFFFFF"/>
<circle cx="1421.239" cy="6.741" r="6.741" fill="#FFFFFF"/>
<circle cx="1492.578" cy="6.741" r="6.741" fill="#FFFFFF"/>
<circle cx="1563.918" cy="292.099" r="6.741" fill="#FFFFFF"/>
<circle cx="1635.259" cy="292.099" r="6.741" fill="#FFFFFF"/>
<circle cx="1563.918" cy="220.761" r="6.741" fill="#FFFFFF"/>
<circle cx="1635.259" cy="220.761" r="6.741" fill="#FFFFFF"/>
<circle cx="1563.918" cy="149.42" r="6.741" fill="#FFFFFF"/>
<circle cx="1635.259" cy="149.42" r="6.741" fill="#FFFFFF"/>
<circle cx="1563.918" cy="78.082" r="6.741" fill="#FFFFFF"/>
<circle cx="1635.259" cy="78.082" r="6.741" fill="#FFFFFF"/>
<circle cx="1563.918" cy="6.741" r="6.741" fill="#FFFFFF"/>
<circle cx="1635.259" cy="6.741" r="6.741" fill="#FFFFFF"/>
</g>
<path d="M663.92,1179.14L387.28,1312.12C344.8,1304.66 305.74,1292.98 271.46,1273.94L616.4,1179.14L663.92,1179.14Z" fill="url(#pf_0_4_803)"/>
<path d="M731.1,1179.14L678.02,1331.8C600.6,1326.72 524.56,1326.74 454.86,1320.66L683.58,1179.14L731.1,1179.14Z" fill="url(#pf_0_4_805)"/>
<path d="M1002,1179.14L907.04,1372.64C856.34,1355.08 804.06,1344.84 751.72,1338.5L969.6,1179.14L969.74,1179.04L969.74,1179.14L1002,1179.14Z" fill="url(#pf_0_4_807)"/>
<path d="M1171.84,1536L1139.66,1536C1096.68,1482.84 1049.34,1443.66 999.32,1414.64L1059.18,1179.14L1059.2,1179.04L1059.2,1179.14L1091.46,1179.14L1171.84,1536Z" fill="url(#pf_0_4_809)"/>
<g opacity="0.2">
<path d="M1055.587,1318.64C1055.587,1321.859 1045.835,1324.469 1033.806,1324.469C1021.776,1324.469 1012.025,1321.859 1012.025,1318.64C1012.025,1315.421 1021.776,1312.811 1033.806,1312.811C1045.835,1312.811 1055.587,1315.421 1055.587,1318.64Z" fill="#FFFFFF"/>
<path d="M1282.654,1353.422C1282.654,1358.669 1266.76,1362.922 1247.154,1362.922C1227.547,1362.922 1211.654,1358.669 1211.654,1353.422C1211.654,1348.175 1227.547,1343.922 1247.154,1343.922C1266.76,1343.922 1282.654,1348.175 1282.654,1353.422Z" fill="#FFFFFF"/>
<path d="M809.008,1289.768C809.008,1291.001 805.274,1292 800.668,1292C796.063,1292 792.329,1291.001 792.329,1289.768C792.329,1288.536 796.063,1287.537 800.668,1287.537C805.274,1287.537 809.008,1288.536 809.008,1289.768Z" fill="#FFFFFF"/>
<path d="M1262.977,1241.82C1262.977,1247.066 1247.083,1251.32 1227.477,1251.32C1207.871,1251.32 1191.977,1247.066 1191.977,1241.82C1191.977,1236.573 1207.871,1232.32 1227.477,1232.32C1247.083,1232.32 1262.977,1236.573 1262.977,1241.82Z" fill="#FFFFFF"/>
<path d="M1161.626,1453.139C1161.626,1457.511 1148.381,1461.055 1132.043,1461.055C1115.704,1461.055 1102.459,1457.511 1102.459,1453.139C1102.459,1448.766 1115.704,1445.222 1132.043,1445.222C1148.381,1445.222 1161.626,1448.766 1161.626,1453.139Z" fill="#FFFFFF"/>
<path d="M1579.752,1392.698C1579.752,1402.9 1548.848,1411.17 1510.727,1411.17C1472.606,1411.17 1441.702,1402.9 1441.702,1392.698C1441.702,1382.497 1472.606,1374.227 1510.727,1374.227C1548.848,1374.227 1579.752,1382.497 1579.752,1392.698Z" fill="#FFFFFF"/>
<path d="M1501.768,1233.783C1501.768,1238.221 1488.322,1241.82 1471.735,1241.82C1455.148,1241.82 1441.702,1238.221 1441.702,1233.783C1441.702,1229.344 1455.148,1225.746 1471.735,1225.746C1488.322,1225.746 1501.768,1229.344 1501.768,1233.783Z" fill="#FFFFFF"/>
<path d="M932.956,1226.639C932.956,1230.584 921.004,1233.783 906.259,1233.783C891.515,1233.783 879.563,1230.584 879.563,1226.639C879.563,1222.693 891.515,1219.495 906.259,1219.495C921.004,1219.495 932.956,1222.693 932.956,1226.639Z" fill="#FFFFFF"/>
<path d="M632.688,1218.758C632.688,1223.11 619.503,1226.639 603.238,1226.639C586.974,1226.639 573.788,1223.11 573.788,1218.758C573.788,1214.405 586.974,1210.877 603.238,1210.877C619.503,1210.877 632.688,1214.405 632.688,1218.758Z" fill="#FFFFFF"/>
<path d="M497.662,1272.61C497.662,1280.51 473.73,1286.915 444.208,1286.915C414.687,1286.915 390.755,1280.51 390.755,1272.61C390.755,1264.71 414.687,1258.306 444.208,1258.306C473.73,1258.306 497.662,1264.71 497.662,1272.61Z" fill="#FFFFFF"/>
</g>
<rect  x="451.858" y="591.995" width="862.768" height="549.599" fill="url(#pf_0_4_820)"/>
<rect  x="546.094" y="641.54" width="674.294" height="450.509" rx="29.161" fill="#FFFFFF"/>
<path d="M1220.388,670.7C1220.388,654.596 1207.332,641.54 1191.228,641.54L575.254,641.54C559.15,641.54 546.094,654.596 546.094,670.7L546.094,682.69L1220.388,682.69L1220.388,670.7Z" fill="#50A4FF"/>
<circle cx="1112.11" cy="662.116" r="6.782" fill="#F43434"/>
<circle cx="1137.119" cy="662.116" r="6.782" fill="#FEC40C"/>
<circle cx="1162.127" cy="662.116" r="6.782" fill="#42FCEA"/>
<rect  x="585.076" y="711.984" width="277.133" height="169.517" fill="#E8F1F8"/>
<rect  x="883.733" y="711.984" width="154.238" height="169.517" fill="#E8F1F8"/>
<rect  x="1058.368" y="822.664" width="78.751" height="14.772" rx="7.386" fill="#E8F1F8"/>
<rect  x="1058.368" y="866.73" width="124.944" height="14.772" rx="7.386" fill="#E8F1F8"/>
<rect  x="1058.368" y="756.05" width="78.751" height="14.772" rx="7.386" fill="#E8F1F8"/>
<rect  x="1058.368" y="789.357" width="37.439" height="14.772" rx="7.386" fill="#E8F1F8"/>
<rect  x="1058.368" y="711.984" width="124.944" height="14.772" rx="7.386" fill="#E8F1F8"/>
<rect  x="585.562" y="911.03" width="597.75" height="142.212" fill="#E8F1F8"/>
<circle cx="884.437" cy="982.136" r="29.65" fill="#FEC40C"/>
<path d="M874.574,982.136L874.574,973.264C874.574,971.586 876.39,970.536 877.844,971.376L885.528,975.812L893.212,980.248C894.664,981.086 894.664,983.186 893.212,984.024L885.528,988.46L877.844,992.896C876.39,993.736 874.574,992.686 874.574,991.008L874.574,982.136Z" fill="#FFFFFF"/>
<path d="M1313.436,523.358L453.048,523.358C439.114,523.358 427.818,534.652 427.818,548.586L427.818,1153.914C427.818,1167.846 439.114,1179.142 453.048,1179.142L1313.434,1179.142C1327.368,1179.142 1338.664,1167.846 1338.664,1153.912L1338.664,548.586C1338.664,534.652 1327.368,523.358 1313.436,523.358ZM1314.626,1141.594L451.858,1141.594L451.858,591.996L1314.626,591.996L1314.626,1141.594Z" fill="url(#pf_0_4_839)"/>
<circle cx="1115.718" cy="560.904" r="12.157" fill="#FF6382"/>
<circle cx="1160.546" cy="560.904" r="12.157" fill="#FEC40C"/>
<circle cx="1205.375" cy="560.904" r="12.157" fill="#10C392"/>
<path d="M1597.322,513.43L1597.322,1111.244C1597.322,1148.748 1566.908,1179.142 1529.424,1179.142L1340.614,1179.142C1303.108,1179.142 1272.716,1148.748 1272.716,1111.244L1272.716,511.754C1273.956,509.998 1275.32,508.322 1276.788,506.73L1592.112,506.73C1594.034,508.818 1595.792,511.052 1597.322,513.43Z" fill="url(#pf_0_4_844)"/>
<path d="M1597.322,513.43C1595.792,511.052 1594.034,508.818 1592.112,506.73C1582.518,496.248 1568.728,489.694 1553.406,489.694L1315.492,489.694C1301.826,489.694 1289.338,494.924 1280.014,503.506C1278.898,504.538 1277.802,505.614 1276.788,506.73C1275.32,508.322 1273.956,509.998 1272.716,511.754C1266.574,520.336 1262.978,530.858 1262.978,542.21L1262.978,1126.626C1262.978,1155.634 1286.486,1179.142 1315.492,1179.142L1553.406,1179.142C1582.414,1179.142 1605.922,1155.634 1605.922,1126.626L1605.922,542.21C1605.922,531.582 1602.78,521.7 1597.322,513.43ZM1315.492,1162.084C1295.934,1162.084 1280.014,1146.184 1280.014,1126.626L1280.014,542.21C1280.014,522.65 1295.934,506.73 1315.492,506.73L1338.876,506.73L1339.808,507.868C1341.688,510.204 1342.93,512.954 1343.674,515.87C1345.37,522.486 1351.366,527.364 1358.498,527.364L1510.402,527.364C1517.534,527.364 1523.53,522.486 1525.226,515.87C1525.97,512.954 1527.21,510.204 1529.092,507.868L1530.022,506.73L1553.406,506.73C1572.966,506.73 1588.886,522.65 1588.886,542.21L1588.886,1126.626C1588.886,1146.184 1572.966,1162.084 1553.406,1162.084L1315.492,1162.084Z" fill="url(#pf_0_4_846)"/>
<path d="M1508.66,1146.234L1360.226,1146.234C1359.084,1146.234 1358.158,1145.308 1358.158,1144.166C1358.158,1143.022 1359.084,1142.098 1360.226,1142.098L1508.66,1142.098C1509.8,1142.098 1510.726,1143.022 1510.726,1144.166C1510.726,1145.308 1509.8,1146.234 1508.66,1146.234Z" fill="#CDD9FF"/>
<rect  x="1292.315" y="571.32" width="284.268" height="266.116" rx="10.338" fill="#FFFFFF"/>
<rect  x="1313.56" y="724.306" width="242.349" height="14.877" fill="#EAF5FF"/>
<rect  x="1313.56" y="765.657" width="141.665" height="7.439" fill="#EAF5FF"/>
<rect  x="1313.56" y="784.265" width="104.798" height="7.439" fill="#EAF5FF"/>
<rect  x="1313.56" y="800.805" width="60.685" height="7.439" fill="#EAF5FF"/>
<rect  x="1313.56" y="591.995" width="242.917" height="111.953" rx="12.744" fill="#EAF5FF"/>
<circle cx="1435.018" cy="647.972" r="29.65" fill="#EF4B4B"/>
<path d="M1425.154,647.972L1425.154,639.1C1425.154,637.422 1426.972,636.372 1428.426,637.212L1436.108,641.648L1443.792,646.084C1445.246,646.922 1445.246,649.022 1443.792,649.86L1436.108,654.296L1428.426,658.732C1426.972,659.572 1425.154,658.522 1425.154,656.844L1425.154,647.972Z" fill="#FFFFFF"/>
<rect  x="1292.315" y="860.333" width="284.268" height="59.805" rx="10.338" fill="#FFFFFF"/>
<rect  x="1301.568" y="869.56" width="41.351" height="41.351" rx="10.338" fill="#FEC40C"/>
<path d="M1315.44,890.236L1315.44,884.116C1315.44,882.958 1316.692,882.234 1317.696,882.812L1322.996,885.872L1328.296,888.932C1329.3,889.512 1329.3,890.96 1328.296,891.538L1322.996,894.598L1317.696,897.658C1316.692,898.238 1315.44,897.514 1315.44,896.356L1315.44,890.236Z" fill="#FFFFFF"/>
<rect  x="1363.595" y="873.585" width="185.78" height="6.482" fill="#EAF5FF"/>
<rect  x="1363.595" y="886.995" width="185.78" height="6.482" fill="#EAF5FF"/>
<rect  x="1363.595" y="900.404" width="185.78" height="6.482" fill="#EAF5FF"/>
<path d="M1566.246,943.036L1302.654,943.036C1296.968,943.036 1292.316,947.688 1292.316,953.374L1292.316,992.502C1292.316,997.432 1295.812,1001.584 1300.446,1002.602C1301.756,1002.89 1302.654,1004.104 1302.654,1005.444L1302.654,1014.782C1302.654,1015.826 1303.916,1016.348 1304.652,1015.608L1316.526,1003.706C1317.078,1003.152 1317.826,1002.84 1318.608,1002.84L1566.246,1002.84C1571.932,1002.84 1576.584,998.188 1576.584,992.502L1576.584,953.374C1576.584,947.688 1571.932,943.036 1566.246,943.036Z" fill="#FFFFFF"/>
<circle cx="1322.244" cy="972.127" r="20.676" fill="#4099F1"/>
<path d="M1322.244,972.128C1325.172,972.128 1327.542,969.758 1327.542,966.83C1327.542,963.902 1325.172,961.532 1322.244,961.532C1319.316,961.532 1316.946,963.902 1316.946,966.83C1316.946,969.758 1319.316,972.128 1322.244,972.128ZM1325.878,973.642L1325.484,973.642C1324.5,974.114 1323.408,974.398 1322.244,974.398C1321.08,974.398 1319.992,974.114 1319.004,973.642L1318.612,973.642C1315.602,973.642 1313.162,976.082 1313.162,979.09L1313.162,980.454C1313.162,981.706 1314.178,982.724 1315.432,982.724L1329.056,982.724C1330.31,982.724 1331.326,981.706 1331.326,980.454L1331.326,979.09C1331.326,976.082 1328.886,973.642 1325.878,973.642Z" fill="#FFFFFF"/>
<rect  x="1363.595" y="956.287" width="95.271" height="6.482" fill="#EAF5FF"/>
<rect  x="1363.595" y="969.697" width="95.271" height="6.482" fill="#EAF5FF"/>
<rect  x="1363.595" y="983.107" width="95.271" height="6.482" fill="#EAF5FF"/>
<path d="M1302.654,1025.738L1566.246,1025.738C1571.932,1025.738 1576.584,1030.39 1576.584,1036.076L1576.584,1075.206C1576.584,1080.134 1573.088,1084.286 1568.454,1085.304C1567.144,1085.592 1566.246,1086.806 1566.246,1088.148L1566.246,1097.484C1566.246,1098.528 1564.984,1099.05 1564.246,1098.312L1552.374,1086.408C1551.822,1085.854 1551.072,1085.544 1550.292,1085.544L1302.654,1085.544C1296.968,1085.544 1292.316,1080.89 1292.316,1075.206L1292.316,1036.076C1292.316,1030.39 1296.968,1025.738 1302.654,1025.738Z" fill="#4099F1"/>
<circle cx="1546.655" cy="1054.83" r="20.676" fill="#FFFFFF"/>
<path d="M1546.656,1054.83C1549.584,1054.83 1551.954,1052.46 1551.954,1049.532C1551.954,1046.604 1549.584,1044.234 1546.656,1044.234C1543.728,1044.234 1541.358,1046.604 1541.358,1049.532C1541.358,1052.46 1543.728,1054.83 1546.656,1054.83ZM1550.288,1056.344L1549.896,1056.344C1548.912,1056.816 1547.818,1057.1 1546.656,1057.1C1545.492,1057.1 1544.404,1056.816 1543.414,1056.344L1543.022,1056.344C1540.014,1056.344 1537.572,1058.784 1537.572,1061.792L1537.572,1063.156C1537.572,1064.408 1538.59,1065.426 1539.844,1065.426L1553.468,1065.426C1554.72,1065.426 1555.738,1064.408 1555.738,1063.156L1555.738,1061.792C1555.738,1058.784 1553.296,1056.344 1550.288,1056.344Z" fill="#4099F1"/>
<g opacity="0.2">
<rect  x="1410.034" y="1038.989" width="95.271" height="6.482" fill="#FFFFFF"/>
<rect  x="1410.034" y="1052.399" width="95.271" height="6.482" fill="#FFFFFF"/>
<rect  x="1410.034" y="1065.809" width="95.271" height="6.482" fill="#FFFFFF"/>
</g>
<g opacity="0.1">
<path d="M-0.76,0C-0.76,0 48.4,14.08 101.24,58.32C105.4,38.02 111.94,18.6 120.54,0.32C120.58,0.22 120.64,0.12 120.7,0L-0.76,0ZM228.44,338.38C229.24,358.76 228.9,380.3 227.24,403.08C222.06,474.36 212.74,529.72 201.7,575.84C223.9,583.26 246.8,589.1 270.3,593.3C300.38,521.84 323.68,448.48 324.74,370.08C290.08,365.86 257.52,354.84 228.44,338.38Z" fill="url(#pf_0_4_882)"/>
</g>
<g opacity="0.1">
<path d="M833.62,0L592.64,0C608.58,33.74 617.48,71.44 617.48,111.22C617.48,255.26 500.7,372.02 356.66,372.02C345.86,372.02 335.2,371.36 324.74,370.08C323.68,448.48 300.38,521.84 270.3,593.3C298.34,598.28 327.2,600.88 356.66,600.88C627.1,600.88 846.32,381.64 846.32,111.22C846.32,72.96 841.94,35.72 833.62,0Z" fill="#FFFFFF"/>
</g>
<path d="M738.87,772.05L719.168,772.05L715.866,854.416L611.072,854.416L611.072,835.418L600.124,838.59C585.854,842.722 572.242,830.284 575.118,815.694L590.794,736.096C593.436,722.572 603.234,711.58 616.354,707.364L646.344,697.736L676.74,699.802L707.07,709.962C716.464,713.092 723.726,720.632 726.538,730.154L738.87,772.05Z" fill="url(#pf_0_4_886)"/>
<path d="M655.27,818.644L653.14,804.532C653.14,804.532 657.488,803.29 662.28,799.562C667.072,795.836 674.27,795.302 677.328,798.232C680.386,801.16 679.212,813.132 679.212,813.132L677.2,819.076C677.2,819.076 675.77,821.372 670.312,820.44C664.854,819.508 662.458,818.644 655.27,818.644Z" fill="url(#pf_0_4_888)"/>
<path d="M643.954,682.192C643.954,682.192 642.622,678.464 629.576,670.344C616.53,662.224 614.978,640.88 633.97,640.524C633.97,640.524 627.758,626.502 646.216,622.42C664.676,618.338 679.586,594.198 690.058,600.942C700.532,607.688 690.236,643.364 679.054,650.286C667.872,657.21 643.858,677.286 643.954,682.192Z" fill="url(#pf_0_4_890)"/>
<path d="M646.352,697.726L641.024,673.14C641.024,673.14 627.846,667.548 631.306,660.626C634.768,653.704 643.688,661.424 644.354,665.952C644.354,665.952 652.074,655.256 646.572,643.542C646.572,643.542 672.842,650.996 678.876,633.958C678.876,633.958 686.508,678.154 684.556,684.366C682.604,690.578 675.858,689.602 675.858,689.602L676.746,699.808C676.746,699.808 679.586,711.878 664.676,710.458C649.766,709.038 646.352,697.726 646.352,697.726Z" fill="url(#pf_0_4_892)"/>
<path d="M675.858,689.602C675.858,689.602 662.324,688.716 655.802,682.192C655.802,682.192 659.28,694.034 676.244,694.034L675.858,689.602Z" fill="#1D164D"/>
<path d="M611.072,854.412L611.072,1157.576L636.632,1157.576L663.789,983.45L678.166,1157.576L703.726,1157.576L715.869,854.412L611.072,854.412Z" fill="url(#pf_0_4_896)"/>
<path d="M715.868,854.412C691.27,854.412 688.018,837.814 679.232,843.404C670.446,848.996 671.51,844.736 665.386,841.008C659.262,837.28 651.808,842.34 641.424,845.002C631.04,847.664 630.42,842.872 636.81,836.482C643.2,830.092 655.27,818.644 655.27,818.644L611.072,835.418L611.072,854.416L715.866,854.416L715.868,854.412Z" fill="#FF8A5F"/>
<path d="M653.14,804.532L616.664,804.532L634.902,748.088C634.902,748.088 631.04,777.642 634.102,788.424C637.164,799.208 642.134,791.398 646.926,795.836C651.72,800.272 646.04,801.516 653.14,804.532Z" fill="#FF8A5F"/>
<path d="M775.26,852.68L772.026,847.044C770.84,844.98 768.642,843.706 766.262,843.706L677.534,843.706C673.274,843.706 670.276,839.524 671.642,835.492L693.484,770.976C694.992,766.526 699.166,763.53 703.864,763.53L830.19,763.53C833.432,763.53 835.714,766.714 834.676,769.784L811.512,838.198C810.398,841.49 807.308,843.706 803.832,843.706L790.864,843.706C788.954,843.706 787.138,844.528 785.876,845.964L779.586,853.114C778.376,854.49 776.172,854.268 775.26,852.68Z" fill="url(#pf_0_4_902)"/>
<path d="M811.512,838.198L829.62,784.714C822.394,794.924 804.066,800.218 801.79,806.406C798.946,814.136 805.964,811.81 804.19,824.234C802.414,836.66 790.864,843.706 790.864,843.706L803.832,843.706C807.308,843.706 810.398,841.49 811.512,838.198Z" fill="#4099F1"/>
<path d="M675.286,771.068L682.766,802.632L679.212,813.132L671.904,771.692C671.766,770.66 672.57,769.742 673.61,769.742C674.408,769.742 675.102,770.292 675.286,771.068Z" fill="url(#pf_0_4_906)"/>
<g opacity="0.2">
<path d="M707.07,709.962L701.404,708.064C696.942,723.254 682.92,734.356 666.286,734.356C647.838,734.356 632.62,720.702 630.08,702.956L616.354,707.364C611.28,708.994 606.712,711.648 602.852,715.06C610.458,742.968 635.968,763.492 666.286,763.492C692.188,763.492 714.582,748.51 725.302,726.744C721.908,718.85 715.31,712.708 707.07,709.962Z" fill="#FFFFFF"/>
</g>
<path d="M827.716,790.342C827.716,790.342 826.2,796.9 816.97,799.03C807.74,801.16 797.978,805.598 801.35,812.164C803.54,816.432 820.874,814.44 825.134,808.776C829.394,803.112 827.716,790.342 827.716,790.342Z" fill="url(#pf_0_4_910)"/>
<g opacity="0.5">
<path d="M801.172,791.094L715.1,791.094C713.922,791.094 712.97,790.14 712.97,788.964C712.97,787.786 713.922,786.834 715.1,786.834L801.172,786.834C802.35,786.834 803.302,787.786 803.302,788.964C803.302,790.14 802.35,791.094 801.172,791.094Z" fill="#FFFFFF"/>
<path d="M796.124,806.004L710.052,806.004C708.874,806.004 707.922,805.05 707.922,803.874C707.922,802.696 708.874,801.744 710.052,801.744L796.124,801.744C797.302,801.744 798.254,802.696 798.254,803.874C798.254,805.05 797.302,806.004 796.124,806.004Z" fill="#FFFFFF"/>
<path d="M791.076,820.912L705.004,820.912C703.826,820.912 702.874,819.96 702.874,818.782C702.874,817.606 703.826,816.654 705.004,816.654L791.076,816.654C792.254,816.654 793.206,817.606 793.206,818.782C793.206,819.96 792.254,820.912 791.076,820.912Z" fill="#FFFFFF"/>
</g>
<path d="M677.328,913.094L663.789,983.45L668.101,1035.674L677.328,913.094Z" fill="#1D164D"/>
<g opacity="0.2">
<path d="M704.712,866.834L692.92,866.834L692.92,864.704L704.712,864.704L704.712,866.834ZM681.126,866.834L669.332,866.834L669.332,864.704L681.126,864.704L681.126,866.834ZM657.538,866.834L645.744,866.834L645.744,864.704L657.538,864.704L657.538,866.834ZM633.95,866.834L622.156,866.834L622.156,864.704L633.95,864.704L633.95,866.834Z" fill="#FFFFFF"/>
</g>
<path d="M611.072,1157.576L611.072,1173.816C611.072,1176.758 613.456,1179.142 616.398,1179.142L663.922,1179.142C665.466,1179.142 666.718,1177.89 666.718,1176.346C666.718,1174.16 665.282,1172.236 663.188,1171.612L642.5,1165.448C639.018,1164.41 636.632,1161.208 636.632,1157.576L611.072,1157.576Z" fill="url(#pf_0_4_922)"/>
<path d="M638.262,1169.324C640.376,1170.496 642.458,1169 644.47,1167.552C644.972,1167.19 645.48,1166.826 645.996,1166.49L644.678,1166.096C644.396,1166.294 644.118,1166.492 643.846,1166.688C641.946,1168.06 640.314,1169.242 638.778,1168.392C638.378,1168.17 638.322,1167.942 638.318,1167.772C638.304,1166.994 639.318,1165.83 640.688,1164.63C640.368,1164.442 640.066,1164.238 639.778,1164.01C638.358,1165.304 637.234,1166.678 637.254,1167.79C637.262,1168.24 637.446,1168.868 638.262,1169.324Z" fill="#FFFFFF"/>
<path d="M651.66,1168.176L650.586,1167.856C650.348,1168.19 650.098,1168.52 649.872,1168.818C648.858,1170.15 648.06,1171.2 648.378,1172.018C648.476,1172.272 648.724,1172.598 649.342,1172.71C649.546,1172.748 649.744,1172.764 649.938,1172.764C651.34,1172.764 652.452,1171.836 653.716,1170.782C654.262,1170.326 654.888,1169.828 655.58,1169.344L654.28,1168.958C653.832,1169.302 653.416,1169.642 653.032,1169.964C651.7,1171.076 650.73,1171.89 649.532,1171.662C649.436,1171.646 649.386,1171.624 649.372,1171.624C649.344,1171.276 650.202,1170.146 650.718,1169.464C651.044,1169.036 651.368,1168.604 651.66,1168.176Z" fill="#FFFFFF"/>
<path d="M678.164,1157.576L678.164,1173.816C678.164,1176.758 680.548,1179.142 683.49,1179.142L731.014,1179.142C732.558,1179.142 733.81,1177.89 733.81,1176.346C733.81,1174.16 732.374,1172.236 730.28,1171.612L709.592,1165.448C706.11,1164.41 703.724,1161.208 703.724,1157.576L678.164,1157.576Z" fill="url(#pf_0_4_928)"/>
<path d="M705.354,1169.324C707.468,1170.496 709.55,1169 711.562,1167.552C712.064,1167.19 712.572,1166.826 713.088,1166.49L711.768,1166.096C711.486,1166.294 711.21,1166.492 710.938,1166.688C709.038,1168.06 707.406,1169.242 705.87,1168.392C705.47,1168.17 705.414,1167.942 705.41,1167.772C705.396,1166.994 706.41,1165.83 707.78,1164.63C707.46,1164.442 707.156,1164.238 706.87,1164.01C705.448,1165.304 704.326,1166.678 704.346,1167.79C704.354,1168.24 704.538,1168.868 705.354,1169.324Z" fill="#FFFFFF"/>
<path d="M718.752,1168.176L717.678,1167.856C717.44,1168.19 717.19,1168.52 716.964,1168.818C715.95,1170.15 715.152,1171.2 715.47,1172.018C715.568,1172.272 715.816,1172.598 716.432,1172.71C716.638,1172.748 716.836,1172.764 717.03,1172.764C718.432,1172.764 719.544,1171.836 720.808,1170.782C721.354,1170.326 721.98,1169.828 722.672,1169.344L721.372,1168.958C720.924,1169.302 720.508,1169.642 720.122,1169.964C718.792,1171.076 717.822,1171.89 716.624,1171.662C716.528,1171.646 716.478,1171.624 716.464,1171.624C716.434,1171.276 717.294,1170.146 717.81,1169.464C718.136,1169.036 718.46,1168.604 718.752,1168.176Z" fill="#FFFFFF"/>
<path d="M614.752,594.786C614.752,598.556 614.224,602.214 613.226,605.682C608.494,622.498 593.054,634.808 574.73,634.808C552.618,634.808 534.71,616.898 534.71,594.786C534.71,577.82 545.266,563.304 560.196,557.498C564.702,555.726 569.604,554.764 574.73,554.764C576.202,554.764 577.672,554.84 579.104,555.01C596.428,556.894 610.436,569.826 613.922,586.604C614.47,589.244 614.752,591.976 614.752,594.786Z" fill="url(#pf_0_4_934)"/>
<g opacity="0.2">
<path d="M613.922,586.604C609.794,590.054 604.498,592.128 598.71,592.128C585.608,592.128 574.976,581.496 574.976,568.394C574.976,563.418 576.502,558.818 579.104,555.01C577.672,554.84 576.202,554.764 574.73,554.764C569.604,554.764 564.702,555.726 560.196,557.498C559.216,560.966 558.688,564.624 558.688,568.394C558.688,590.506 576.598,608.416 598.71,608.416C603.838,608.416 608.72,607.454 613.226,605.682C614.224,602.214 614.752,598.556 614.752,594.786C614.752,591.976 614.47,589.244 613.922,586.604Z" fill="#FFFFFF"/>
</g>
<path d="M569.066,571.566C563.264,571.566 558.562,576.268 558.562,582.07C558.562,587.87 563.264,592.574 569.066,592.574C574.868,592.574 579.57,587.87 579.57,582.07C579.57,576.268 574.868,571.566 569.066,571.566ZM576.944,601.764C576.944,599.482 577.492,597.324 578.436,595.404C577.78,595.282 577.108,595.2 576.418,595.2L575.048,595.2C573.226,596.036 571.2,596.512 569.066,596.512C566.932,596.512 564.914,596.036 563.084,595.2L561.714,595.2C555.624,595.2 550.686,600.138 550.686,606.228L550.686,609.642C550.686,611.816 552.448,613.58 554.624,613.58L583.106,613.58C579.39,610.962 576.944,606.646 576.944,601.764Z" fill="#FFFFFF"/>
<path d="M591.386,589.948C584.854,589.948 579.57,595.232 579.57,601.764C579.57,608.296 584.854,613.58 591.386,613.58C597.918,613.58 603.202,608.296 603.202,601.764C603.202,595.232 597.918,589.948 591.386,589.948ZM596.638,602.28C596.638,602.716 596.276,603.076 595.842,603.076L590.868,603.076C590.434,603.076 590.072,602.716 590.072,602.28L590.072,595.994C590.072,595.56 590.434,595.198 590.868,595.198L591.902,595.198C592.338,595.198 592.698,595.56 592.698,595.994L592.698,600.45L595.842,600.45C596.276,600.45 596.638,600.812 596.638,601.246L596.638,602.28Z" fill="#FFFFFF"/>
<circle cx="1035.772" cy="640.611" r="41.909" fill="url(#pf_0_4_941)"/>
<path d="M1009.704,1165.468C1009.704,1165.468 1011.424,1165.186 1011.424,1165.21C1010.96,1178.608 1010.048,1178.772 992.572,1178.772C981.118,1178.772 958.544,1180.812 959.98,1175.296C961.302,1170.312 964.756,1168.644 975.928,1166.65C977.088,1166.464 978.34,1166.232 979.684,1166.024C993.894,1163.706 992.55,1159.186 992.55,1159.186L1009.54,1159.186C1009.704,1161.572 1009.772,1163.636 1009.704,1165.468Z" fill="url(#pf_0_4_943)"/>
<path d="M985.974,905.736L992.542,1159.178L1009.54,1159.178L1041.608,974.892L1080.628,1159.178L1097.242,1159.178L1104.964,908.054L1021.132,868.638C1021.132,868.638 985.166,874.586 985.974,905.736Z" fill="url(#pf_0_4_945)"/>
<path d="M1103.304,961.998L1104.964,908.054L1039.542,877.294L1035.342,920.216C1035.342,920.216 1046.774,931.616 1070.872,928.474C1094.968,925.33 1087.644,937.434 1095.644,944.19C1103.636,950.938 1103.306,961.976 1103.304,961.998Z" fill="#1D164D"/>
<path d="M1176.836,820.748C1161.376,842.77 1116.566,879.07 1116.566,879.07L1111.93,868.638C1111.93,868.638 1141.278,822.278 1138.194,813.168C1135.112,804.058 1106.622,767.802 1106.622,767.802L1106.622,911.338C1106.622,911.338 1105.162,916.554 1085.76,921.468C1071.18,925.176 1046.678,922.024 1035.342,920.216C1032.212,919.706 1030.172,916.67 1030.868,913.562C1032.954,904.244 1034.462,889.618 1034.462,889.618C1012.624,893.766 1002.31,886.418 1002.31,886.418L997.974,910.108C997.302,913.726 993.478,915.904 990.07,914.514C985.92,912.798 983,910.618 980.984,908.416C977.112,904.174 976.138,898.054 978.04,892.654C990.162,858.068 992.342,803.988 992.666,791.448L992.666,791.378C992.712,789.708 992.736,788.782 992.736,788.782C976.208,809.342 962.022,806.446 950.432,794.276C939.026,782.29 894.194,721.464 892.78,719.564L892.758,719.518L908.126,709.596C908.126,709.596 953.908,754.868 963.458,753.71C973.032,752.55 982.304,724.432 996.514,715.16C1004.86,709.688 1014.526,706.514 1021.062,704.82C1025.63,703.616 1028.666,703.152 1028.666,703.152L1056.668,700.788C1056.668,700.788 1060.076,701.02 1065.106,701.46C1074.796,702.294 1090.604,703.894 1099.946,706.188C1114.134,709.666 1124.68,721.442 1150.178,747.728C1175.678,773.992 1192.274,798.726 1176.836,820.748Z" fill="url(#pf_0_4_949)"/>
<path d="M1065.106,701.46C1054.28,714.14 1044.66,736.184 1044.312,755.842C1043.734,789.454 1041.416,844.114 1034.462,889.618C1012.624,893.766 1002.31,886.418 1002.31,886.418C1002.31,886.418 1025.072,763.7 1021.062,704.82C1025.63,703.616 1028.666,703.152 1028.666,703.152L1051.66,701.204L1056.668,700.788C1056.668,700.788 1060.076,701.02 1065.106,701.46Z" fill="url(#pf_0_4_951)"/>
<path d="M1084.666,745.122C1084.666,745.122 1094.096,763.632 1097.588,799.952C1101.08,836.274 1102.478,862.642 1098.286,869.976C1094.096,877.31 1094.186,887.348 1094.186,887.348C1094.186,887.348 1096.148,890.886 1099.946,888.53C1103.744,886.172 1106.096,889.708 1106.622,893.506L1106.622,767.802L1084.666,745.122Z" fill="#6BBC61"/>
<path d="M892.756,719.518C892.756,719.518 871.616,711.212 865.628,707.54C859.64,703.87 864.662,700.216 875.48,700.788C886.298,701.36 900.882,704.594 900.882,704.594C900.882,704.594 899.53,696.82 903.392,697.592C907.256,698.366 908.126,709.596 908.126,709.596L892.756,719.518Z" fill="url(#pf_0_4_955)"/>
<path d="M1111.93,868.638C1111.93,868.638 1101.104,869.612 1096.468,876.76C1091.832,883.908 1092.412,890.282 1098.014,886.612C1103.616,882.942 1111.938,879.256 1116.566,879.07L1111.93,868.638Z" fill="url(#pf_0_4_957)"/>
<path d="M1009.704,1165.468L1009.704,1165.49C1009.566,1165.814 1008.174,1168.666 1002.982,1169.222C997.464,1169.802 981.54,1172.7 977.482,1170.288C977.112,1170.08 976.834,1169.848 976.58,1169.616C975.674,1168.712 975.536,1167.692 975.93,1166.65C977.088,1166.464 978.34,1166.232 979.686,1166.024C993.894,1163.706 992.55,1159.186 992.55,1159.186L1009.542,1159.186C1009.704,1161.572 1009.774,1163.636 1009.704,1165.468Z" fill="url(#pf_0_4_959)"/>
<path d="M1097.404,1165.46C1097.404,1165.46 1099.124,1165.178 1099.124,1165.202C1098.66,1178.6 1098.134,1178.766 1080.658,1178.766C1069.202,1178.766 1046.628,1180.806 1048.066,1175.288C1049.388,1170.304 1052.842,1168.636 1064.014,1166.642C1065.174,1166.456 1066.424,1166.224 1067.77,1166.016C1081.98,1163.698 1080.634,1159.178 1080.634,1159.178L1097.242,1159.178C1097.404,1161.566 1097.472,1163.628 1097.404,1165.46Z" fill="url(#pf_0_4_961)"/>
<path d="M1097.396,1165.468L1097.396,1165.49C1097.258,1165.814 1096.26,1168.666 1091.068,1169.222C1089.098,1169.432 1085.806,1169.942 1082.19,1170.382C1082.098,1170.382 1082.028,1170.404 1081.958,1170.404L1081.936,1170.404C1075.49,1171.216 1068.142,1171.818 1065.57,1170.288C1063.854,1169.268 1063.53,1167.97 1064.016,1166.65C1065.176,1166.464 1066.428,1166.232 1067.772,1166.024C1081.982,1163.706 1080.636,1159.186 1080.636,1159.186L1097.234,1159.186C1097.396,1161.572 1097.466,1163.636 1097.396,1165.468Z" fill="url(#pf_0_4_963)"/>
<path d="M1056.668,665.808L1056.668,700.788C1052.774,703.662 1049.436,705.702 1046.538,707.07C1031.008,714.51 1028.666,703.152 1028.666,703.152L1028.666,694.9C1028.666,694.9 1017.076,696.476 1012.718,686.624C1008.382,676.772 1006.342,643.878 1006.342,643.878C1006.342,643.878 1025.558,658.422 1043.106,640.612C1043.106,640.612 1040.112,652.53 1046.978,660.256C1046.978,660.256 1051.62,650.434 1057.512,654.886C1063.406,659.34 1056.668,665.808 1056.668,665.808Z" fill="url(#pf_0_4_965)"/>
<path d="M1028.666,694.9C1028.666,694.9 1039.44,694.656 1046.424,683.656C1046.424,683.656 1042.514,700.788 1028.666,700.788L1028.666,694.9Z" fill="#1D164D"/>
<path d="M985.482,774.808C980.068,781.268 984.084,791.746 976.576,796.81C969.068,801.874 968.38,795.88 960.162,795.838C952.378,795.796 947.692,791.15 947.218,790.658C948.456,792.11 949.552,793.352 950.432,794.276C962.022,806.446 976.208,809.342 992.736,788.782C992.736,788.782 993.966,764.504 992.736,749.312C992.736,749.312 990.894,768.346 985.482,774.808Z" fill="#6BBC61"/>
<path d="M1034.462,889.618C1041.416,844.114 1043.734,789.454 1044.312,755.842C1044.512,744.568 1047.77,732.516 1052.546,721.89L1052.544,721.886C1052.544,721.886 1046.948,727.66 1040.312,749.312C1033.676,770.966 1042.058,783.888 1033.708,788.776C1025.356,793.666 1036.82,828.94 1028.666,859.292C1020.512,889.646 1002.31,886.418 1002.31,886.418C1002.31,886.418 1012.624,893.766 1034.462,889.618Z" fill="#C9E2F4"/>
<path d="M1031.232,1034.518L1041.608,974.891L1031.232,933.712L1031.232,1034.518Z" fill="#1D164D"/>
<path d="M1078.456,702.778C1077.462,702.666 1076.474,702.558 1075.5,702.454C1066.962,710.456 1054.868,728.628 1051.502,768.608C1050.034,786.056 1049.262,803.372 1048.518,820.12C1046.672,861.608 1045.042,897.648 1033.806,919.696C1034.282,919.932 1034.788,920.126 1035.342,920.216C1035.504,920.242 1035.694,920.27 1035.86,920.296C1047.138,897.808 1048.764,861.716 1050.61,820.214C1051.356,803.488 1052.124,786.192 1053.59,768.784C1057.084,727.3 1070.324,709.762 1078.456,702.778Z" fill="#FFFFFF"/>
<path d="M1005.304,819.162C1003.254,833.288 1001.632,845.146 1000.2,855.61C995.024,893.472 993.16,907.102 986.59,912.784C987.214,913.142 987.892,913.48 988.594,913.814C995.234,907.398 997.186,893.122 1002.278,855.894C1003.708,845.436 1005.33,833.578 1007.38,819.466C1015.278,765.104 1014.798,724.446 1014.01,706.928C1013.328,707.158 1012.646,707.394 1011.942,707.648C1012.71,725.376 1013.092,765.568 1005.304,819.162Z" fill="#FFFFFF"/>
<path d="M934.542,628.866C934.542,633.854 933.842,638.694 932.522,643.282C926.26,665.532 905.834,681.818 881.59,681.818C852.332,681.818 828.638,658.124 828.638,628.866C828.638,606.418 842.604,587.214 862.36,579.532C868.32,577.186 874.806,575.914 881.59,575.914C883.534,575.914 885.48,576.014 887.376,576.238C910.298,578.732 928.83,595.844 933.444,618.042C934.168,621.534 934.542,625.15 934.542,628.866Z" fill="url(#pf_0_4_979)"/>
<g opacity="0.2">
<path d="M933.444,618.042C927.982,622.606 920.972,625.35 913.316,625.35C895.98,625.35 881.914,611.282 881.914,593.948C881.914,587.362 883.934,581.276 887.376,576.238C885.48,576.014 883.534,575.914 881.59,575.914C874.806,575.914 868.32,577.186 862.36,579.532C861.062,584.12 860.364,588.96 860.364,593.948C860.364,623.204 884.058,646.9 913.316,646.9C920.1,646.9 926.56,645.628 932.522,643.282C933.842,638.694 934.542,633.854 934.542,628.866C934.542,625.15 934.168,621.534 933.444,618.042Z" fill="#FFFFFF"/>
</g>
<path d="M856.902,625.348C860.792,625.348 863.954,622.186 863.954,618.296C863.954,614.408 860.792,611.246 856.902,611.246C853.014,611.246 849.852,614.408 849.852,618.296C849.852,622.186 853.014,625.348 856.902,625.348ZM906.26,625.348C910.148,625.348 913.31,622.186 913.31,618.296C913.31,614.408 910.148,611.246 906.26,611.246C902.37,611.246 899.208,614.408 899.208,618.296C899.208,622.186 902.37,625.348 906.26,625.348ZM909.784,628.872L902.734,628.872C900.794,628.872 899.044,629.654 897.766,630.922C902.206,633.356 905.356,637.752 906.04,642.974L913.31,642.974C915.26,642.974 916.836,641.4 916.836,639.45L916.836,635.924C916.836,632.034 913.674,628.872 909.784,628.872ZM881.582,628.872C888.4,628.872 893.92,623.354 893.92,616.534C893.92,609.714 888.4,604.194 881.582,604.194C874.762,604.194 869.242,609.714 869.242,616.534C869.242,623.354 874.762,628.872 881.582,628.872ZM890.042,632.398L889.128,632.398C886.836,633.5 884.292,634.16 881.582,634.16C878.87,634.16 876.336,633.5 874.034,632.398L873.12,632.398C866.112,632.398 860.428,638.082 860.428,645.09L860.428,648.262C860.428,651.182 862.796,653.552 865.716,653.552L897.446,653.552C900.366,653.552 902.734,651.182 902.734,648.262L902.734,645.09C902.734,638.082 897.05,632.398 890.042,632.398ZM865.396,630.922C864.118,629.654 862.368,628.872 860.428,628.872L853.378,628.872C849.488,628.872 846.326,632.034 846.326,635.924L846.326,639.45C846.326,641.4 847.902,642.974 849.852,642.974L857.112,642.974C857.806,637.752 860.956,633.356 865.396,630.922Z" fill="#FFFFFF"/>
<path d="M405.668,572.992L479.352,745.986C479.352,745.986 486.82,785.434 505.686,789.312C524.552,793.188 526.104,784.4 517.834,775.096C509.564,765.792 503.102,751.062 502.326,740.466L475.51,560.16L405.668,572.992Z" fill="url(#pf_0_4_985)"/>
<path d="M372.422,383.46L376.474,448.691L418.012,487.189L423.263,480.47L385.51,445.487L372.422,383.46Z" fill="url(#pf_0_4_987)"/>
<path d="M432.892,500.972L418.014,487.186L423.268,480.47C423.268,480.47 431.684,488.912 433.926,493.908C436.164,498.906 432.892,500.972 432.892,500.972Z" fill="url(#pf_0_4_989)"/>
<path d="M392.488,327.212C392.488,327.212 443.918,318.942 444.694,294.648C445.468,270.354 426.344,272.938 420.142,281.984C413.938,291.03 395.848,283.276 382.666,279.142C369.486,275.006 364.276,287.928 364.276,287.928C364.276,287.928 358.114,283.794 351.654,291.806C345.192,299.816 353.13,309.868 352.908,323.192C352.688,336.516 392.488,327.212 392.488,327.212Z" fill="url(#pf_0_4_991)"/>
<path d="M403.6,316.098C403.6,316.098 388.266,346.94 381.546,351.42C374.828,355.9 368.796,350.558 368.796,350.558L359.838,361.412L335.716,347.112L355.874,319.544C355.874,319.544 350.362,303.564 358.244,301.756C366.126,299.946 366.514,311.834 366.514,311.834C366.514,311.834 375.688,308.216 377.11,298.396C377.11,298.396 385.854,318.856 403.6,316.098Z" fill="url(#pf_0_4_993)"/>
<path d="M368.796,350.558C368.796,350.558 360.7,344.916 360.182,332.51C360.182,332.51 357.508,346.428 365.56,354.48L368.796,350.558Z" fill="#1D164D"/>
<path d="M307.108,409.904L307.108,496.308L376.372,496.308L376.372,482.702C376.372,482.702 396.716,491.076 410.568,496.534L419.894,484.874L376.474,448.692L372.422,383.46C371.884,374.548 367.232,366.402 359.83,361.42L335.722,347.112L324.724,360.572C313.332,374.486 307.108,391.916 307.108,409.904Z" fill="url(#pf_0_4_997)"/>
<path d="M434.872,506.314C430.48,507.09 430.48,503.988 419.882,500.112C417.618,499.282 414.33,498.012 410.566,496.528L419.882,484.864C429.704,492.616 439.266,505.538 434.872,506.314Z" fill="url(#pf_0_4_999)"/>
<path d="M416.54,552.318L173.996,552.318C171.276,552.318 168.87,553.634 167.312,555.638L167.312,555.592L152.796,570.44L165.496,570.44L165.496,706.332C165.496,711.008 169.32,714.834 173.996,714.834L344.832,714.834C347.644,714.834 350.37,715.592 352.766,716.97C352.184,735.23 355.37,749.7 364.912,755.794L381.314,739.462L381.314,739.454C382.086,738.764 382.604,737.766 382.6,736.548L382.586,731.694L405.714,729.148L422.436,712.424C422.502,712.36 422.566,712.296 422.63,712.23L422.772,712.09L422.772,712.06C424.166,710.544 425.04,708.542 425.04,706.332L425.04,560.818C425.04,556.142 421.214,552.318 416.54,552.318Z" fill="#EF9607"/>
<path d="M399.54,569.318L156.994,569.318C152.32,569.318 148.494,573.142 148.494,577.818L148.494,723.334C148.494,728.008 152.32,731.834 156.994,731.834L327.832,731.834C332.054,731.834 336.104,733.51 339.09,736.496L358.92,756.326C361.388,758.796 365.61,757.04 365.6,753.548L365.55,736.178C365.544,733.78 367.486,731.834 369.884,731.834L399.54,731.834C404.214,731.834 408.04,728.008 408.04,723.334L408.04,577.818C408.04,573.142 404.214,569.318 399.54,569.318Z" fill="#FEC40C"/>
<circle cx="231.604" cy="653.482" r="12.654" fill="#FFFFFF"/>
<circle cx="278.267" cy="653.482" r="12.654" fill="#FFFFFF"/>
<circle cx="324.93" cy="653.482" r="12.654" fill="#FFFFFF"/>
<path d="M416.358,572.992L345.358,572.992C324.234,572.992 307.108,555.868 307.108,534.744L307.108,496.314L376.372,496.314C376.372,505.354 383.7,512.682 392.74,512.682L455.828,512.682C468.502,512.682 478.488,523.516 477.454,536.15L460.458,745.986C460.458,745.986 461.844,761.822 469.762,774.58C477.682,787.336 488.02,803.174 466.662,800.424C445.304,797.674 435.648,747.184 435.648,747.184L416.358,572.992Z" fill="url(#pf_0_4_1008)"/>
<path d="M435.53,746.122L435.648,745.986L460.458,745.986C460.458,745.986 461.844,761.822 469.762,774.58C477.682,787.336 488.02,803.174 466.662,800.424C445.304,797.674 435.648,747.184 435.648,747.184L435.53,746.122Z" fill="#FFFFFF"/>
<path d="M517.834,775.096C526.104,784.4 524.552,793.188 505.686,789.312C486.82,785.434 479.352,745.986 479.352,745.986L503.166,745.986C505.288,755.76 510.922,767.32 517.834,775.096Z" fill="#FFFFFF"/>
<path d="M345.376,467.208L376.372,482.702L376.372,496.308C375.092,491.35 368.776,485.302 363.5,487.19C356.998,489.516 353.204,476.506 342.866,480.47C332.528,484.432 325.206,470.736 325.55,456.952C325.894,443.168 328.134,375.886 328.134,375.886L334.774,451.622C335.36,458.306 339.374,464.206 345.376,467.208Z" fill="#C9E2F4"/>
<path d="M511.214,458.792L464.25,505.756C462.9,507.106 461.068,507.864 459.16,507.864L397.556,507.864C394.896,507.864 392.74,510.022 392.74,512.682L460.898,512.682C462.97,512.682 464.958,511.858 466.424,510.394L511.214,465.604C513.096,463.724 513.096,460.674 511.214,458.792Z" fill="url(#pf_0_4_1016)"/>
<circle cx="517.218" cy="390.396" r="43.359" fill="url(#pf_0_4_1017)"/>
<g opacity="0.2">
<path d="M475.592,402.444C474.484,398.616 473.858,394.582 473.858,390.396C473.858,386.86 474.328,383.44 475.128,380.15C479.27,383.588 484.59,385.658 490.394,385.658C503.608,385.658 514.32,374.946 514.32,361.734C514.32,356.494 512.616,351.664 509.758,347.722C512.186,347.3 514.67,347.036 517.218,347.036C522.426,347.036 527.396,348.002 532.022,349.684C533.128,353.514 533.754,357.548 533.754,361.734C533.754,385.68 514.342,405.092 490.394,405.092C485.188,405.092 480.216,404.128 475.592,402.444Z" fill="#FFFFFF"/>
</g>
<path d="M544.042,384.212C543.686,383.642 543.402,383.012 542.964,382.514C538.01,376.896 531.896,373.146 524.56,371.628C513.116,369.264 502.96,372.032 494.186,379.754C493.076,380.732 492.09,381.852 491.094,382.948C490.78,383.296 490.624,383.786 490.394,384.212L490.394,385.05C490.588,385.436 490.72,385.872 490.986,386.2C491.886,387.314 493.52,387.386 494.552,386.366C495.606,385.326 496.57,384.188 497.672,383.2C502.232,379.116 507.556,376.608 513.646,375.946C523.912,374.834 532.5,378.228 539.412,385.88C539.952,386.478 540.51,386.996 541.368,387.06C542.518,387.144 543.5,386.524 543.898,385.44C543.946,385.31 543.994,385.18 544.042,385.05L544.042,384.212Z" fill="#FFFFFF"/>
<path d="M516.736,380.59C509.786,380.74 503.568,383.564 498.636,389.172C497.624,390.32 497.676,391.832 498.732,392.768C499.76,393.676 501.28,393.564 502.272,392.43C504.376,390.024 506.872,388.176 509.826,386.948C517.3,383.838 526.202,385.84 531.638,391.856C531.884,392.128 532.122,392.408 532.384,392.662C533.326,393.566 534.76,393.604 535.706,392.762C536.676,391.898 536.852,390.424 535.982,389.418C535.094,388.39 534.154,387.39 533.124,386.51C528.558,382.61 523.242,380.666 516.736,380.59Z" fill="#FFFFFF"/>
<path d="M516.842,390.402C512.53,390.592 508.952,392.298 506.09,395.516C505.14,396.584 505.172,398.04 506.17,398.994C507.148,399.93 508.656,399.906 509.634,398.862C510.822,397.596 512.144,396.564 513.78,395.928C517.258,394.574 521.544,395.49 524.13,398.176C524.372,398.428 524.608,398.688 524.858,398.93C525.838,399.88 527.302,399.91 528.256,399.006C529.26,398.054 529.3,396.598 528.358,395.528C527.348,394.38 526.21,393.378 524.904,392.582C522.428,391.07 519.732,390.358 516.842,390.402Z" fill="#FFFFFF"/>
<path d="M517.168,400.204C514.468,400.264 512.3,402.452 512.318,405.102C512.334,407.802 514.636,410.072 517.294,409.98C520.078,409.882 522.114,407.742 522.104,405.054C522.094,402.328 519.824,400.146 517.168,400.204Z" fill="#FFFFFF"/>
<g opacity="0.5">
<rect  x="339.604" y="496.314" width="2.068" height="6.203" fill="#FFFFFF"/>
<path d="M446.492,727.292L446.83,714.884L448.898,714.94L448.56,727.35L446.492,727.292ZM447.166,702.474L447.504,690.064L449.572,690.12L449.234,702.53L447.166,702.474ZM447.842,677.654L448.178,665.246L450.246,665.302L449.908,677.712L447.842,677.654ZM448.516,652.836L448.852,640.426L450.92,640.484L450.584,652.892L448.516,652.836ZM449.19,628.018L449.528,615.608L451.594,615.664L451.258,628.074L449.19,628.018ZM449.864,603.198L450.2,590.79L452.268,590.846L451.932,603.256L449.864,603.198ZM450.536,578.38L450.874,565.97L452.942,566.028L452.604,578.436L450.536,578.38ZM451.212,553.562L451.258,551.724C451.258,548.42 450.026,545.258 447.792,542.82L449.316,541.422C451.902,544.244 453.326,547.902 453.326,551.724L453.278,553.618L451.212,553.562ZM350.37,536.698L351.262,534.832C353.532,535.918 355.966,536.466 358.502,536.466L358.508,536.466L362.968,536.466L362.968,538.534L358.508,538.534L358.502,538.534C355.658,538.534 352.922,537.916 350.37,536.698ZM375.384,536.466L387.798,536.466L387.798,538.534L375.384,538.534L375.384,536.466ZM400.21,536.466L412.626,536.466L412.626,538.534L400.21,538.534L400.21,536.466ZM425.04,536.466L437.454,536.466L437.454,538.534L425.04,538.534L425.04,536.466ZM339.604,519.63L339.604,514.93L341.672,514.93L341.672,519.63C341.672,522.088 342.19,524.458 343.212,526.674L341.334,527.54C340.184,525.052 339.604,522.39 339.604,519.63Z" fill="#FFFFFF"/>
<rect  x="452.021" y="741.825" width="6.203" height="2.068" transform="rotate(-176.904 452.021 741.825)" fill="#FFFFFF"/>
</g>
<path d="M1520.692,251.382L1522.084,246.186C1522.62,244.182 1522.428,242.038 1521.474,240.198C1511.654,221.278 1515.842,196.976 1534.062,182.664C1545.16,173.946 1559.5,171.15 1572.712,174.178C1572.01,176.708 1571.606,179.36 1571.606,182.112C1571.606,198.496 1584.888,211.778 1601.27,211.778C1603.464,211.778 1605.594,211.522 1607.65,211.072C1610.134,225.334 1605.904,240.538 1594.888,251.552C1580.34,266.1 1558.482,268.866 1541.142,259.868C1539.302,258.912 1537.158,258.72 1535.154,259.258L1529.958,260.65L1523.264,262.444C1520.612,263.154 1518.186,260.728 1518.898,258.076L1520.692,251.382Z" fill="#FEC40C"/>
<g opacity="0.2">
<path d="M1516.598,213.908C1520.244,215.396 1524.226,216.23 1528.406,216.23C1545.694,216.23 1559.71,202.216 1559.71,184.926C1559.71,180.796 1558.89,176.862 1557.436,173.25C1565.826,172.356 1574.396,173.792 1582.162,177.502C1582.494,179.93 1582.68,182.406 1582.68,184.926C1582.68,214.902 1558.38,239.202 1528.406,239.202C1525.802,239.202 1523.246,239.006 1520.74,238.652C1517.068,230.876 1515.672,222.294 1516.598,213.908Z" fill="#FFFFFF"/>
</g>
<circle cx="1582.681" cy="218.999" r="6.434" fill="#FFFFFF"/>
<circle cx="1562.342" cy="218.999" r="6.434" fill="#FFFFFF"/>
<circle cx="1542.002" cy="218.999" r="6.434" fill="#FFFFFF"/>
<circle cx="1601.271" cy="182.113" r="22.535" fill="#EF4136"/>
<path d="M1605.748,171.736L1605.748,192.488L1600.946,192.488L1600.946,175.59L1596.794,175.59L1596.794,171.736L1605.748,171.736Z" fill="#FFFFFF"/>
<path d="M1389.322,312.062C1389.322,312.062 1399.142,299.398 1398.108,268.644C1397.074,237.888 1400.27,206.1 1430.414,197.312C1460.242,188.618 1468.542,213.594 1468.542,213.594C1468.542,213.594 1483.654,208.168 1487.53,222.64C1491.406,237.112 1477.968,271.572 1492.786,312.062L1389.322,312.062Z" fill="url(#pf_0_4_1043)"/>
<path d="M1392.506,463.082C1392.506,463.082 1398.602,500.298 1443.916,490.994C1489.23,481.69 1477.342,457.224 1476.394,456.534C1475.446,455.846 1392.506,463.082 1392.506,463.082Z" fill="#1D164D"/>
<path d="M1506.086,314.568C1498.458,309.834 1488.41,306.402 1479.602,304.046C1468.436,301.026 1459.216,299.744 1459.216,299.744L1440.05,299.744L1439.822,299.744L1420.656,299.744C1420.656,299.744 1411.434,301.026 1400.27,304.046C1391.462,306.402 1381.414,309.834 1373.784,314.568C1356.562,325.238 1351.392,412.778 1351.744,425.866C1352.074,438.954 1384.824,455.162 1388.96,456.878C1391.846,458.096 1414.83,464.344 1439.822,464.464L1439.822,464.466L1439.936,464.466L1440.05,464.466L1440.05,464.464C1465.04,464.344 1488.026,458.096 1490.912,456.878C1495.046,455.162 1527.796,438.954 1528.128,425.866C1528.478,412.778 1523.31,325.238 1506.086,314.568Z" fill="url(#pf_0_4_1047)"/>
<path d="M1440.05,299.744L1440.05,321.206L1434.55,333.446C1433.516,335.762 1430.436,336.278 1428.678,334.418L1400.27,304.046C1411.434,301.026 1420.656,299.744 1420.656,299.744L1440.05,299.744Z" fill="#FFFFFF"/>
<path d="M1439.822,299.744L1439.822,321.206L1445.322,333.446C1446.356,335.762 1449.436,336.278 1451.194,334.418L1479.602,304.046C1468.436,301.026 1459.216,299.744 1459.216,299.744L1439.822,299.744Z" fill="#FFFFFF"/>
<circle cx="1440.783" cy="343.163" r="3.132" fill="#FFFFFF"/>
<circle cx="1440.783" cy="378.975" r="3.132" fill="#FFFFFF"/>
<path d="M1377.909,409.613C1377.909,403.45 1382.905,398.454 1389.068,398.454L1490.803,398.454C1496.966,398.454 1501.962,403.45 1501.962,409.613L1501.962,476.004L1377.909,476.004Z" fill="url(#pf_0_4_1054)"/>
<circle cx="1439.936" cy="437.229" r="11.554" fill="#FFFFFF"/>
<path d="M1352.582,447.142L1472.02,507.19L1465.474,524.42L1335.472,493.072C1322.602,489.968 1312.992,478.646 1312.992,465.408C1312.992,455.036 1318.256,445.002 1338.112,444.03C1343.116,443.786 1348.106,444.892 1352.582,447.142Z" fill="url(#pf_0_4_1057)"/>
<path d="M1465.466,524.426L1476.404,527.176C1476.404,527.176 1481.076,534.412 1498.65,536.232C1516.226,538.03 1527.328,531.828 1527.328,521.222C1527.328,510.636 1518.788,513.488 1505.888,515.018C1499.644,515.784 1491.538,513.984 1484.84,511.918C1477.624,509.706 1472.02,507.182 1472.02,507.182L1465.466,524.426Z" fill="url(#pf_0_4_1059)"/>
<path d="M1465.466,524.426L1476.404,527.176C1476.404,527.176 1484.86,526.08 1484.84,511.918C1477.624,509.706 1472.02,507.182 1472.02,507.182L1465.466,524.426Z" fill="url(#pf_0_4_1061)"/>
<path d="M1481.718,523.64C1484.942,525.066 1489.368,526.514 1494.93,527.176C1508.038,528.726 1510.104,523.724 1503.386,521.862C1499.23,520.704 1490.504,518.534 1484.406,517.044C1483.868,520.042 1482.834,522.152 1481.718,523.64Z" fill="#C7283A"/>
<path d="M1516.318,447.142L1396.878,507.19L1403.426,524.42L1533.428,493.072C1546.298,489.968 1555.908,478.646 1555.908,465.408C1555.908,455.036 1550.642,445.002 1530.788,444.03C1525.784,443.786 1520.794,444.892 1516.318,447.142Z" fill="url(#pf_0_4_1065)"/>
<path d="M1403.432,524.426L1392.496,527.176C1392.496,527.176 1387.822,534.412 1370.248,536.232C1352.674,538.03 1341.572,531.828 1341.572,521.222C1341.572,510.636 1350.11,513.488 1363.012,515.018C1369.256,515.784 1377.362,513.984 1384.06,511.918C1391.276,509.706 1396.878,507.182 1396.878,507.182L1403.432,524.426Z" fill="url(#pf_0_4_1067)"/>
<path d="M1403.432,524.426L1392.496,527.176C1392.496,527.176 1384.04,526.08 1384.06,511.918C1391.276,509.706 1396.878,507.182 1396.878,507.182L1403.432,524.426Z" fill="url(#pf_0_4_1069)"/>
<path d="M1387.182,523.64C1383.956,525.066 1379.532,526.514 1373.97,527.176C1360.862,528.726 1358.794,523.724 1365.514,521.862C1369.67,520.704 1378.394,518.534 1384.494,517.044C1385.032,520.042 1386.066,522.152 1387.182,523.64Z" fill="#C7283A"/>
<path d="M1420.428,287.51L1420.428,299.745L1439.822,321.206L1459.216,299.745L1459.216,287.51L1420.428,287.51Z" fill="url(#pf_0_4_1073)"/>
<path d="M1410.848,253.768C1410.848,253.768 1405.69,249.662 1403.364,253.768C1401.038,257.874 1405.442,269.948 1412.414,269.948L1412.414,255.032L1410.848,253.768Z" fill="url(#pf_0_4_1075)"/>
<path d="M1468.828,253.768C1468.828,253.768 1473.988,249.662 1476.314,253.768C1478.64,257.874 1474.234,269.948 1467.262,269.948L1467.262,255.032L1468.828,253.768Z" fill="url(#pf_0_4_1077)"/>
<path d="M1468.318,254.17C1468.318,254.17 1456.602,251.414 1457.636,236.768C1457.636,236.768 1442.302,262.612 1410.772,249.69C1410.772,249.69 1410.428,281.394 1421.626,294.488C1432.826,307.582 1448.692,311.718 1459.712,292.42C1470.732,273.122 1468.318,254.17 1468.318,254.17Z" fill="url(#pf_0_4_1079)"/>
<path d="M1391.932,398.454L1399.168,365.044C1399.168,365.044 1396.842,386.838 1401.494,390.802C1406.146,394.764 1408.386,390.456 1411.832,393.386C1415.278,396.314 1415.1,398.454 1420.186,398.454L1391.932,398.454Z" fill="#C7283A"/>
<path d="M1487.94,398.454L1480.702,365.044C1480.702,365.044 1483.028,386.838 1478.376,390.802C1473.724,394.764 1471.484,390.456 1468.038,393.386C1464.592,396.314 1464.77,398.454 1459.686,398.454L1487.94,398.454Z" fill="#C7283A"/>
<defs>
<linearGradient id="pf_0_4_736" x1="1642" y1="1427.32" x2="434.12" y2="1427.32" gradientUnits="userSpaceOnUse">
<stop offset="1" stop-color="#976EF3"/>
<stop stop-color="#ABA9E9"/>
</linearGradient>
<linearGradient id="pf_0_4_738" x1="1642" y1="518.47" x2="-0.76" y2="518.47" gradientUnits="userSpaceOnUse">
<stop offset="1" stop-color="#976EF3"/>
<stop stop-color="#ABA9E9"/>
</linearGradient>
<linearGradient id="pf_0_4_740" x1="1620.902" y1="-259.232" x2="392.902" y2="1444.768" gradientUnits="userSpaceOnUse">
<stop offset="1" stop-color="#976EF3"/>
<stop stop-color="#ABA9E9"/>
</linearGradient>
<linearGradient id="pf_0_4_742" x1="176.88" y1="1179.14" x2="176.88" y2="1179.14" gradientUnits="userSpaceOnUse">
<stop offset="1" stop-color="#7956D8" stop-opacity="0"/>
<stop stop-color="#7956D8"/>
</linearGradient>
<linearGradient id="pf_0_4_803" x1="210.891" y1="1393.252" x2="541.558" y2="1178.586" gradientUnits="userSpaceOnUse">
<stop offset="1" stop-color="#7956D8" stop-opacity="0"/>
<stop stop-color="#7956D8"/>
</linearGradient>
<linearGradient id="pf_0_4_805" x1="494.37" y1="1422.655" x2="687.703" y2="1163.988" gradientUnits="userSpaceOnUse">
<stop offset="1" stop-color="#7956D8" stop-opacity="0"/>
<stop stop-color="#7956D8"/>
</linearGradient>
<linearGradient id="pf_0_4_807" x1="834.157" y1="1347.357" x2="948.157" y2="1151.357" gradientUnits="userSpaceOnUse">
<stop offset="1" stop-color="#7956D8" stop-opacity="0"/>
<stop stop-color="#7956D8"/>
</linearGradient>
<linearGradient id="pf_0_4_809" x1="999.32" y1="1179.04" x2="999.32" y2="1179.04" gradientUnits="userSpaceOnUse">
<stop offset="1" stop-color="#7956D8" stop-opacity="0"/>
<stop stop-color="#7956D8"/>
</linearGradient>
<linearGradient id="pf_0_4_820" x1="1182.43" y1="447.314" x2="644.552" y2="1201.453" gradientUnits="userSpaceOnUse">
<stop offset="1" stop-color="#CDD9FF"/>
<stop stop-color="#F3F7FF"/>
</linearGradient>
<linearGradient id="pf_0_4_839" x1="912.873" y1="793.536" x2="1268.493" y2="100.904" gradientUnits="userSpaceOnUse">
<stop offset="1" stop-color="#4A4975"/>
<stop stop-color="#1D164D"/>
</linearGradient>
<linearGradient id="pf_0_4_844" x1="1431.518" y1="807.499" x2="1302.475" y2="423.368" gradientUnits="userSpaceOnUse">
<stop offset="1" stop-color="#EAF5FF"/>
<stop stop-color="#C9E2F4"/>
</linearGradient>
<linearGradient id="pf_0_4_846" x1="1262.978" y1="489.694" x2="1262.978" y2="489.694" gradientUnits="userSpaceOnUse">
<stop offset="1" stop-color="#4A4975"/>
<stop stop-color="#1D164D"/>
</linearGradient>
<linearGradient id="pf_0_4_882" x1="324.74" y1="296.65" x2="-0.76" y2="296.65" gradientUnits="userSpaceOnUse">
<stop offset="1" stop-color="#976EF3"/>
<stop stop-color="#ABA9E9"/>
</linearGradient>
<linearGradient id="pf_0_4_886" x1="718.423" y1="861.452" x2="603.404" y2="717.324" gradientUnits="userSpaceOnUse">
<stop offset="1" stop-color="#FF8A5F"/>
<stop stop-color="#FFB965"/>
</linearGradient>
<linearGradient id="pf_0_4_888" x1="658.926" y1="800.68" x2="672.593" y2="815.057" gradientUnits="userSpaceOnUse">
<stop offset="1" stop-color="#FFD6C7"/>
<stop stop-color="#FFC0AC"/>
</linearGradient>
<linearGradient id="pf_0_4_890" x1="651.322" y1="619.462" x2="666.655" y2="654.12" gradientUnits="userSpaceOnUse">
<stop offset="1" stop-color="#4A4975"/>
<stop stop-color="#1D164D"/>
</linearGradient>
<linearGradient id="pf_0_4_892" x1="661.508" y1="661.62" x2="643.403" y2="716.2" gradientUnits="userSpaceOnUse">
<stop offset="1" stop-color="#FFD6C7"/>
<stop stop-color="#FFC0AC"/>
</linearGradient>
<linearGradient id="pf_0_4_896" x1="717.853" y1="788.829" x2="608.159" y2="1182.874" gradientUnits="userSpaceOnUse">
<stop offset="1" stop-color="#4A4975"/>
<stop stop-color="#1D164D"/>
</linearGradient>
<linearGradient id="pf_0_4_902" x1="773.402" y1="875.791" x2="731.868" y2="726.693" gradientUnits="userSpaceOnUse">
<stop offset="1" stop-color="#4099F1"/>
<stop stop-color="#ACD4F3"/>
</linearGradient>
<linearGradient id="pf_0_4_906" x1="671.883" y1="782.009" x2="682.945" y2="802.689" gradientUnits="userSpaceOnUse">
<stop offset="1" stop-color="#EAF5FF"/>
<stop stop-color="#C9E2F4"/>
</linearGradient>
<linearGradient id="pf_0_4_910" x1="818.7" y1="816.476" x2="811.27" y2="789.803" gradientUnits="userSpaceOnUse">
<stop offset="1" stop-color="#FFD6C7"/>
<stop stop-color="#FFC0AC"/>
</linearGradient>
<linearGradient id="pf_0_4_922" x1="630.884" y1="1183.227" x2="647.123" y2="1150.929" gradientUnits="userSpaceOnUse">
<stop offset="1" stop-color="#FF8A5F"/>
<stop stop-color="#FFB965"/>
</linearGradient>
<linearGradient id="pf_0_4_928" x1="696.906" y1="1178.345" x2="721.134" y2="1149.324" gradientUnits="userSpaceOnUse">
<stop offset="1" stop-color="#FF8A5F"/>
<stop stop-color="#FFB965"/>
</linearGradient>
<linearGradient id="pf_0_4_934" x1="595.923" y1="550.771" x2="546.282" y2="653.823" gradientUnits="userSpaceOnUse">
<stop offset="1" stop-color="#FF8A5F"/>
<stop stop-color="#FFB965"/>
</linearGradient>
<linearGradient id="pf_0_4_941" x1="1017.546" y1="607.351" x2="1065.392" y2="694.662" gradientUnits="userSpaceOnUse">
<stop offset="1" stop-color="#4A4975"/>
<stop stop-color="#1D164D"/>
</linearGradient>
<linearGradient id="pf_0_4_943" x1="938.753" y1="1130.331" x2="998.736" y2="1179.312" gradientUnits="userSpaceOnUse">
<stop offset="1" stop-color="#4A4975"/>
<stop stop-color="#1D164D"/>
</linearGradient>
<linearGradient id="pf_0_4_945" x1="1006.698" y1="936.567" x2="1088.421" y2="1125.158" gradientUnits="userSpaceOnUse">
<stop offset="1" stop-color="#4A4975"/>
<stop stop-color="#1D164D"/>
</linearGradient>
<linearGradient id="pf_0_4_949" x1="1029.971" y1="730.819" x2="1090.739" y2="947.698" gradientUnits="userSpaceOnUse">
<stop offset="1" stop-color="#A7DF63"/>
<stop stop-color="#6BBC61"/>
</linearGradient>
<linearGradient id="pf_0_4_951" x1="1027.149" y1="774.341" x2="1070.629" y2="904.258" gradientUnits="userSpaceOnUse">
<stop offset="1" stop-color="#EAF5FF"/>
<stop stop-color="#C9E2F4"/>
</linearGradient>
<linearGradient id="pf_0_4_955" x1="878.118" y1="691.881" x2="900.906" y2="729.861" gradientUnits="userSpaceOnUse">
<stop offset="1" stop-color="#FFD6C7"/>
<stop stop-color="#FFC0AC"/>
</linearGradient>
<linearGradient id="pf_0_4_957" x1="1100.918" y1="888.246" x2="1116.11" y2="859.957" gradientUnits="userSpaceOnUse">
<stop offset="1" stop-color="#FFD6C7"/>
<stop stop-color="#FFC0AC"/>
</linearGradient>
<linearGradient id="pf_0_4_959" x1="996.708" y1="1157.658" x2="990.247" y2="1171.628" gradientUnits="userSpaceOnUse">
<stop offset="1" stop-color="#FFD6C7"/>
<stop stop-color="#FFC0AC"/>
</linearGradient>
<linearGradient id="pf_0_4_961" x1="1043.837" y1="1137.573" x2="1090.984" y2="1187.078" gradientUnits="userSpaceOnUse">
<stop offset="1" stop-color="#4A4975"/>
<stop stop-color="#1D164D"/>
</linearGradient>
<linearGradient id="pf_0_4_963" x1="1063.811" y1="1159.186" x2="1063.811" y2="1159.186" gradientUnits="userSpaceOnUse">
<stop offset="1" stop-color="#FFD6C7"/>
<stop stop-color="#FFC0AC"/>
</linearGradient>
<linearGradient id="pf_0_4_965" x1="1029.289" y1="646.806" x2="1045.528" y2="707.574" gradientUnits="userSpaceOnUse">
<stop offset="1" stop-color="#FFD6C7"/>
<stop stop-color="#FFC0AC"/>
</linearGradient>
<linearGradient id="pf_0_4_979" x1="862.762" y1="658.112" x2="914.516" y2="577.674" gradientUnits="userSpaceOnUse">
<stop offset="1" stop-color="#A7DF63"/>
<stop stop-color="#6BBC61"/>
</linearGradient>
<linearGradient id="pf_0_4_985" x1="19.531" y1="758.925" x2="140.828" y2="665.196" gradientUnits="userSpaceOnUse">
<stop offset="1" stop-color="#ACD4F3"/>
<stop stop-color="#4099F1"/>
</linearGradient>
<linearGradient id="pf_0_4_987" x1="204.702" y1="410.642" x2="246.398" y2="469.222" gradientUnits="userSpaceOnUse">
<stop offset="1" stop-color="#EAF5FF"/>
<stop stop-color="#C9E2F4"/>
</linearGradient>
<linearGradient id="pf_0_4_989" x1="175.999" y1="484.508" x2="194.348" y2="492.864" gradientUnits="userSpaceOnUse">
<stop offset="1" stop-color="#FFD6C7"/>
<stop stop-color="#FFC0AC"/>
</linearGradient>
<linearGradient id="pf_0_4_991" x1="193.725" y1="278.687" x2="278.251" y2="340.256" gradientUnits="userSpaceOnUse">
<stop offset="1" stop-color="#4A4975"/>
<stop stop-color="#1D164D"/>
</linearGradient>
<linearGradient id="pf_0_4_993" x1="228.905" y1="312.552" x2="291.981" y2="358.496" gradientUnits="userSpaceOnUse">
<stop offset="1" stop-color="#FFD6C7"/>
<stop stop-color="#FFC0AC"/>
</linearGradient>
<linearGradient id="pf_0_4_997" x1="235.929" y1="413.176" x2="325.351" y2="502.598" gradientUnits="userSpaceOnUse">
<stop offset="1" stop-color="#EAF5FF"/>
<stop stop-color="#C9E2F4"/>
</linearGradient>
<linearGradient id="pf_0_4_999" x1="189.901" y1="495.367" x2="204.488" y2="505.992" gradientUnits="userSpaceOnUse">
<stop offset="1" stop-color="#FFD6C7"/>
<stop stop-color="#FFC0AC"/>
</linearGradient>
<linearGradient id="pf_0_4_1008" x1="102.109" y1="578.686" x2="296.459" y2="687.577" gradientUnits="userSpaceOnUse">
<stop offset="1" stop-color="#ACD4F3"/>
<stop stop-color="#4099F1"/>
</linearGradient>
<linearGradient id="pf_0_4_1016" x1="158.38" y1="475.11" x2="191.461" y2="536.361" gradientUnits="userSpaceOnUse">
<stop offset="1" stop-color="#EAF5FF"/>
<stop stop-color="#C9E2F4"/>
</linearGradient>
<linearGradient id="pf_0_4_1017" x1="73.666" y1="430.314" x2="159.203" y2="303.09" gradientUnits="userSpaceOnUse">
<stop offset="1" stop-color="#ACD4F3"/>
<stop stop-color="#4099F1"/>
</linearGradient>
<linearGradient id="pf_0_4_1043" x1="1389.322" y1="195.474" x2="1389.322" y2="195.474" gradientUnits="userSpaceOnUse">
<stop offset="1" stop-color="#4A4975"/>
<stop stop-color="#1D164D"/>
</linearGradient>
<linearGradient id="pf_0_4_1047" x1="1351.727" y1="299.744" x2="1351.727" y2="299.744" gradientUnits="userSpaceOnUse">
<stop offset="1" stop-color="#EF4B4B"/>
<stop stop-color="#C7283A"/>
</linearGradient>
<linearGradient id="pf_0_4_1054" x1="1377.909" y1="398.454" x2="1377.909" y2="398.454" gradientUnits="userSpaceOnUse">
<stop offset="1" stop-color="#EAF5FF"/>
<stop stop-color="#C9E2F4"/>
</linearGradient>
<linearGradient id="pf_0_4_1057" x1="1342.076" y1="456.906" x2="1439.251" y2="527.203" gradientUnits="userSpaceOnUse">
<stop offset="1" stop-color="#4A4975"/>
<stop stop-color="#1D164D"/>
</linearGradient>
<linearGradient id="pf_0_4_1059" x1="1527.328" y1="521.862" x2="1465.467" y2="521.862" gradientUnits="userSpaceOnUse">
<stop offset="1" stop-color="#EF4B4B"/>
<stop stop-color="#C7283A"/>
</linearGradient>
<linearGradient id="pf_0_4_1061" x1="1488.134" y1="528.42" x2="1471.766" y2="515.497" gradientUnits="userSpaceOnUse">
<stop offset="1" stop-color="#FFD6C7"/>
<stop stop-color="#FFC0AC"/>
</linearGradient>
<linearGradient id="pf_0_4_1065" x1="1417.502" y1="532.04" x2="1558.613" y2="440.551" gradientUnits="userSpaceOnUse">
<stop offset="1" stop-color="#4A4975"/>
<stop stop-color="#1D164D"/>
</linearGradient>
<linearGradient id="pf_0_4_1067" x1="1352.03" y1="525.916" x2="1412.764" y2="517.129" gradientUnits="userSpaceOnUse">
<stop offset="1" stop-color="#EF4B4B"/>
<stop stop-color="#C7283A"/>
</linearGradient>
<linearGradient id="pf_0_4_1069" x1="1387.521" y1="521.212" x2="1409.747" y2="510.357" gradientUnits="userSpaceOnUse">
<stop offset="1" stop-color="#FFD6C7"/>
<stop stop-color="#FFC0AC"/>
</linearGradient>
<linearGradient id="pf_0_4_1073" x1="1420.428" y1="287.51" x2="1420.428" y2="287.51" gradientUnits="userSpaceOnUse">
<stop offset="1" stop-color="#FFD6C7"/>
<stop stop-color="#FFC0AC"/>
</linearGradient>
<linearGradient id="pf_0_4_1075" x1="1395.698" y1="247.74" x2="1411.334" y2="262.73" gradientUnits="userSpaceOnUse">
<stop offset="1" stop-color="#FFD6C7"/>
<stop stop-color="#FFC0AC"/>
</linearGradient>
<linearGradient id="pf_0_4_1077" x1="1477.712" y1="250.447" x2="1468.149" y2="263.8" gradientUnits="userSpaceOnUse">
<stop offset="1" stop-color="#FFD6C7"/>
<stop stop-color="#FFC0AC"/>
</linearGradient>
<linearGradient id="pf_0_4_1079" x1="1410.771" y1="236.768" x2="1410.771" y2="236.768" gradientUnits="userSpaceOnUse">
<stop offset="1" stop-color="#FFD6C7"/>
<stop stop-color="#FFC0AC"/>
</linearGradient>
</defs>
</svg>
